# Outpost Commander - AsteroidE
# asteroid variant E, seed 55501; nine-sided, seven sections, no preferred axis
# Generated from meshes.json (outpost-commander-mesh-handoff/2) - do not hand-edit.
# LEFT-HANDED, Y up, +Z forward. Plane is Y=0. Mesh origin = simulated entity position.
# World units 1:1 - the authored extent IS the object's size; never scaled at draw time.
# Face-split vertices, baked per-face normals. No welding, no smoothing groups.
# ONE DEGENERATE TEXTURE COORDINATE, and it is not a UV layout. meshconvert always computes
# a tangent frame when it writes CMO -- the format's vertex carries one -- and it refuses to
# do so without texture coordinates. There is no flag to suppress it. So every face corner
# references this single vt 0 0. The CMO's texcoord field comes back zero, which is what the
# brief asks for; nothing reads it and nothing should start.
# extents  min -90.91 -70.68 -71.09  max 75.97 70.68 69.69  size 166.88 141.36 140.78
# 126 triangles, 378 vertices
# Vertex colour selector is NOT in this file. See AsteroidE.vcol - one line per v record, same order.
mtllib OC_Hull.mtl
o AsteroidE
v -0.17 -70.68 6.83
v 5.9 -70.68 5.67
v 27.55 -50.89 26.51
v -0.17 -70.68 6.83
v 27.55 -50.89 26.51
v -1.03 -50.89 42.39
v 5.9 -70.68 5.67
v 7.51 -70.68 2.37
v 30.98 -50.89 9.79
v 5.9 -70.68 5.67
v 30.98 -50.89 9.79
v 27.55 -50.89 26.51
v 7.51 -70.68 2.37
v 6.9 -70.68 -5.46
v 34.53 -50.89 -27.3
v 7.51 -70.68 2.37
v 34.53 -50.89 -27.3
v 30.98 -50.89 9.79
v 6.9 -70.68 -5.46
v 3.11 -70.68 -7.16
v 13.38 -50.89 -30.85
v 6.9 -70.68 -5.46
v 13.38 -50.89 -30.85
v 34.53 -50.89 -27.3
v 3.11 -70.68 -7.16
v -2.16 -70.68 -7.2
v -11.58 -50.89 -38.63
v 3.11 -70.68 -7.16
v -11.58 -50.89 -38.63
v 13.38 -50.89 -30.85
v -2.16 -70.68 -7.2
v -7.31 -70.68 -5.89
v -26.5 -50.89 -21.35
v -2.16 -70.68 -7.2
v -26.5 -50.89 -21.35
v -11.58 -50.89 -38.63
v -7.31 -70.68 -5.89
v -9.17 -70.68 2.29
v -33.13 -50.89 8.27
v -7.31 -70.68 -5.89
v -33.13 -50.89 8.27
v -26.5 -50.89 -21.35
v -9.17 -70.68 2.29
v -5.35 -70.68 4.62
v -24.05 -50.89 20.8
v -9.17 -70.68 2.29
v -24.05 -50.89 20.8
v -33.13 -50.89 8.27
v -5.35 -70.68 4.62
v -0.17 -70.68 6.83
v -1.03 -50.89 42.39
v -5.35 -70.68 4.62
v -1.03 -50.89 42.39
v -24.05 -50.89 20.8
v -1.03 -50.89 42.39
v 27.55 -50.89 26.51
v 48.48 -25.45 46.65
v -1.03 -50.89 42.39
v 48.48 -25.45 46.65
v -1.38 -25.45 56.51
v 27.55 -50.89 26.51
v 30.98 -50.89 9.79
v 72.01 -25.45 22.75
v 27.55 -50.89 26.51
v 72.01 -25.45 22.75
v 48.48 -25.45 46.65
v 30.98 -50.89 9.79
v 34.53 -50.89 -27.3
v 50.76 -25.45 -40.14
v 30.98 -50.89 9.79
v 50.76 -25.45 -40.14
v 72.01 -25.45 22.75
v 34.53 -50.89 -27.3
v 13.38 -50.89 -30.85
v 23.11 -25.45 -53.27
v 34.53 -50.89 -27.3
v 23.11 -25.45 -53.27
v 50.76 -25.45 -40.14
v 13.38 -50.89 -30.85
v -11.58 -50.89 -38.63
v -20.54 -25.45 -68.51
v 13.38 -50.89 -30.85
v -20.54 -25.45 -68.51
v 23.11 -25.45 -53.27
v -11.58 -50.89 -38.63
v -26.5 -50.89 -21.35
v -53.57 -25.45 -43.16
v -11.58 -50.89 -38.63
v -53.57 -25.45 -43.16
v -20.54 -25.45 -68.51
v -26.5 -50.89 -21.35
v -33.13 -50.89 8.27
v -55.16 -25.45 13.77
v -26.5 -50.89 -21.35
v -55.16 -25.45 13.77
v -53.57 -25.45 -43.16
v -33.13 -50.89 8.27
v -24.05 -50.89 20.8
v -46.49 -25.45 40.21
v -33.13 -50.89 8.27
v -46.49 -25.45 40.21
v -55.16 -25.45 13.77
v -24.05 -50.89 20.8
v -1.03 -50.89 42.39
v -1.38 -25.45 56.51
v -24.05 -50.89 20.8
v -1.38 -25.45 56.51
v -46.49 -25.45 40.21
v -1.38 -25.45 56.51
v 48.48 -25.45 46.65
v 62.53 2.83 60.17
v -1.38 -25.45 56.51
v 62.53 2.83 60.17
v -1.7 2.83 69.69
v 48.48 -25.45 46.65
v 72.01 -25.45 22.75
v 75.97 2.83 24
v 48.48 -25.45 46.65
v 75.97 2.83 24
v 62.53 2.83 60.17
v 72.01 -25.45 22.75
v 50.76 -25.45 -40.14
v 70.6 2.83 -55.83
v 72.01 -25.45 22.75
v 70.6 2.83 -55.83
v 75.97 2.83 24
v 50.76 -25.45 -40.14
v 23.11 -25.45 -53.27
v 30.85 2.83 -71.09
v 50.76 -25.45 -40.14
v 30.85 2.83 -71.09
v 70.6 2.83 -55.83
v 23.11 -25.45 -53.27
v -20.54 -25.45 -68.51
v -20.25 2.83 -67.53
v 23.11 -25.45 -53.27
v -20.25 2.83 -67.53
v 30.85 2.83 -71.09
v -20.54 -25.45 -68.51
v -53.57 -25.45 -43.16
v -73.48 2.83 -59.19
v -20.54 -25.45 -68.51
v -73.48 2.83 -59.19
v -20.25 2.83 -67.53
v -53.57 -25.45 -43.16
v -55.16 -25.45 13.77
v -90.91 2.83 22.7
v -53.57 -25.45 -43.16
v -90.91 2.83 22.7
v -73.48 2.83 -59.19
v -55.16 -25.45 13.77
v -46.49 -25.45 40.21
v -66.15 2.83 57.21
v -55.16 -25.45 13.77
v -66.15 2.83 57.21
v -90.91 2.83 22.7
v -46.49 -25.45 40.21
v -1.38 -25.45 56.51
v -1.7 2.83 69.69
v -46.49 -25.45 40.21
v -1.7 2.83 69.69
v -66.15 2.83 57.21
v -1.7 2.83 69.69
v 62.53 2.83 60.17
v 44.93 31.1 43.23
v -1.7 2.83 69.69
v 44.93 31.1 43.23
v -1.62 31.1 66.43
v 62.53 2.83 60.17
v 75.97 2.83 24
v 58.44 31.1 18.47
v 62.53 2.83 60.17
v 58.44 31.1 18.47
v 44.93 31.1 43.23
v 75.97 2.83 24
v 70.6 2.83 -55.83
v 58.04 31.1 -45.89
v 75.97 2.83 24
v 58.04 31.1 -45.89
v 58.44 31.1 18.47
v 70.6 2.83 -55.83
v 30.85 2.83 -71.09
v 23.61 31.1 -54.41
v 70.6 2.83 -55.83
v 23.61 31.1 -54.41
v 58.04 31.1 -45.89
v 30.85 2.83 -71.09
v -20.25 2.83 -67.53
v -18.85 31.1 -62.86
v 30.85 2.83 -71.09
v -18.85 31.1 -62.86
v 23.61 31.1 -54.41
v -20.25 2.83 -67.53
v -73.48 2.83 -59.19
v -50.63 31.1 -40.78
v -20.25 2.83 -67.53
v -50.63 31.1 -40.78
v -18.85 31.1 -62.86
v -73.48 2.83 -59.19
v -90.91 2.83 22.7
v -57.44 31.1 14.34
v -73.48 2.83 -59.19
v -57.44 31.1 14.34
v -50.63 31.1 -40.78
v -90.91 2.83 22.7
v -66.15 2.83 57.21
v -43.52 31.1 37.64
v -90.91 2.83 22.7
v -43.52 31.1 37.64
v -57.44 31.1 14.34
v -66.15 2.83 57.21
v -1.7 2.83 69.69
v -1.62 31.1 66.43
v -66.15 2.83 57.21
v -1.62 31.1 66.43
v -43.52 31.1 37.64
v -1.62 31.1 66.43
v 44.93 31.1 43.23
v 28.32 53.72 27.25
v -1.62 31.1 66.43
v 28.32 53.72 27.25
v -1.03 53.72 42.37
v 44.93 31.1 43.23
v 58.44 31.1 18.47
v 42.6 53.72 13.46
v 44.93 31.1 43.23
v 42.6 53.72 13.46
v 28.32 53.72 27.25
v 58.44 31.1 18.47
v 58.04 31.1 -45.89
v 37.37 53.72 -29.55
v 58.44 31.1 18.47
v 37.37 53.72 -29.55
v 42.6 53.72 13.46
v 58.04 31.1 -45.89
v 23.61 31.1 -54.41
v 13.47 53.72 -31.04
v 58.04 31.1 -45.89
v 13.47 53.72 -31.04
v 37.37 53.72 -29.55
v 23.61 31.1 -54.41
v -18.85 31.1 -62.86
v -11.24 53.72 -37.48
v 23.61 31.1 -54.41
v -11.24 53.72 -37.48
v 13.47 53.72 -31.04
v -18.85 31.1 -62.86
v -50.63 31.1 -40.78
v -36.55 53.72 -29.44
v -18.85 31.1 -62.86
v -36.55 53.72 -29.44
v -11.24 53.72 -37.48
v -50.63 31.1 -40.78
v -57.44 31.1 14.34
v -44.49 53.72 11.11
v -50.63 31.1 -40.78
v -44.49 53.72 11.11
v -36.55 53.72 -29.44
v -57.44 31.1 14.34
v -43.52 31.1 37.64
v -26.1 53.72 22.57
v -57.44 31.1 14.34
v -26.1 53.72 22.57
v -44.49 53.72 11.11
v -43.52 31.1 37.64
v -1.62 31.1 66.43
v -1.03 53.72 42.37
v -43.52 31.1 37.64
v -1.03 53.72 42.37
v -26.1 53.72 22.57
v -1.03 53.72 42.37
v 28.32 53.72 27.25
v 7.61 70.68 7.32
v -1.03 53.72 42.37
v 7.61 70.68 7.32
v -0.22 70.68 8.87
v 28.32 53.72 27.25
v 42.6 53.72 13.46
v 9.99 70.68 3.16
v 28.32 53.72 27.25
v 9.99 70.68 3.16
v 7.61 70.68 7.32
v 42.6 53.72 13.46
v 37.37 53.72 -29.55
v 7.58 70.68 -6
v 42.6 53.72 13.46
v 7.58 70.68 -6
v 9.99 70.68 3.16
v 37.37 53.72 -29.55
v 13.47 53.72 -31.04
v 4.55 70.68 -10.48
v 37.37 53.72 -29.55
v 4.55 70.68 -10.48
v 7.58 70.68 -6
v 13.47 53.72 -31.04
v -11.24 53.72 -37.48
v -2.61 70.68 -8.69
v 13.47 53.72 -31.04
v -2.61 70.68 -8.69
v 4.55 70.68 -10.48
v -11.24 53.72 -37.48
v -36.55 53.72 -29.44
v -6.47 70.68 -5.21
v -11.24 53.72 -37.48
v -6.47 70.68 -5.21
v -2.61 70.68 -8.69
v -36.55 53.72 -29.44
v -44.49 53.72 11.11
v -10.28 70.68 2.57
v -36.55 53.72 -29.44
v -10.28 70.68 2.57
v -6.47 70.68 -5.21
v -44.49 53.72 11.11
v -26.1 53.72 22.57
v -6.59 70.68 5.7
v -44.49 53.72 11.11
v -6.59 70.68 5.7
v -10.28 70.68 2.57
v -26.1 53.72 22.57
v -1.03 53.72 42.37
v -0.22 70.68 8.87
v -26.1 53.72 22.57
v -0.22 70.68 8.87
v -6.59 70.68 5.7
v -0.08 -70.68 -0.44
v 5.9 -70.68 5.67
v -0.17 -70.68 6.83
v -0.08 -70.68 -0.44
v 7.51 -70.68 2.37
v 5.9 -70.68 5.67
v -0.08 -70.68 -0.44
v 6.9 -70.68 -5.46
v 7.51 -70.68 2.37
v -0.08 -70.68 -0.44
v 3.11 -70.68 -7.16
v 6.9 -70.68 -5.46
v -0.08 -70.68 -0.44
v -2.16 -70.68 -7.2
v 3.11 -70.68 -7.16
v -0.08 -70.68 -0.44
v -7.31 -70.68 -5.89
v -2.16 -70.68 -7.2
v -0.08 -70.68 -0.44
v -9.17 -70.68 2.29
v -7.31 -70.68 -5.89
v -0.08 -70.68 -0.44
v -5.35 -70.68 4.62
v -9.17 -70.68 2.29
v -0.08 -70.68 -0.44
v -0.17 -70.68 6.83
v -5.35 -70.68 4.62
v 0.4 70.68 -0.31
v -0.22 70.68 8.87
v 7.61 70.68 7.32
v 0.4 70.68 -0.31
v 7.61 70.68 7.32
v 9.99 70.68 3.16
v 0.4 70.68 -0.31
v 9.99 70.68 3.16
v 7.58 70.68 -6
v 0.4 70.68 -0.31
v 7.58 70.68 -6
v 4.55 70.68 -10.48
v 0.4 70.68 -0.31
v 4.55 70.68 -10.48
v -2.61 70.68 -8.69
v 0.4 70.68 -0.31
v -2.61 70.68 -8.69
v -6.47 70.68 -5.21
v 0.4 70.68 -0.31
v -6.47 70.68 -5.21
v -10.28 70.68 2.57
v 0.4 70.68 -0.31
v -10.28 70.68 2.57
v -6.59 70.68 5.7
v 0.4 70.68 -0.31
v -6.59 70.68 5.7
v -0.22 70.68 8.87
vn 0.12 -0.78 0.62
vn 0.12 -0.78 0.62
vn 0.12 -0.78 0.62
vn 0.26 -0.84 0.47
vn 0.26 -0.84 0.47
vn 0.26 -0.84 0.47
vn 0.57 -0.78 0.28
vn 0.57 -0.78 0.28
vn 0.57 -0.78 0.28
vn 0.6 -0.79 0.12
vn 0.6 -0.79 0.12
vn 0.6 -0.79 0.12
vn 0.56 -0.83 -0.04
vn 0.56 -0.83 -0.04
vn 0.56 -0.83 -0.04
vn 0.63 -0.77 0.06
vn 0.63 -0.77 0.06
vn 0.63 -0.77 0.06
vn 0.25 -0.79 -0.56
vn 0.25 -0.79 -0.56
vn 0.25 -0.79 -0.56
vn 0.1 -0.8 -0.6
vn 0.1 -0.8 -0.6
vn 0.1 -0.8 -0.6
vn 0 -0.85 -0.53
vn 0 -0.85 -0.53
vn 0 -0.85 -0.53
vn 0.18 -0.79 -0.58
vn 0.18 -0.79 -0.58
vn 0.18 -0.79 -0.58
vn -0.17 -0.71 -0.69
vn -0.17 -0.71 -0.69
vn -0.17 -0.71 -0.69
vn -0.44 -0.81 -0.38
vn -0.44 -0.81 -0.38
vn -0.44 -0.81 -0.38
vn -0.65 -0.74 -0.15
vn -0.65 -0.74 -0.15
vn -0.65 -0.74 -0.15
vn -0.65 -0.75 -0.15
vn -0.65 -0.75 -0.15
vn -0.65 -0.75 -0.15
vn -0.33 -0.77 0.55
vn -0.33 -0.77 0.55
vn -0.33 -0.77 0.55
vn -0.53 -0.76 0.38
vn -0.53 -0.76 0.38
vn -0.53 -0.76 0.38
vn -0.2 -0.86 0.47
vn -0.2 -0.86 0.47
vn -0.2 -0.86 0.47
vn -0.43 -0.78 0.46
vn -0.43 -0.78 0.46
vn -0.43 -0.78 0.46
vn 0.33 -0.74 0.59
vn 0.33 -0.74 0.59
vn 0.33 -0.74 0.59
vn 0.17 -0.48 0.86
vn 0.17 -0.48 0.86
vn 0.17 -0.48 0.86
vn 0.5 -0.86 0.1
vn 0.5 -0.86 0.1
vn 0.5 -0.86 0.1
vn 0.47 -0.75 0.46
vn 0.47 -0.75 0.46
vn 0.47 -0.75 0.46
vn 0.86 -0.51 0.08
vn 0.86 -0.51 0.08
vn 0.86 -0.51 0.08
vn 0.56 -0.81 -0.19
vn 0.56 -0.81 -0.19
vn 0.56 -0.81 -0.19
vn 0.12 -0.68 -0.72
vn 0.12 -0.68 -0.72
vn 0.12 -0.68 -0.72
vn 0.35 -0.59 -0.73
vn 0.35 -0.59 -0.73
vn 0.35 -0.59 -0.73
vn 0.21 -0.71 -0.67
vn 0.21 -0.71 -0.67
vn 0.21 -0.71 -0.67
vn 0.24 -0.69 -0.68
vn 0.24 -0.69 -0.68
vn 0.24 -0.69 -0.68
vn -0.45 -0.81 -0.39
vn -0.45 -0.81 -0.39
vn -0.45 -0.81 -0.39
vn -0.4 -0.75 -0.52
vn -0.4 -0.75 -0.52
vn -0.4 -0.75 -0.52
vn -0.76 -0.62 -0.17
vn -0.76 -0.62 -0.17
vn -0.76 -0.62 -0.17
vn -0.68 -0.74 -0.02
vn -0.68 -0.74 -0.02
vn -0.68 -0.74 -0.02
vn -0.53 -0.76 0.38
vn -0.53 -0.76 0.38
vn -0.53 -0.76 0.38
vn -0.71 -0.66 0.23
vn -0.71 -0.66 0.23
vn -0.71 -0.66 0.23
vn -0.63 -0.38 0.67
vn -0.63 -0.38 0.67
vn -0.63 -0.38 0.67
vn -0.24 -0.71 0.66
vn -0.24 -0.71 0.66
vn -0.24 -0.71 0.66
vn 0.17 -0.49 0.85
vn 0.17 -0.49 0.85
vn 0.17 -0.49 0.85
vn 0.13 -0.42 0.9
vn 0.13 -0.42 0.9
vn 0.13 -0.42 0.9
vn 0.71 -0.13 0.7
vn 0.71 -0.13 0.7
vn 0.71 -0.13 0.7
vn 0.79 -0.53 0.29
vn 0.79 -0.53 0.29
vn 0.79 -0.53 0.29
vn 0.72 -0.64 -0.24
vn 0.72 -0.64 -0.24
vn 0.72 -0.64 -0.24
vn 0.99 -0.14 -0.07
vn 0.99 -0.14 -0.07
vn 0.99 -0.14 -0.07
vn 0.35 -0.57 -0.74
vn 0.35 -0.57 -0.74
vn 0.35 -0.57 -0.74
vn 0.28 -0.61 -0.74
vn 0.28 -0.61 -0.74
vn 0.28 -0.61 -0.74
vn 0.33 0.03 -0.94
vn 0.33 0.03 -0.94
vn 0.33 0.03 -0.94
vn -0.06 -0.52 -0.85
vn -0.06 -0.52 -0.85
vn -0.06 -0.52 -0.85
vn -0.46 -0.66 -0.6
vn -0.46 -0.66 -0.6
vn -0.46 -0.66 -0.6
vn -0.15 0.04 -0.99
vn -0.15 0.04 -0.99
vn -0.15 0.04 -0.99
vn -0.62 -0.78 -0.02
vn -0.62 -0.78 -0.02
vn -0.62 -0.78 -0.02
vn -0.76 -0.63 -0.16
vn -0.76 -0.63 -0.16
vn -0.76 -0.63 -0.16
vn -0.72 -0.65 0.24
vn -0.72 -0.65 0.24
vn -0.72 -0.65 0.24
vn -0.52 -0.77 0.37
vn -0.52 -0.77 0.37
vn -0.52 -0.77 0.37
vn -0.31 -0.4 0.86
vn -0.31 -0.4 0.86
vn -0.31 -0.4 0.86
vn -0.15 -0.59 0.8
vn -0.15 -0.59 0.8
vn -0.15 -0.59 0.8
vn 0.12 0.56 0.82
vn 0.12 0.56 0.82
vn 0.12 0.56 0.82
vn 0.44 0.1 0.89
vn 0.44 0.1 0.89
vn 0.44 0.1 0.89
vn 0.79 0.54 0.29
vn 0.79 0.54 0.29
vn 0.79 0.54 0.29
vn 0.67 0.64 0.37
vn 0.67 0.64 0.37
vn 0.67 0.64 0.37
vn 0.9 0.42 -0.06
vn 0.9 0.42 -0.06
vn 0.9 0.42 -0.06
vn 0.85 0.53 -0.01
vn 0.85 0.53 -0.01
vn 0.85 0.53 -0.01
vn 0.3 0.54 -0.79
vn 0.3 0.54 -0.79
vn 0.3 0.54 -0.79
vn 0.22 0.41 -0.89
vn 0.22 0.41 -0.89
vn 0.22 0.41 -0.89
vn -0.07 0.17 -0.98
vn -0.07 0.17 -0.98
vn -0.07 0.17 -0.98
vn 0.17 0.53 -0.83
vn 0.17 0.53 -0.83
vn 0.17 0.53 -0.83
vn -0.12 0.61 -0.78
vn -0.12 0.61 -0.78
vn -0.12 0.61 -0.78
vn -0.56 0.16 -0.81
vn -0.56 0.16 -0.81
vn -0.56 0.16 -0.81
vn -0.66 0.74 -0.14
vn -0.66 0.74 -0.14
vn -0.66 0.74 -0.14
vn -0.74 0.66 -0.09
vn -0.74 0.66 -0.09
vn -0.74 0.66 -0.09
vn -0.56 0.73 0.4
vn -0.56 0.73 0.4
vn -0.56 0.73 0.4
vn -0.56 0.76 0.33
vn -0.56 0.76 0.33
vn -0.56 0.76 0.33
vn -0.19 0.11 0.98
vn -0.19 0.11 0.98
vn -0.19 0.11 0.98
vn -0.4 0.72 0.58
vn -0.4 0.72 0.58
vn -0.4 0.72 0.58
vn 0.32 0.69 0.65
vn 0.32 0.69 0.65
vn 0.32 0.69 0.65
vn 0.33 0.68 0.65
vn 0.33 0.68 0.65
vn 0.33 0.68 0.65
vn 0.71 0.58 0.39
vn 0.71 0.58 0.39
vn 0.71 0.58 0.39
vn 0.49 0.71 0.5
vn 0.49 0.71 0.5
vn 0.49 0.71 0.5
vn 0.74 0.68 0
vn 0.74 0.68 0
vn 0.74 0.68 0
vn 0.83 0.56 -0.1
vn 0.83 0.56 -0.1
vn 0.83 0.56 -0.1
vn 0.16 0.74 -0.65
vn 0.16 0.74 -0.65
vn 0.16 0.74 -0.65
vn 0.05 0.61 -0.79
vn 0.05 0.61 -0.79
vn 0.05 0.61 -0.79
vn 0.14 0.72 -0.68
vn 0.14 0.72 -0.68
vn 0.14 0.72 -0.68
vn 0.17 0.74 -0.65
vn 0.17 0.74 -0.65
vn 0.17 0.74 -0.65
vn -0.45 0.61 -0.65
vn -0.45 0.61 -0.65
vn -0.45 0.61 -0.65
vn -0.2 0.76 -0.62
vn -0.2 0.76 -0.62
vn -0.2 0.76 -0.62
vn -0.87 0.48 -0.11
vn -0.87 0.48 -0.11
vn -0.87 0.48 -0.11
vn -0.8 0.58 -0.16
vn -0.8 0.58 -0.16
vn -0.8 0.58 -0.16
vn -0.61 0.71 0.36
vn -0.61 0.71 0.36
vn -0.61 0.71 0.36
vn -0.49 0.39 0.78
vn -0.49 0.39 0.78
vn -0.49 0.39 0.78
vn -0.42 0.67 0.62
vn -0.42 0.67 0.62
vn -0.42 0.67 0.62
vn -0.44 0.71 0.55
vn -0.44 0.71 0.55
vn -0.44 0.71 0.55
vn 0.24 0.85 0.47
vn 0.24 0.85 0.47
vn 0.24 0.85 0.47
vn 0.09 0.89 0.45
vn 0.09 0.89 0.45
vn 0.09 0.89 0.45
vn 0.34 0.87 0.35
vn 0.34 0.87 0.35
vn 0.34 0.87 0.35
vn 0.45 0.85 0.26
vn 0.45 0.85 0.26
vn 0.45 0.85 0.26
vn 0.46 0.89 -0.06
vn 0.46 0.89 -0.06
vn 0.46 0.89 -0.06
vn 0.49 0.86 -0.13
vn 0.49 0.86 -0.13
vn 0.49 0.86 -0.13
vn 0.04 0.78 -0.63
vn 0.04 0.78 -0.63
vn 0.04 0.78 -0.63
vn 0.34 0.91 -0.23
vn 0.34 0.91 -0.23
vn 0.34 0.91 -0.23
vn 0.14 0.83 -0.53
vn 0.14 0.83 -0.53
vn 0.14 0.83 -0.53
vn -0.17 0.72 -0.67
vn -0.17 0.72 -0.67
vn -0.17 0.72 -0.67
vn -0.14 0.88 -0.44
vn -0.14 0.88 -0.44
vn -0.14 0.88 -0.44
vn -0.35 0.85 -0.39
vn -0.35 0.85 -0.39
vn -0.35 0.85 -0.39
vn -0.46 0.88 -0.09
vn -0.46 0.88 -0.09
vn -0.46 0.88 -0.09
vn -0.37 0.91 -0.18
vn -0.37 0.91 -0.18
vn -0.37 0.91 -0.18
vn -0.3 0.82 0.48
vn -0.3 0.82 0.48
vn -0.3 0.82 0.48
vn -0.33 0.86 0.39
vn -0.33 0.86 0.39
vn -0.33 0.86 0.39
vn -0.33 0.84 0.42
vn -0.33 0.84 0.42
vn -0.33 0.84 0.42
vn -0.26 0.81 0.52
vn -0.26 0.81 0.52
vn -0.26 0.81 0.52
vn 0 -1 0
vn 0 -1 0
vn 0 -1 0
vn 0 -1 0
vn 0 -1 0
vn 0 -1 0
vn 0 -1 0
vn 0 -1 0
vn 0 -1 0
vn 0 -1 0
vn 0 -1 0
vn 0 -1 0
vn 0 -1 0
vn 0 -1 0
vn 0 -1 0
vn 0 -1 0
vn 0 -1 0
vn 0 -1 0
vn 0 -1 0
vn 0 -1 0
vn 0 -1 0
vn 0 -1 0
vn 0 -1 0
vn 0 -1 0
vn 0 -1 0
vn 0 -1 0
vn 0 -1 0
vn 0 1 0
vn 0 1 0
vn 0 1 0
vn 0 1 0
vn 0 1 0
vn 0 1 0
vn 0 1 0
vn 0 1 0
vn 0 1 0
vn 0 1 0
vn 0 1 0
vn 0 1 0
vn 0 1 0
vn 0 1 0
vn 0 1 0
vn 0 1 0
vn 0 1 0
vn 0 1 0
vn 0 1 0
vn 0 1 0
vn 0 1 0
vn 0 1 0
vn 0 1 0
vn 0 1 0
vn 0 1 0
vn 0 1 0
vn 0 1 0
vt 0 0
usemtl OC_Hull
s off
f 1/1/1 2/1/2 3/1/3
f 4/1/4 5/1/5 6/1/6
f 7/1/7 8/1/8 9/1/9
f 10/1/10 11/1/11 12/1/12
f 13/1/13 14/1/14 15/1/15
f 16/1/16 17/1/17 18/1/18
f 19/1/19 20/1/20 21/1/21
f 22/1/22 23/1/23 24/1/24
f 25/1/25 26/1/26 27/1/27
f 28/1/28 29/1/29 30/1/30
f 31/1/31 32/1/32 33/1/33
f 34/1/34 35/1/35 36/1/36
f 37/1/37 38/1/38 39/1/39
f 40/1/40 41/1/41 42/1/42
f 43/1/43 44/1/44 45/1/45
f 46/1/46 47/1/47 48/1/48
f 49/1/49 50/1/50 51/1/51
f 52/1/52 53/1/53 54/1/54
f 55/1/55 56/1/56 57/1/57
f 58/1/58 59/1/59 60/1/60
f 61/1/61 62/1/62 63/1/63
f 64/1/64 65/1/65 66/1/66
f 67/1/67 68/1/68 69/1/69
f 70/1/70 71/1/71 72/1/72
f 73/1/73 74/1/74 75/1/75
f 76/1/76 77/1/77 78/1/78
f 79/1/79 80/1/80 81/1/81
f 82/1/82 83/1/83 84/1/84
f 85/1/85 86/1/86 87/1/87
f 88/1/88 89/1/89 90/1/90
f 91/1/91 92/1/92 93/1/93
f 94/1/94 95/1/95 96/1/96
f 97/1/97 98/1/98 99/1/99
f 100/1/100 101/1/101 102/1/102
f 103/1/103 104/1/104 105/1/105
f 106/1/106 107/1/107 108/1/108
f 109/1/109 110/1/110 111/1/111
f 112/1/112 113/1/113 114/1/114
f 115/1/115 116/1/116 117/1/117
f 118/1/118 119/1/119 120/1/120
f 121/1/121 122/1/122 123/1/123
f 124/1/124 125/1/125 126/1/126
f 127/1/127 128/1/128 129/1/129
f 130/1/130 131/1/131 132/1/132
f 133/1/133 134/1/134 135/1/135
f 136/1/136 137/1/137 138/1/138
f 139/1/139 140/1/140 141/1/141
f 142/1/142 143/1/143 144/1/144
f 145/1/145 146/1/146 147/1/147
f 148/1/148 149/1/149 150/1/150
f 151/1/151 152/1/152 153/1/153
f 154/1/154 155/1/155 156/1/156
f 157/1/157 158/1/158 159/1/159
f 160/1/160 161/1/161 162/1/162
f 163/1/163 164/1/164 165/1/165
f 166/1/166 167/1/167 168/1/168
f 169/1/169 170/1/170 171/1/171
f 172/1/172 173/1/173 174/1/174
f 175/1/175 176/1/176 177/1/177
f 178/1/178 179/1/179 180/1/180
f 181/1/181 182/1/182 183/1/183
f 184/1/184 185/1/185 186/1/186
f 187/1/187 188/1/188 189/1/189
f 190/1/190 191/1/191 192/1/192
f 193/1/193 194/1/194 195/1/195
f 196/1/196 197/1/197 198/1/198
f 199/1/199 200/1/200 201/1/201
f 202/1/202 203/1/203 204/1/204
f 205/1/205 206/1/206 207/1/207
f 208/1/208 209/1/209 210/1/210
f 211/1/211 212/1/212 213/1/213
f 214/1/214 215/1/215 216/1/216
f 217/1/217 218/1/218 219/1/219
f 220/1/220 221/1/221 222/1/222
f 223/1/223 224/1/224 225/1/225
f 226/1/226 227/1/227 228/1/228
f 229/1/229 230/1/230 231/1/231
f 232/1/232 233/1/233 234/1/234
f 235/1/235 236/1/236 237/1/237
f 238/1/238 239/1/239 240/1/240
f 241/1/241 242/1/242 243/1/243
f 244/1/244 245/1/245 246/1/246
f 247/1/247 248/1/248 249/1/249
f 250/1/250 251/1/251 252/1/252
f 253/1/253 254/1/254 255/1/255
f 256/1/256 257/1/257 258/1/258
f 259/1/259 260/1/260 261/1/261
f 262/1/262 263/1/263 264/1/264
f 265/1/265 266/1/266 267/1/267
f 268/1/268 269/1/269 270/1/270
f 271/1/271 272/1/272 273/1/273
f 274/1/274 275/1/275 276/1/276
f 277/1/277 278/1/278 279/1/279
f 280/1/280 281/1/281 282/1/282
f 283/1/283 284/1/284 285/1/285
f 286/1/286 287/1/287 288/1/288
f 289/1/289 290/1/290 291/1/291
f 292/1/292 293/1/293 294/1/294
f 295/1/295 296/1/296 297/1/297
f 298/1/298 299/1/299 300/1/300
f 301/1/301 302/1/302 303/1/303
f 304/1/304 305/1/305 306/1/306
f 307/1/307 308/1/308 309/1/309
f 310/1/310 311/1/311 312/1/312
f 313/1/313 314/1/314 315/1/315
f 316/1/316 317/1/317 318/1/318
f 319/1/319 320/1/320 321/1/321
f 322/1/322 323/1/323 324/1/324
f 325/1/325 326/1/326 327/1/327
f 328/1/328 329/1/329 330/1/330
f 331/1/331 332/1/332 333/1/333
f 334/1/334 335/1/335 336/1/336
f 337/1/337 338/1/338 339/1/339
f 340/1/340 341/1/341 342/1/342
f 343/1/343 344/1/344 345/1/345
f 346/1/346 347/1/347 348/1/348
f 349/1/349 350/1/350 351/1/351
f 352/1/352 353/1/353 354/1/354
f 355/1/355 356/1/356 357/1/357
f 358/1/358 359/1/359 360/1/360
f 361/1/361 362/1/362 363/1/363
f 364/1/364 365/1/365 366/1/366
f 367/1/367 368/1/368 369/1/369
f 370/1/370 371/1/371 372/1/372
f 373/1/373 374/1/374 375/1/375
f 376/1/376 377/1/377 378/1/378
