# Outpost Commander - ModuleOreProcessorL1
# ore processor L1 — one closed 16-sided drum, top hatch, three intake pods. Solid mass: the type cue against the shipyard truss.
# Generated from meshes.json (outpost-commander-mesh-handoff/2) - do not hand-edit.
# LEFT-HANDED, Y up, +Z forward. Plane is Y=0. Mesh origin = simulated entity position.
# World units 1:1 - the authored extent IS the object's size; never scaled at draw time.
# Face-split vertices, baked per-face normals. No welding, no smoothing groups.
# ONE DEGENERATE TEXTURE COORDINATE, and it is not a UV layout. meshconvert always computes
# a tangent frame when it writes CMO -- the format's vertex carries one -- and it refuses to
# do so without texture coordinates. There is no flag to suppress it. So every face corner
# references this single vt 0 0. The CMO's texcoord field comes back zero, which is what the
# brief asks for; nothing reads it and nothing should start.
# extents  min -41.35 -11 -37  max 37 17 39.32  size 78.35 28 76.32
# 212 triangles, 636 vertices
# Vertex colour selector is NOT in this file. See ModuleOreProcessorL1.vcol - one line per v record, same order.
mtllib OC_Hull.mtl
o ModuleOreProcessorL1
v 0 -11 22.94
v 8.78 -11 21.19
v 13.31 -5 32.13
v 0 -11 22.94
v 13.31 -5 32.13
v 0 -5 34.78
v 8.78 -11 21.19
v 16.22 -11 16.22
v 24.59 -5 24.59
v 8.78 -11 21.19
v 24.59 -5 24.59
v 13.31 -5 32.13
v 16.22 -11 16.22
v 21.19 -11 8.78
v 32.13 -5 13.31
v 16.22 -11 16.22
v 32.13 -5 13.31
v 24.59 -5 24.59
v 21.19 -11 8.78
v 22.94 -11 0
v 34.78 -5 0
v 21.19 -11 8.78
v 34.78 -5 0
v 32.13 -5 13.31
v 22.94 -11 0
v 21.19 -11 -8.78
v 32.13 -5 -13.31
v 22.94 -11 0
v 32.13 -5 -13.31
v 34.78 -5 0
v 21.19 -11 -8.78
v 16.22 -11 -16.22
v 24.59 -5 -24.59
v 21.19 -11 -8.78
v 24.59 -5 -24.59
v 32.13 -5 -13.31
v 16.22 -11 -16.22
v 8.78 -11 -21.19
v 13.31 -5 -32.13
v 16.22 -11 -16.22
v 13.31 -5 -32.13
v 24.59 -5 -24.59
v 8.78 -11 -21.19
v 0 -11 -22.94
v 0 -5 -34.78
v 8.78 -11 -21.19
v 0 -5 -34.78
v 13.31 -5 -32.13
v 0 -11 -22.94
v -8.78 -11 -21.19
v -13.31 -5 -32.13
v 0 -11 -22.94
v -13.31 -5 -32.13
v 0 -5 -34.78
v -8.78 -11 -21.19
v -16.22 -11 -16.22
v -24.59 -5 -24.59
v -8.78 -11 -21.19
v -24.59 -5 -24.59
v -13.31 -5 -32.13
v -16.22 -11 -16.22
v -21.19 -11 -8.78
v -32.13 -5 -13.31
v -16.22 -11 -16.22
v -32.13 -5 -13.31
v -24.59 -5 -24.59
v -21.19 -11 -8.78
v -22.94 -11 0
v -34.78 -5 0
v -21.19 -11 -8.78
v -34.78 -5 0
v -32.13 -5 -13.31
v -22.94 -11 0
v -21.19 -11 8.78
v -32.13 -5 13.31
v -22.94 -11 0
v -32.13 -5 13.31
v -34.78 -5 0
v -21.19 -11 8.78
v -16.22 -11 16.22
v -24.59 -5 24.59
v -21.19 -11 8.78
v -24.59 -5 24.59
v -32.13 -5 13.31
v -16.22 -11 16.22
v -8.78 -11 21.19
v -13.31 -5 32.13
v -16.22 -11 16.22
v -13.31 -5 32.13
v -24.59 -5 24.59
v -8.78 -11 21.19
v 0 -11 22.94
v 0 -5 34.78
v -8.78 -11 21.19
v 0 -5 34.78
v -13.31 -5 32.13
v 0 -5 34.78
v 13.31 -5 32.13
v 14.16 3 34.18
v 0 -5 34.78
v 14.16 3 34.18
v 0 3 37
v 13.31 -5 32.13
v 24.59 -5 24.59
v 26.16 3 26.16
v 13.31 -5 32.13
v 26.16 3 26.16
v 14.16 3 34.18
v 24.59 -5 24.59
v 32.13 -5 13.31
v 34.18 3 14.16
v 24.59 -5 24.59
v 34.18 3 14.16
v 26.16 3 26.16
v 32.13 -5 13.31
v 34.78 -5 0
v 37 3 0
v 32.13 -5 13.31
v 37 3 0
v 34.18 3 14.16
v 34.78 -5 0
v 32.13 -5 -13.31
v 34.18 3 -14.16
v 34.78 -5 0
v 34.18 3 -14.16
v 37 3 0
v 32.13 -5 -13.31
v 24.59 -5 -24.59
v 26.16 3 -26.16
v 32.13 -5 -13.31
v 26.16 3 -26.16
v 34.18 3 -14.16
v 24.59 -5 -24.59
v 13.31 -5 -32.13
v 14.16 3 -34.18
v 24.59 -5 -24.59
v 14.16 3 -34.18
v 26.16 3 -26.16
v 13.31 -5 -32.13
v 0 -5 -34.78
v 0 3 -37
v 13.31 -5 -32.13
v 0 3 -37
v 14.16 3 -34.18
v 0 -5 -34.78
v -13.31 -5 -32.13
v -14.16 3 -34.18
v 0 -5 -34.78
v -14.16 3 -34.18
v 0 3 -37
v -13.31 -5 -32.13
v -24.59 -5 -24.59
v -26.16 3 -26.16
v -13.31 -5 -32.13
v -26.16 3 -26.16
v -14.16 3 -34.18
v -24.59 -5 -24.59
v -32.13 -5 -13.31
v -34.18 3 -14.16
v -24.59 -5 -24.59
v -34.18 3 -14.16
v -26.16 3 -26.16
v -32.13 -5 -13.31
v -34.78 -5 0
v -37 3 0
v -32.13 -5 -13.31
v -37 3 0
v -34.18 3 -14.16
v -34.78 -5 0
v -32.13 -5 13.31
v -34.18 3 14.16
v -34.78 -5 0
v -34.18 3 14.16
v -37 3 0
v -32.13 -5 13.31
v -24.59 -5 24.59
v -26.16 3 26.16
v -32.13 -5 13.31
v -26.16 3 26.16
v -34.18 3 14.16
v -24.59 -5 24.59
v -13.31 -5 32.13
v -14.16 3 34.18
v -24.59 -5 24.59
v -14.16 3 34.18
v -26.16 3 26.16
v -13.31 -5 32.13
v 0 -5 34.78
v 0 3 37
v -13.31 -5 32.13
v 0 3 37
v -14.16 3 34.18
v 0 3 37
v 14.16 3 34.18
v 11.04 11 26.66
v 0 3 37
v 11.04 11 26.66
v 0 11 28.86
v 14.16 3 34.18
v 26.16 3 26.16
v 20.41 11 20.41
v 14.16 3 34.18
v 20.41 11 20.41
v 11.04 11 26.66
v 26.16 3 26.16
v 34.18 3 14.16
v 26.66 11 11.04
v 26.16 3 26.16
v 26.66 11 11.04
v 20.41 11 20.41
v 34.18 3 14.16
v 37 3 0
v 28.86 11 0
v 34.18 3 14.16
v 28.86 11 0
v 26.66 11 11.04
v 37 3 0
v 34.18 3 -14.16
v 26.66 11 -11.04
v 37 3 0
v 26.66 11 -11.04
v 28.86 11 0
v 34.18 3 -14.16
v 26.16 3 -26.16
v 20.41 11 -20.41
v 34.18 3 -14.16
v 20.41 11 -20.41
v 26.66 11 -11.04
v 26.16 3 -26.16
v 14.16 3 -34.18
v 11.04 11 -26.66
v 26.16 3 -26.16
v 11.04 11 -26.66
v 20.41 11 -20.41
v 14.16 3 -34.18
v 0 3 -37
v 0 11 -28.86
v 14.16 3 -34.18
v 0 11 -28.86
v 11.04 11 -26.66
v 0 3 -37
v -14.16 3 -34.18
v -11.04 11 -26.66
v 0 3 -37
v -11.04 11 -26.66
v 0 11 -28.86
v -14.16 3 -34.18
v -26.16 3 -26.16
v -20.41 11 -20.41
v -14.16 3 -34.18
v -20.41 11 -20.41
v -11.04 11 -26.66
v -26.16 3 -26.16
v -34.18 3 -14.16
v -26.66 11 -11.04
v -26.16 3 -26.16
v -26.66 11 -11.04
v -20.41 11 -20.41
v -34.18 3 -14.16
v -37 3 0
v -28.86 11 0
v -34.18 3 -14.16
v -28.86 11 0
v -26.66 11 -11.04
v -37 3 0
v -34.18 3 14.16
v -26.66 11 11.04
v -37 3 0
v -26.66 11 11.04
v -28.86 11 0
v -34.18 3 14.16
v -26.16 3 26.16
v -20.41 11 20.41
v -34.18 3 14.16
v -20.41 11 20.41
v -26.66 11 11.04
v -26.16 3 26.16
v -14.16 3 34.18
v -11.04 11 26.66
v -26.16 3 26.16
v -11.04 11 26.66
v -20.41 11 20.41
v -14.16 3 34.18
v 0 3 37
v 0 11 28.86
v -14.16 3 34.18
v 0 11 28.86
v -11.04 11 26.66
v 0 -11 0
v 8.78 -11 21.19
v 0 -11 22.94
v 0 -11 0
v 16.22 -11 16.22
v 8.78 -11 21.19
v 0 -11 0
v 21.19 -11 8.78
v 16.22 -11 16.22
v 0 -11 0
v 22.94 -11 0
v 21.19 -11 8.78
v 0 -11 0
v 21.19 -11 -8.78
v 22.94 -11 0
v 0 -11 0
v 16.22 -11 -16.22
v 21.19 -11 -8.78
v 0 -11 0
v 8.78 -11 -21.19
v 16.22 -11 -16.22
v 0 -11 0
v 0 -11 -22.94
v 8.78 -11 -21.19
v 0 -11 0
v -8.78 -11 -21.19
v 0 -11 -22.94
v 0 -11 0
v -16.22 -11 -16.22
v -8.78 -11 -21.19
v 0 -11 0
v -21.19 -11 -8.78
v -16.22 -11 -16.22
v 0 -11 0
v -22.94 -11 0
v -21.19 -11 -8.78
v 0 -11 0
v -21.19 -11 8.78
v -22.94 -11 0
v 0 -11 0
v -16.22 -11 16.22
v -21.19 -11 8.78
v 0 -11 0
v -8.78 -11 21.19
v -16.22 -11 16.22
v 0 -11 0
v 0 -11 22.94
v -8.78 -11 21.19
v 0 11 0
v 0 11 28.86
v 11.04 11 26.66
v 0 11 0
v 11.04 11 26.66
v 20.41 11 20.41
v 0 11 0
v 20.41 11 20.41
v 26.66 11 11.04
v 0 11 0
v 26.66 11 11.04
v 28.86 11 0
v 0 11 0
v 28.86 11 0
v 26.66 11 -11.04
v 0 11 0
v 26.66 11 -11.04
v 20.41 11 -20.41
v 0 11 0
v 20.41 11 -20.41
v 11.04 11 -26.66
v 0 11 0
v 11.04 11 -26.66
v 0 11 -28.86
v 0 11 0
v 0 11 -28.86
v -11.04 11 -26.66
v 0 11 0
v -11.04 11 -26.66
v -20.41 11 -20.41
v 0 11 0
v -20.41 11 -20.41
v -26.66 11 -11.04
v 0 11 0
v -26.66 11 -11.04
v -28.86 11 0
v 0 11 0
v -28.86 11 0
v -26.66 11 11.04
v 0 11 0
v -26.66 11 11.04
v -20.41 11 20.41
v 0 11 0
v -20.41 11 20.41
v -11.04 11 26.66
v 0 11 0
v -11.04 11 26.66
v 0 11 28.86
v 0 11 15
v 10.61 11 10.61
v 7 17 7
v 0 11 15
v 7 17 7
v 0 17 9.9
v 10.61 11 10.61
v 15 11 0
v 9.9 17 0
v 10.61 11 10.61
v 9.9 17 0
v 7 17 7
v 15 11 0
v 10.61 11 -10.61
v 7 17 -7
v 15 11 0
v 7 17 -7
v 9.9 17 0
v 10.61 11 -10.61
v 0 11 -15
v 0 17 -9.9
v 10.61 11 -10.61
v 0 17 -9.9
v 7 17 -7
v 0 11 -15
v -10.61 11 -10.61
v -7 17 -7
v 0 11 -15
v -7 17 -7
v 0 17 -9.9
v -10.61 11 -10.61
v -15 11 0
v -9.9 17 0
v -10.61 11 -10.61
v -9.9 17 0
v -7 17 -7
v -15 11 0
v -10.61 11 10.61
v -7 17 7
v -15 11 0
v -7 17 7
v -9.9 17 0
v -10.61 11 10.61
v 0 11 15
v 0 17 9.9
v -10.61 11 10.61
v 0 17 9.9
v -7 17 7
v 0 17 0
v 0 17 9.9
v 7 17 7
v 0 17 0
v 7 17 7
v 9.9 17 0
v 0 17 0
v 9.9 17 0
v 7 17 -7
v 0 17 0
v 7 17 -7
v 0 17 -9.9
v 0 17 0
v 0 17 -9.9
v -7 17 -7
v 0 17 0
v -7 17 -7
v -9.9 17 0
v 0 17 0
v -9.9 17 0
v -7 17 7
v 0 17 0
v -7 17 7
v 0 17 9.9
v 13.24 -6 37.72
v 19.33 -6 33.29
v 20.85 4 33.79
v 13.24 -6 37.72
v 20.85 4 33.79
v 13.24 4 39.32
v 19.33 -6 33.29
v 17 -6 26.14
v 17.94 4 24.84
v 19.33 -6 33.29
v 17.94 4 24.84
v 20.85 4 33.79
v 17 -6 26.14
v 9.48 -6 26.14
v 8.54 4 24.84
v 17 -6 26.14
v 8.54 4 24.84
v 17.94 4 24.84
v 9.48 -6 26.14
v 7.15 -6 33.29
v 5.63 4 33.79
v 9.48 -6 26.14
v 5.63 4 33.79
v 8.54 4 24.84
v 7.15 -6 33.29
v 13.24 -6 37.72
v 13.24 4 39.32
v 7.15 -6 33.29
v 13.24 4 39.32
v 5.63 4 33.79
v 13.24 -6 31.32
v 19.33 -6 33.29
v 13.24 -6 37.72
v 13.24 -6 31.32
v 17 -6 26.14
v 19.33 -6 33.29
v 13.24 -6 31.32
v 9.48 -6 26.14
v 17 -6 26.14
v 13.24 -6 31.32
v 7.15 -6 33.29
v 9.48 -6 26.14
v 13.24 -6 31.32
v 13.24 -6 37.72
v 7.15 -6 33.29
v 13.24 4 31.32
v 13.24 4 39.32
v 20.85 4 33.79
v 13.24 4 31.32
v 20.85 4 33.79
v 17.94 4 24.84
v 13.24 4 31.32
v 17.94 4 24.84
v 8.54 4 24.84
v 13.24 4 31.32
v 8.54 4 24.84
v 5.63 4 33.79
v 13.24 4 31.32
v 5.63 4 33.79
v 13.24 4 39.32
v 20.5 -6 -20.72
v 26.59 -6 -25.15
v 28.11 4 -24.65
v 20.5 -6 -20.72
v 28.11 4 -24.65
v 20.5 4 -19.12
v 26.59 -6 -25.15
v 24.26 -6 -32.3
v 25.2 4 -33.6
v 26.59 -6 -25.15
v 25.2 4 -33.6
v 28.11 4 -24.65
v 24.26 -6 -32.3
v 16.74 -6 -32.3
v 15.8 4 -33.6
v 24.26 -6 -32.3
v 15.8 4 -33.6
v 25.2 4 -33.6
v 16.74 -6 -32.3
v 14.41 -6 -25.15
v 12.89 4 -24.65
v 16.74 -6 -32.3
v 12.89 4 -24.65
v 15.8 4 -33.6
v 14.41 -6 -25.15
v 20.5 -6 -20.72
v 20.5 4 -19.12
v 14.41 -6 -25.15
v 20.5 4 -19.12
v 12.89 4 -24.65
v 20.5 -6 -27.12
v 26.59 -6 -25.15
v 20.5 -6 -20.72
v 20.5 -6 -27.12
v 24.26 -6 -32.3
v 26.59 -6 -25.15
v 20.5 -6 -27.12
v 16.74 -6 -32.3
v 24.26 -6 -32.3
v 20.5 -6 -27.12
v 14.41 -6 -25.15
v 16.74 -6 -32.3
v 20.5 -6 -27.12
v 20.5 -6 -20.72
v 14.41 -6 -25.15
v 20.5 4 -27.12
v 20.5 4 -19.12
v 28.11 4 -24.65
v 20.5 4 -27.12
v 28.11 4 -24.65
v 25.2 4 -33.6
v 20.5 4 -27.12
v 25.2 4 -33.6
v 15.8 4 -33.6
v 20.5 4 -27.12
v 15.8 4 -33.6
v 12.89 4 -24.65
v 20.5 4 -27.12
v 12.89 4 -24.65
v 20.5 4 -19.12
v -33.74 -6 2.21
v -27.65 -6 -2.21
v -26.13 4 -1.72
v -33.74 -6 2.21
v -26.13 4 -1.72
v -33.74 4 3.81
v -27.65 -6 -2.21
v -29.98 -6 -9.37
v -29.04 4 -10.66
v -27.65 -6 -2.21
v -29.04 4 -10.66
v -26.13 4 -1.72
v -29.98 -6 -9.37
v -37.5 -6 -9.37
v -38.44 4 -10.66
v -29.98 -6 -9.37
v -38.44 4 -10.66
v -29.04 4 -10.66
v -37.5 -6 -9.37
v -39.83 -6 -2.21
v -41.35 4 -1.72
v -37.5 -6 -9.37
v -41.35 4 -1.72
v -38.44 4 -10.66
v -39.83 -6 -2.21
v -33.74 -6 2.21
v -33.74 4 3.81
v -39.83 -6 -2.21
v -33.74 4 3.81
v -41.35 4 -1.72
v -33.74 -6 -4.19
v -27.65 -6 -2.21
v -33.74 -6 2.21
v -33.74 -6 -4.19
v -29.98 -6 -9.37
v -27.65 -6 -2.21
v -33.74 -6 -4.19
v -37.5 -6 -9.37
v -29.98 -6 -9.37
v -33.74 -6 -4.19
v -39.83 -6 -2.21
v -37.5 -6 -9.37
v -33.74 -6 -4.19
v -33.74 -6 2.21
v -39.83 -6 -2.21
v -33.74 4 -4.19
v -33.74 4 3.81
v -26.13 4 -1.72
v -33.74 4 -4.19
v -26.13 4 -1.72
v -29.04 4 -10.66
v -33.74 4 -4.19
v -29.04 4 -10.66
v -38.44 4 -10.66
v -33.74 4 -4.19
v -38.44 4 -10.66
v -41.35 4 -1.72
v -33.74 4 -4.19
v -41.35 4 -1.72
v -33.74 4 3.81
vn 0.09 -0.89 0.45
vn 0.09 -0.89 0.45
vn 0.09 -0.89 0.45
vn 0.09 -0.89 0.45
vn 0.09 -0.89 0.45
vn 0.09 -0.89 0.45
vn 0.26 -0.89 0.38
vn 0.26 -0.89 0.38
vn 0.26 -0.89 0.38
vn 0.26 -0.89 0.38
vn 0.26 -0.89 0.38
vn 0.26 -0.89 0.38
vn 0.38 -0.89 0.26
vn 0.38 -0.89 0.26
vn 0.38 -0.89 0.26
vn 0.38 -0.89 0.26
vn 0.38 -0.89 0.26
vn 0.38 -0.89 0.26
vn 0.45 -0.89 0.09
vn 0.45 -0.89 0.09
vn 0.45 -0.89 0.09
vn 0.45 -0.89 0.09
vn 0.45 -0.89 0.09
vn 0.45 -0.89 0.09
vn 0.45 -0.89 -0.09
vn 0.45 -0.89 -0.09
vn 0.45 -0.89 -0.09
vn 0.45 -0.89 -0.09
vn 0.45 -0.89 -0.09
vn 0.45 -0.89 -0.09
vn 0.38 -0.89 -0.26
vn 0.38 -0.89 -0.26
vn 0.38 -0.89 -0.26
vn 0.38 -0.89 -0.26
vn 0.38 -0.89 -0.26
vn 0.38 -0.89 -0.26
vn 0.26 -0.89 -0.38
vn 0.26 -0.89 -0.38
vn 0.26 -0.89 -0.38
vn 0.26 -0.89 -0.38
vn 0.26 -0.89 -0.38
vn 0.26 -0.89 -0.38
vn 0.09 -0.89 -0.45
vn 0.09 -0.89 -0.45
vn 0.09 -0.89 -0.45
vn 0.09 -0.89 -0.45
vn 0.09 -0.89 -0.45
vn 0.09 -0.89 -0.45
vn -0.09 -0.89 -0.45
vn -0.09 -0.89 -0.45
vn -0.09 -0.89 -0.45
vn -0.09 -0.89 -0.45
vn -0.09 -0.89 -0.45
vn -0.09 -0.89 -0.45
vn -0.26 -0.89 -0.38
vn -0.26 -0.89 -0.38
vn -0.26 -0.89 -0.38
vn -0.26 -0.89 -0.38
vn -0.26 -0.89 -0.38
vn -0.26 -0.89 -0.38
vn -0.38 -0.89 -0.26
vn -0.38 -0.89 -0.26
vn -0.38 -0.89 -0.26
vn -0.38 -0.89 -0.26
vn -0.38 -0.89 -0.26
vn -0.38 -0.89 -0.26
vn -0.45 -0.89 -0.09
vn -0.45 -0.89 -0.09
vn -0.45 -0.89 -0.09
vn -0.45 -0.89 -0.09
vn -0.45 -0.89 -0.09
vn -0.45 -0.89 -0.09
vn -0.45 -0.89 0.09
vn -0.45 -0.89 0.09
vn -0.45 -0.89 0.09
vn -0.45 -0.89 0.09
vn -0.45 -0.89 0.09
vn -0.45 -0.89 0.09
vn -0.38 -0.89 0.26
vn -0.38 -0.89 0.26
vn -0.38 -0.89 0.26
vn -0.38 -0.89 0.26
vn -0.38 -0.89 0.26
vn -0.38 -0.89 0.26
vn -0.26 -0.89 0.38
vn -0.26 -0.89 0.38
vn -0.26 -0.89 0.38
vn -0.26 -0.89 0.38
vn -0.26 -0.89 0.38
vn -0.26 -0.89 0.38
vn -0.09 -0.89 0.45
vn -0.09 -0.89 0.45
vn -0.09 -0.89 0.45
vn -0.09 -0.89 0.45
vn -0.09 -0.89 0.45
vn -0.09 -0.89 0.45
vn 0.19 -0.26 0.95
vn 0.19 -0.26 0.95
vn 0.19 -0.26 0.95
vn 0.19 -0.26 0.95
vn 0.19 -0.26 0.95
vn 0.19 -0.26 0.95
vn 0.54 -0.26 0.8
vn 0.54 -0.26 0.8
vn 0.54 -0.26 0.8
vn 0.54 -0.26 0.8
vn 0.54 -0.26 0.8
vn 0.54 -0.26 0.8
vn 0.8 -0.26 0.54
vn 0.8 -0.26 0.54
vn 0.8 -0.26 0.54
vn 0.8 -0.26 0.54
vn 0.8 -0.26 0.54
vn 0.8 -0.26 0.54
vn 0.95 -0.26 0.19
vn 0.95 -0.26 0.19
vn 0.95 -0.26 0.19
vn 0.95 -0.26 0.19
vn 0.95 -0.26 0.19
vn 0.95 -0.26 0.19
vn 0.95 -0.26 -0.19
vn 0.95 -0.26 -0.19
vn 0.95 -0.26 -0.19
vn 0.95 -0.26 -0.19
vn 0.95 -0.26 -0.19
vn 0.95 -0.26 -0.19
vn 0.8 -0.26 -0.54
vn 0.8 -0.26 -0.54
vn 0.8 -0.26 -0.54
vn 0.8 -0.26 -0.54
vn 0.8 -0.26 -0.54
vn 0.8 -0.26 -0.54
vn 0.54 -0.26 -0.8
vn 0.54 -0.26 -0.8
vn 0.54 -0.26 -0.8
vn 0.54 -0.26 -0.8
vn 0.54 -0.26 -0.8
vn 0.54 -0.26 -0.8
vn 0.19 -0.26 -0.95
vn 0.19 -0.26 -0.95
vn 0.19 -0.26 -0.95
vn 0.19 -0.26 -0.95
vn 0.19 -0.26 -0.95
vn 0.19 -0.26 -0.95
vn -0.19 -0.26 -0.95
vn -0.19 -0.26 -0.95
vn -0.19 -0.26 -0.95
vn -0.19 -0.26 -0.95
vn -0.19 -0.26 -0.95
vn -0.19 -0.26 -0.95
vn -0.54 -0.26 -0.8
vn -0.54 -0.26 -0.8
vn -0.54 -0.26 -0.8
vn -0.54 -0.26 -0.8
vn -0.54 -0.26 -0.8
vn -0.54 -0.26 -0.8
vn -0.8 -0.26 -0.54
vn -0.8 -0.26 -0.54
vn -0.8 -0.26 -0.54
vn -0.8 -0.26 -0.54
vn -0.8 -0.26 -0.54
vn -0.8 -0.26 -0.54
vn -0.95 -0.26 -0.19
vn -0.95 -0.26 -0.19
vn -0.95 -0.26 -0.19
vn -0.95 -0.26 -0.19
vn -0.95 -0.26 -0.19
vn -0.95 -0.26 -0.19
vn -0.95 -0.26 0.19
vn -0.95 -0.26 0.19
vn -0.95 -0.26 0.19
vn -0.95 -0.26 0.19
vn -0.95 -0.26 0.19
vn -0.95 -0.26 0.19
vn -0.8 -0.26 0.54
vn -0.8 -0.26 0.54
vn -0.8 -0.26 0.54
vn -0.8 -0.26 0.54
vn -0.8 -0.26 0.54
vn -0.8 -0.26 0.54
vn -0.54 -0.26 0.8
vn -0.54 -0.26 0.8
vn -0.54 -0.26 0.8
vn -0.54 -0.26 0.8
vn -0.54 -0.26 0.8
vn -0.54 -0.26 0.8
vn -0.19 -0.26 0.95
vn -0.19 -0.26 0.95
vn -0.19 -0.26 0.95
vn -0.19 -0.26 0.95
vn -0.19 -0.26 0.95
vn -0.19 -0.26 0.95
vn 0.14 0.71 0.69
vn 0.14 0.71 0.69
vn 0.14 0.71 0.69
vn 0.14 0.71 0.69
vn 0.14 0.71 0.69
vn 0.14 0.71 0.69
vn 0.39 0.71 0.59
vn 0.39 0.71 0.59
vn 0.39 0.71 0.59
vn 0.39 0.71 0.59
vn 0.39 0.71 0.59
vn 0.39 0.71 0.59
vn 0.59 0.71 0.39
vn 0.59 0.71 0.39
vn 0.59 0.71 0.39
vn 0.59 0.71 0.39
vn 0.59 0.71 0.39
vn 0.59 0.71 0.39
vn 0.69 0.71 0.14
vn 0.69 0.71 0.14
vn 0.69 0.71 0.14
vn 0.69 0.71 0.14
vn 0.69 0.71 0.14
vn 0.69 0.71 0.14
vn 0.69 0.71 -0.14
vn 0.69 0.71 -0.14
vn 0.69 0.71 -0.14
vn 0.69 0.71 -0.14
vn 0.69 0.71 -0.14
vn 0.69 0.71 -0.14
vn 0.59 0.71 -0.39
vn 0.59 0.71 -0.39
vn 0.59 0.71 -0.39
vn 0.59 0.71 -0.39
vn 0.59 0.71 -0.39
vn 0.59 0.71 -0.39
vn 0.39 0.71 -0.59
vn 0.39 0.71 -0.59
vn 0.39 0.71 -0.59
vn 0.39 0.71 -0.59
vn 0.39 0.71 -0.59
vn 0.39 0.71 -0.59
vn 0.14 0.71 -0.69
vn 0.14 0.71 -0.69
vn 0.14 0.71 -0.69
vn 0.14 0.71 -0.69
vn 0.14 0.71 -0.69
vn 0.14 0.71 -0.69
vn -0.14 0.71 -0.69
vn -0.14 0.71 -0.69
vn -0.14 0.71 -0.69
vn -0.14 0.71 -0.69
vn -0.14 0.71 -0.69
vn -0.14 0.71 -0.69
vn -0.39 0.71 -0.59
vn -0.39 0.71 -0.59
vn -0.39 0.71 -0.59
vn -0.39 0.71 -0.59
vn -0.39 0.71 -0.59
vn -0.39 0.71 -0.59
vn -0.59 0.71 -0.39
vn -0.59 0.71 -0.39
vn -0.59 0.71 -0.39
vn -0.59 0.71 -0.39
vn -0.59 0.71 -0.39
vn -0.59 0.71 -0.39
vn -0.69 0.71 -0.14
vn -0.69 0.71 -0.14
vn -0.69 0.71 -0.14
vn -0.69 0.71 -0.14
vn -0.69 0.71 -0.14
vn -0.69 0.71 -0.14
vn -0.69 0.71 0.14
vn -0.69 0.71 0.14
vn -0.69 0.71 0.14
vn -0.69 0.71 0.14
vn -0.69 0.71 0.14
vn -0.69 0.71 0.14
vn -0.59 0.71 0.39
vn -0.59 0.71 0.39
vn -0.59 0.71 0.39
vn -0.59 0.71 0.39
vn -0.59 0.71 0.39
vn -0.59 0.71 0.39
vn -0.39 0.71 0.59
vn -0.39 0.71 0.59
vn -0.39 0.71 0.59
vn -0.39 0.71 0.59
vn -0.39 0.71 0.59
vn -0.39 0.71 0.59
vn -0.14 0.71 0.69
vn -0.14 0.71 0.69
vn -0.14 0.71 0.69
vn -0.14 0.71 0.69
vn -0.14 0.71 0.69
vn -0.14 0.71 0.69
vn 0 -1 0
vn 0 -1 0
vn 0 -1 0
vn 0 -1 0
vn 0 -1 0
vn 0 -1 0
vn 0 -1 0
vn 0 -1 0
vn 0 -1 0
vn 0 -1 0
vn 0 -1 0
vn 0 -1 0
vn 0 -1 0
vn 0 -1 0
vn 0 -1 0
vn 0 -1 0
vn 0 -1 0
vn 0 -1 0
vn 0 -1 0
vn 0 -1 0
vn 0 -1 0
vn 0 -1 0
vn 0 -1 0
vn 0 -1 0
vn 0 -1 0
vn 0 -1 0
vn 0 -1 0
vn 0 -1 0
vn 0 -1 0
vn 0 -1 0
vn 0 -1 0
vn 0 -1 0
vn 0 -1 0
vn 0 -1 0
vn 0 -1 0
vn 0 -1 0
vn 0 -1 0
vn 0 -1 0
vn 0 -1 0
vn 0 -1 0
vn 0 -1 0
vn 0 -1 0
vn 0 -1 0
vn 0 -1 0
vn 0 -1 0
vn 0 -1 0
vn 0 -1 0
vn 0 -1 0
vn 0 1 0
vn 0 1 0
vn 0 1 0
vn 0 1 0
vn 0 1 0
vn 0 1 0
vn 0 1 0
vn 0 1 0
vn 0 1 0
vn 0 1 0
vn 0 1 0
vn 0 1 0
vn 0 1 0
vn 0 1 0
vn 0 1 0
vn 0 1 0
vn 0 1 0
vn 0 1 0
vn 0 1 0
vn 0 1 0
vn 0 1 0
vn 0 1 0
vn 0 1 0
vn 0 1 0
vn 0 1 0
vn 0 1 0
vn 0 1 0
vn 0 1 0
vn 0 1 0
vn 0 1 0
vn 0 1 0
vn 0 1 0
vn 0 1 0
vn 0 1 0
vn 0 1 0
vn 0 1 0
vn 0 1 0
vn 0 1 0
vn 0 1 0
vn 0 1 0
vn 0 1 0
vn 0 1 0
vn 0 1 0
vn 0 1 0
vn 0 1 0
vn 0 1 0
vn 0 1 0
vn 0 1 0
vn 0.3 0.62 0.73
vn 0.3 0.62 0.73
vn 0.3 0.62 0.73
vn 0.3 0.62 0.73
vn 0.3 0.62 0.73
vn 0.3 0.62 0.73
vn 0.73 0.62 0.3
vn 0.73 0.62 0.3
vn 0.73 0.62 0.3
vn 0.73 0.62 0.3
vn 0.73 0.62 0.3
vn 0.73 0.62 0.3
vn 0.73 0.62 -0.3
vn 0.73 0.62 -0.3
vn 0.73 0.62 -0.3
vn 0.73 0.62 -0.3
vn 0.73 0.62 -0.3
vn 0.73 0.62 -0.3
vn 0.3 0.62 -0.73
vn 0.3 0.62 -0.73
vn 0.3 0.62 -0.73
vn 0.3 0.62 -0.73
vn 0.3 0.62 -0.73
vn 0.3 0.62 -0.73
vn -0.3 0.62 -0.73
vn -0.3 0.62 -0.73
vn -0.3 0.62 -0.73
vn -0.3 0.62 -0.73
vn -0.3 0.62 -0.73
vn -0.3 0.62 -0.73
vn -0.73 0.62 -0.3
vn -0.73 0.62 -0.3
vn -0.73 0.62 -0.3
vn -0.73 0.62 -0.3
vn -0.73 0.62 -0.3
vn -0.73 0.62 -0.3
vn -0.73 0.62 0.3
vn -0.73 0.62 0.3
vn -0.73 0.62 0.3
vn -0.73 0.62 0.3
vn -0.73 0.62 0.3
vn -0.73 0.62 0.3
vn -0.3 0.62 0.73
vn -0.3 0.62 0.73
vn -0.3 0.62 0.73
vn -0.3 0.62 0.73
vn -0.3 0.62 0.73
vn -0.3 0.62 0.73
vn 0 1 0
vn 0 1 0
vn 0 1 0
vn 0 1 0
vn 0 1 0
vn 0 1 0
vn 0 1 0
vn 0 1 0
vn 0 1 0
vn 0 1 0
vn 0 1 0
vn 0 1 0
vn 0 1 0
vn 0 1 0
vn 0 1 0
vn 0 1 0
vn 0 1 0
vn 0 1 0
vn 0 1 0
vn 0 1 0
vn 0 1 0
vn 0 1 0
vn 0 1 0
vn 0 1 0
vn 0.58 -0.13 0.8
vn 0.58 -0.13 0.8
vn 0.58 -0.13 0.8
vn 0.58 -0.13 0.8
vn 0.58 -0.13 0.8
vn 0.58 -0.13 0.8
vn 0.94 -0.13 -0.31
vn 0.94 -0.13 -0.31
vn 0.94 -0.13 -0.31
vn 0.94 -0.13 -0.31
vn 0.94 -0.13 -0.31
vn 0.94 -0.13 -0.31
vn 0 -0.13 -0.99
vn 0 -0.13 -0.99
vn 0 -0.13 -0.99
vn 0 -0.13 -0.99
vn 0 -0.13 -0.99
vn 0 -0.13 -0.99
vn -0.94 -0.13 -0.31
vn -0.94 -0.13 -0.31
vn -0.94 -0.13 -0.31
vn -0.94 -0.13 -0.31
vn -0.94 -0.13 -0.31
vn -0.94 -0.13 -0.31
vn -0.58 -0.13 0.8
vn -0.58 -0.13 0.8
vn -0.58 -0.13 0.8
vn -0.58 -0.13 0.8
vn -0.58 -0.13 0.8
vn -0.58 -0.13 0.8
vn 0 -1 0
vn 0 -1 0
vn 0 -1 0
vn 0 -1 0
vn 0 -1 0
vn 0 -1 0
vn 0 -1 0
vn 0 -1 0
vn 0 -1 0
vn 0 -1 0
vn 0 -1 0
vn 0 -1 0
vn 0 -1 0
vn 0 -1 0
vn 0 -1 0
vn 0 1 0
vn 0 1 0
vn 0 1 0
vn 0 1 0
vn 0 1 0
vn 0 1 0
vn 0 1 0
vn 0 1 0
vn 0 1 0
vn 0 1 0
vn 0 1 0
vn 0 1 0
vn 0 1 0
vn 0 1 0
vn 0 1 0
vn 0.58 -0.13 0.8
vn 0.58 -0.13 0.8
vn 0.58 -0.13 0.8
vn 0.58 -0.13 0.8
vn 0.58 -0.13 0.8
vn 0.58 -0.13 0.8
vn 0.94 -0.13 -0.31
vn 0.94 -0.13 -0.31
vn 0.94 -0.13 -0.31
vn 0.94 -0.13 -0.31
vn 0.94 -0.13 -0.31
vn 0.94 -0.13 -0.31
vn 0 -0.13 -0.99
vn 0 -0.13 -0.99
vn 0 -0.13 -0.99
vn 0 -0.13 -0.99
vn 0 -0.13 -0.99
vn 0 -0.13 -0.99
vn -0.94 -0.13 -0.31
vn -0.94 -0.13 -0.31
vn -0.94 -0.13 -0.31
vn -0.94 -0.13 -0.31
vn -0.94 -0.13 -0.31
vn -0.94 -0.13 -0.31
vn -0.58 -0.13 0.8
vn -0.58 -0.13 0.8
vn -0.58 -0.13 0.8
vn -0.58 -0.13 0.8
vn -0.58 -0.13 0.8
vn -0.58 -0.13 0.8
vn 0 -1 0
vn 0 -1 0
vn 0 -1 0
vn 0 -1 0
vn 0 -1 0
vn 0 -1 0
vn 0 -1 0
vn 0 -1 0
vn 0 -1 0
vn 0 -1 0
vn 0 -1 0
vn 0 -1 0
vn 0 -1 0
vn 0 -1 0
vn 0 -1 0
vn 0 1 0
vn 0 1 0
vn 0 1 0
vn 0 1 0
vn 0 1 0
vn 0 1 0
vn 0 1 0
vn 0 1 0
vn 0 1 0
vn 0 1 0
vn 0 1 0
vn 0 1 0
vn 0 1 0
vn 0 1 0
vn 0 1 0
vn 0.58 -0.13 0.8
vn 0.58 -0.13 0.8
vn 0.58 -0.13 0.8
vn 0.58 -0.13 0.8
vn 0.58 -0.13 0.8
vn 0.58 -0.13 0.8
vn 0.94 -0.13 -0.31
vn 0.94 -0.13 -0.31
vn 0.94 -0.13 -0.31
vn 0.94 -0.13 -0.31
vn 0.94 -0.13 -0.31
vn 0.94 -0.13 -0.31
vn 0 -0.13 -0.99
vn 0 -0.13 -0.99
vn 0 -0.13 -0.99
vn 0 -0.13 -0.99
vn 0 -0.13 -0.99
vn 0 -0.13 -0.99
vn -0.94 -0.13 -0.31
vn -0.94 -0.13 -0.31
vn -0.94 -0.13 -0.31
vn -0.94 -0.13 -0.31
vn -0.94 -0.13 -0.31
vn -0.94 -0.13 -0.31
vn -0.58 -0.13 0.8
vn -0.58 -0.13 0.8
vn -0.58 -0.13 0.8
vn -0.58 -0.13 0.8
vn -0.58 -0.13 0.8
vn -0.58 -0.13 0.8
vn 0 -1 0
vn 0 -1 0
vn 0 -1 0
vn 0 -1 0
vn 0 -1 0
vn 0 -1 0
vn 0 -1 0
vn 0 -1 0
vn 0 -1 0
vn 0 -1 0
vn 0 -1 0
vn 0 -1 0
vn 0 -1 0
vn 0 -1 0
vn 0 -1 0
vn 0 1 0
vn 0 1 0
vn 0 1 0
vn 0 1 0
vn 0 1 0
vn 0 1 0
vn 0 1 0
vn 0 1 0
vn 0 1 0
vn 0 1 0
vn 0 1 0
vn 0 1 0
vn 0 1 0
vn 0 1 0
vn 0 1 0
vt 0 0
usemtl OC_Hull
s off
f 1/1/1 2/1/2 3/1/3
f 4/1/4 5/1/5 6/1/6
f 7/1/7 8/1/8 9/1/9
f 10/1/10 11/1/11 12/1/12
f 13/1/13 14/1/14 15/1/15
f 16/1/16 17/1/17 18/1/18
f 19/1/19 20/1/20 21/1/21
f 22/1/22 23/1/23 24/1/24
f 25/1/25 26/1/26 27/1/27
f 28/1/28 29/1/29 30/1/30
f 31/1/31 32/1/32 33/1/33
f 34/1/34 35/1/35 36/1/36
f 37/1/37 38/1/38 39/1/39
f 40/1/40 41/1/41 42/1/42
f 43/1/43 44/1/44 45/1/45
f 46/1/46 47/1/47 48/1/48
f 49/1/49 50/1/50 51/1/51
f 52/1/52 53/1/53 54/1/54
f 55/1/55 56/1/56 57/1/57
f 58/1/58 59/1/59 60/1/60
f 61/1/61 62/1/62 63/1/63
f 64/1/64 65/1/65 66/1/66
f 67/1/67 68/1/68 69/1/69
f 70/1/70 71/1/71 72/1/72
f 73/1/73 74/1/74 75/1/75
f 76/1/76 77/1/77 78/1/78
f 79/1/79 80/1/80 81/1/81
f 82/1/82 83/1/83 84/1/84
f 85/1/85 86/1/86 87/1/87
f 88/1/88 89/1/89 90/1/90
f 91/1/91 92/1/92 93/1/93
f 94/1/94 95/1/95 96/1/96
f 97/1/97 98/1/98 99/1/99
f 100/1/100 101/1/101 102/1/102
f 103/1/103 104/1/104 105/1/105
f 106/1/106 107/1/107 108/1/108
f 109/1/109 110/1/110 111/1/111
f 112/1/112 113/1/113 114/1/114
f 115/1/115 116/1/116 117/1/117
f 118/1/118 119/1/119 120/1/120
f 121/1/121 122/1/122 123/1/123
f 124/1/124 125/1/125 126/1/126
f 127/1/127 128/1/128 129/1/129
f 130/1/130 131/1/131 132/1/132
f 133/1/133 134/1/134 135/1/135
f 136/1/136 137/1/137 138/1/138
f 139/1/139 140/1/140 141/1/141
f 142/1/142 143/1/143 144/1/144
f 145/1/145 146/1/146 147/1/147
f 148/1/148 149/1/149 150/1/150
f 151/1/151 152/1/152 153/1/153
f 154/1/154 155/1/155 156/1/156
f 157/1/157 158/1/158 159/1/159
f 160/1/160 161/1/161 162/1/162
f 163/1/163 164/1/164 165/1/165
f 166/1/166 167/1/167 168/1/168
f 169/1/169 170/1/170 171/1/171
f 172/1/172 173/1/173 174/1/174
f 175/1/175 176/1/176 177/1/177
f 178/1/178 179/1/179 180/1/180
f 181/1/181 182/1/182 183/1/183
f 184/1/184 185/1/185 186/1/186
f 187/1/187 188/1/188 189/1/189
f 190/1/190 191/1/191 192/1/192
f 193/1/193 194/1/194 195/1/195
f 196/1/196 197/1/197 198/1/198
f 199/1/199 200/1/200 201/1/201
f 202/1/202 203/1/203 204/1/204
f 205/1/205 206/1/206 207/1/207
f 208/1/208 209/1/209 210/1/210
f 211/1/211 212/1/212 213/1/213
f 214/1/214 215/1/215 216/1/216
f 217/1/217 218/1/218 219/1/219
f 220/1/220 221/1/221 222/1/222
f 223/1/223 224/1/224 225/1/225
f 226/1/226 227/1/227 228/1/228
f 229/1/229 230/1/230 231/1/231
f 232/1/232 233/1/233 234/1/234
f 235/1/235 236/1/236 237/1/237
f 238/1/238 239/1/239 240/1/240
f 241/1/241 242/1/242 243/1/243
f 244/1/244 245/1/245 246/1/246
f 247/1/247 248/1/248 249/1/249
f 250/1/250 251/1/251 252/1/252
f 253/1/253 254/1/254 255/1/255
f 256/1/256 257/1/257 258/1/258
f 259/1/259 260/1/260 261/1/261
f 262/1/262 263/1/263 264/1/264
f 265/1/265 266/1/266 267/1/267
f 268/1/268 269/1/269 270/1/270
f 271/1/271 272/1/272 273/1/273
f 274/1/274 275/1/275 276/1/276
f 277/1/277 278/1/278 279/1/279
f 280/1/280 281/1/281 282/1/282
f 283/1/283 284/1/284 285/1/285
f 286/1/286 287/1/287 288/1/288
f 289/1/289 290/1/290 291/1/291
f 292/1/292 293/1/293 294/1/294
f 295/1/295 296/1/296 297/1/297
f 298/1/298 299/1/299 300/1/300
f 301/1/301 302/1/302 303/1/303
f 304/1/304 305/1/305 306/1/306
f 307/1/307 308/1/308 309/1/309
f 310/1/310 311/1/311 312/1/312
f 313/1/313 314/1/314 315/1/315
f 316/1/316 317/1/317 318/1/318
f 319/1/319 320/1/320 321/1/321
f 322/1/322 323/1/323 324/1/324
f 325/1/325 326/1/326 327/1/327
f 328/1/328 329/1/329 330/1/330
f 331/1/331 332/1/332 333/1/333
f 334/1/334 335/1/335 336/1/336
f 337/1/337 338/1/338 339/1/339
f 340/1/340 341/1/341 342/1/342
f 343/1/343 344/1/344 345/1/345
f 346/1/346 347/1/347 348/1/348
f 349/1/349 350/1/350 351/1/351
f 352/1/352 353/1/353 354/1/354
f 355/1/355 356/1/356 357/1/357
f 358/1/358 359/1/359 360/1/360
f 361/1/361 362/1/362 363/1/363
f 364/1/364 365/1/365 366/1/366
f 367/1/367 368/1/368 369/1/369
f 370/1/370 371/1/371 372/1/372
f 373/1/373 374/1/374 375/1/375
f 376/1/376 377/1/377 378/1/378
f 379/1/379 380/1/380 381/1/381
f 382/1/382 383/1/383 384/1/384
f 385/1/385 386/1/386 387/1/387
f 388/1/388 389/1/389 390/1/390
f 391/1/391 392/1/392 393/1/393
f 394/1/394 395/1/395 396/1/396
f 397/1/397 398/1/398 399/1/399
f 400/1/400 401/1/401 402/1/402
f 403/1/403 404/1/404 405/1/405
f 406/1/406 407/1/407 408/1/408
f 409/1/409 410/1/410 411/1/411
f 412/1/412 413/1/413 414/1/414
f 415/1/415 416/1/416 417/1/417
f 418/1/418 419/1/419 420/1/420
f 421/1/421 422/1/422 423/1/423
f 424/1/424 425/1/425 426/1/426
f 427/1/427 428/1/428 429/1/429
f 430/1/430 431/1/431 432/1/432
f 433/1/433 434/1/434 435/1/435
f 436/1/436 437/1/437 438/1/438
f 439/1/439 440/1/440 441/1/441
f 442/1/442 443/1/443 444/1/444
f 445/1/445 446/1/446 447/1/447
f 448/1/448 449/1/449 450/1/450
f 451/1/451 452/1/452 453/1/453
f 454/1/454 455/1/455 456/1/456
f 457/1/457 458/1/458 459/1/459
f 460/1/460 461/1/461 462/1/462
f 463/1/463 464/1/464 465/1/465
f 466/1/466 467/1/467 468/1/468
f 469/1/469 470/1/470 471/1/471
f 472/1/472 473/1/473 474/1/474
f 475/1/475 476/1/476 477/1/477
f 478/1/478 479/1/479 480/1/480
f 481/1/481 482/1/482 483/1/483
f 484/1/484 485/1/485 486/1/486
f 487/1/487 488/1/488 489/1/489
f 490/1/490 491/1/491 492/1/492
f 493/1/493 494/1/494 495/1/495
f 496/1/496 497/1/497 498/1/498
f 499/1/499 500/1/500 501/1/501
f 502/1/502 503/1/503 504/1/504
f 505/1/505 506/1/506 507/1/507
f 508/1/508 509/1/509 510/1/510
f 511/1/511 512/1/512 513/1/513
f 514/1/514 515/1/515 516/1/516
f 517/1/517 518/1/518 519/1/519
f 520/1/520 521/1/521 522/1/522
f 523/1/523 524/1/524 525/1/525
f 526/1/526 527/1/527 528/1/528
f 529/1/529 530/1/530 531/1/531
f 532/1/532 533/1/533 534/1/534
f 535/1/535 536/1/536 537/1/537
f 538/1/538 539/1/539 540/1/540
f 541/1/541 542/1/542 543/1/543
f 544/1/544 545/1/545 546/1/546
f 547/1/547 548/1/548 549/1/549
f 550/1/550 551/1/551 552/1/552
f 553/1/553 554/1/554 555/1/555
f 556/1/556 557/1/557 558/1/558
f 559/1/559 560/1/560 561/1/561
f 562/1/562 563/1/563 564/1/564
f 565/1/565 566/1/566 567/1/567
f 568/1/568 569/1/569 570/1/570
f 571/1/571 572/1/572 573/1/573
f 574/1/574 575/1/575 576/1/576
f 577/1/577 578/1/578 579/1/579
f 580/1/580 581/1/581 582/1/582
f 583/1/583 584/1/584 585/1/585
f 586/1/586 587/1/587 588/1/588
f 589/1/589 590/1/590 591/1/591
f 592/1/592 593/1/593 594/1/594
f 595/1/595 596/1/596 597/1/597
f 598/1/598 599/1/599 600/1/600
f 601/1/601 602/1/602 603/1/603
f 604/1/604 605/1/605 606/1/606
f 607/1/607 608/1/608 609/1/609
f 610/1/610 611/1/611 612/1/612
f 613/1/613 614/1/614 615/1/615
f 616/1/616 617/1/617 618/1/618
f 619/1/619 620/1/620 621/1/621
f 622/1/622 623/1/623 624/1/624
f 625/1/625 626/1/626 627/1/627
f 628/1/628 629/1/629 630/1/630
f 631/1/631 632/1/632 633/1/633
f 634/1/634 635/1/635 636/1/636
