# Outpost Commander - Scout
# small hull — blunt wide wedge, eight-point angular plan at 1.11:1. Five-section chined hull, two recessed drive nacelles, dorsal sensor blister. The Miner is a Scout with a mining laser in its one slot.
# Generated from meshes.json (outpost-commander-mesh-handoff/2) - do not hand-edit.
# LEFT-HANDED, Y up, +Z forward. Plane is Y=0. Mesh origin = simulated entity position.
# World units 1:1 - the authored extent IS the object's size; never scaled at draw time.
# Face-split vertices, baked per-face normals. No welding, no smoothing groups.
# ONE DEGENERATE TEXTURE COORDINATE, and it is not a UV layout. meshconvert always computes
# a tangent frame when it writes CMO -- the format's vertex carries one -- and it refuses to
# do so without texture coordinates. There is no flag to suppress it. So every face corner
# references this single vt 0 0. The CMO's texcoord field comes back zero, which is what the
# brief asks for; nothing reads it and nothing should start.
# extents  min -27 -8 -30  max 27 10 30  size 54 18 60
# 158 triangles, 474 vertices
# Vertex colour selector is NOT in this file. See Scout.vcol - one line per v record, same order.
mtllib OC_Hull.mtl
o Scout
v 2.6 -8 6.8
v 7.02 -8 0.04
v 17.82 -4 1.64
v 2.6 -8 6.8
v 17.82 -4 1.64
v 6.6 -4 18.8
v 7.02 -8 0.04
v 5.72 -8 -5.68
v 14.52 -4 -12.88
v 7.02 -8 0.04
v 14.52 -4 -12.88
v 17.82 -4 1.64
v 5.72 -8 -5.68
v 2.08 -8 -8.8
v 5.28 -4 -20.8
v 5.72 -8 -5.68
v 5.28 -4 -20.8
v 14.52 -4 -12.88
v 2.08 -8 -8.8
v -2.08 -8 -8.8
v -5.28 -4 -20.8
v 2.08 -8 -8.8
v -5.28 -4 -20.8
v 5.28 -4 -20.8
v -2.08 -8 -8.8
v -5.72 -8 -5.68
v -14.52 -4 -12.88
v -2.08 -8 -8.8
v -14.52 -4 -12.88
v -5.28 -4 -20.8
v -5.72 -8 -5.68
v -7.02 -8 0.04
v -17.82 -4 1.64
v -5.72 -8 -5.68
v -17.82 -4 1.64
v -14.52 -4 -12.88
v -7.02 -8 0.04
v -2.6 -8 6.8
v -6.6 -4 18.8
v -7.02 -8 0.04
v -6.6 -4 18.8
v -17.82 -4 1.64
v -2.6 -8 6.8
v 2.6 -8 6.8
v 6.6 -4 18.8
v -2.6 -8 6.8
v 6.6 -4 18.8
v -6.6 -4 18.8
v 6.6 -4 18.8
v 17.82 -4 1.64
v 27 0 4
v 6.6 -4 18.8
v 27 0 4
v 10 0 30
v 17.82 -4 1.64
v 14.52 -4 -12.88
v 22 0 -18
v 17.82 -4 1.64
v 22 0 -18
v 27 0 4
v 14.52 -4 -12.88
v 5.28 -4 -20.8
v 8 0 -30
v 14.52 -4 -12.88
v 8 0 -30
v 22 0 -18
v 5.28 -4 -20.8
v -5.28 -4 -20.8
v -8 0 -30
v 5.28 -4 -20.8
v -8 0 -30
v 8 0 -30
v -5.28 -4 -20.8
v -14.52 -4 -12.88
v -22 0 -18
v -5.28 -4 -20.8
v -22 0 -18
v -8 0 -30
v -14.52 -4 -12.88
v -17.82 -4 1.64
v -27 0 4
v -14.52 -4 -12.88
v -27 0 4
v -22 0 -18
v -17.82 -4 1.64
v -6.6 -4 18.8
v -10 0 30
v -17.82 -4 1.64
v -10 0 30
v -27 0 4
v -6.6 -4 18.8
v 6.6 -4 18.8
v 10 0 30
v -6.6 -4 18.8
v 10 0 30
v -10 0 30
v 10 0 30
v 27 0 4
v 18.9 4 -1.2
v 10 0 30
v 18.9 4 -1.2
v 7 4 17
v 27 0 4
v 22 0 -18
v 15.4 4 -16.6
v 27 0 4
v 15.4 4 -16.6
v 18.9 4 -1.2
v 22 0 -18
v 8 0 -30
v 5.6 4 -25
v 22 0 -18
v 5.6 4 -25
v 15.4 4 -16.6
v 8 0 -30
v -8 0 -30
v -5.6 4 -25
v 8 0 -30
v -5.6 4 -25
v 5.6 4 -25
v -8 0 -30
v -22 0 -18
v -15.4 4 -16.6
v -8 0 -30
v -15.4 4 -16.6
v -5.6 4 -25
v -22 0 -18
v -27 0 4
v -18.9 4 -1.2
v -22 0 -18
v -18.9 4 -1.2
v -15.4 4 -16.6
v -27 0 4
v -10 0 30
v -7 4 17
v -27 0 4
v -7 4 17
v -18.9 4 -1.2
v -10 0 30
v 10 0 30
v 7 4 17
v -10 0 30
v 7 4 17
v -7 4 17
v 7 4 17
v 18.9 4 -1.2
v 9.18 8 -7.64
v 7 4 17
v 9.18 8 -7.64
v 3.4 8 1.2
v 18.9 4 -1.2
v 15.4 4 -16.6
v 7.48 8 -15.12
v 18.9 4 -1.2
v 7.48 8 -15.12
v 9.18 8 -7.64
v 15.4 4 -16.6
v 5.6 4 -25
v 2.72 8 -19.2
v 15.4 4 -16.6
v 2.72 8 -19.2
v 7.48 8 -15.12
v 5.6 4 -25
v -5.6 4 -25
v -2.72 8 -19.2
v 5.6 4 -25
v -2.72 8 -19.2
v 2.72 8 -19.2
v -5.6 4 -25
v -15.4 4 -16.6
v -7.48 8 -15.12
v -5.6 4 -25
v -7.48 8 -15.12
v -2.72 8 -19.2
v -15.4 4 -16.6
v -18.9 4 -1.2
v -9.18 8 -7.64
v -15.4 4 -16.6
v -9.18 8 -7.64
v -7.48 8 -15.12
v -18.9 4 -1.2
v -7 4 17
v -3.4 8 1.2
v -18.9 4 -1.2
v -3.4 8 1.2
v -9.18 8 -7.64
v -7 4 17
v 7 4 17
v 3.4 8 1.2
v -7 4 17
v 3.4 8 1.2
v -3.4 8 1.2
v 0 -8 -1.91
v 7.02 -8 0.04
v 2.6 -8 6.8
v 0 -8 -1.91
v 5.72 -8 -5.68
v 7.02 -8 0.04
v 0 -8 -1.91
v 2.08 -8 -8.8
v 5.72 -8 -5.68
v 0 -8 -1.91
v -2.08 -8 -8.8
v 2.08 -8 -8.8
v 0 -8 -1.91
v -5.72 -8 -5.68
v -2.08 -8 -8.8
v 0 -8 -1.91
v -7.02 -8 0.04
v -5.72 -8 -5.68
v 0 -8 -1.91
v -2.6 -8 6.8
v -7.02 -8 0.04
v 0 -8 -1.91
v 2.6 -8 6.8
v -2.6 -8 6.8
v 0 8 -10.19
v 3.4 8 1.2
v 9.18 8 -7.64
v 0 8 -10.19
v 9.18 8 -7.64
v 7.48 8 -15.12
v 0 8 -10.19
v 7.48 8 -15.12
v 2.72 8 -19.2
v 0 8 -10.19
v 2.72 8 -19.2
v -2.72 8 -19.2
v 0 8 -10.19
v -2.72 8 -19.2
v -7.48 8 -15.12
v 0 8 -10.19
v -7.48 8 -15.12
v -9.18 8 -7.64
v 0 8 -10.19
v -9.18 8 -7.64
v -3.4 8 1.2
v 0 8 -10.19
v -3.4 8 1.2
v 3.4 8 1.2
v -14 -5 -20.6
v -9.82 -5 -23.64
v -8.77 0 -21.3
v -14 -5 -20.6
v -8.77 0 -21.3
v -14 0 -17.5
v -9.82 -5 -23.64
v -11.41 -5 -28.56
v -10.77 0 -27.45
v -9.82 -5 -23.64
v -10.77 0 -27.45
v -8.77 0 -21.3
v -11.41 -5 -28.56
v -16.59 -5 -28.56
v -17.23 0 -27.45
v -11.41 -5 -28.56
v -17.23 0 -27.45
v -10.77 0 -27.45
v -16.59 -5 -28.56
v -18.18 -5 -23.64
v -19.23 0 -21.3
v -16.59 -5 -28.56
v -19.23 0 -21.3
v -17.23 0 -27.45
v -18.18 -5 -23.64
v -14 -5 -20.6
v -14 0 -17.5
v -18.18 -5 -23.64
v -14 0 -17.5
v -19.23 0 -21.3
v -14 0 -17.5
v -8.77 0 -21.3
v -9.82 5 -23.64
v -14 0 -17.5
v -9.82 5 -23.64
v -14 5 -20.6
v -8.77 0 -21.3
v -10.77 0 -27.45
v -11.41 5 -28.56
v -8.77 0 -21.3
v -11.41 5 -28.56
v -9.82 5 -23.64
v -10.77 0 -27.45
v -17.23 0 -27.45
v -16.59 5 -28.56
v -10.77 0 -27.45
v -16.59 5 -28.56
v -11.41 5 -28.56
v -17.23 0 -27.45
v -19.23 0 -21.3
v -18.18 5 -23.64
v -17.23 0 -27.45
v -18.18 5 -23.64
v -16.59 5 -28.56
v -19.23 0 -21.3
v -14 0 -17.5
v -14 5 -20.6
v -19.23 0 -21.3
v -14 5 -20.6
v -18.18 5 -23.64
v -14 -5 -25
v -9.82 -5 -23.64
v -14 -5 -20.6
v -14 -5 -25
v -11.41 -5 -28.56
v -9.82 -5 -23.64
v -14 -5 -25
v -16.59 -5 -28.56
v -11.41 -5 -28.56
v -14 -5 -25
v -18.18 -5 -23.64
v -16.59 -5 -28.56
v -14 -5 -25
v -14 -5 -20.6
v -18.18 -5 -23.64
v -14 5 -25
v -14 5 -20.6
v -9.82 5 -23.64
v -14 5 -25
v -9.82 5 -23.64
v -11.41 5 -28.56
v -14 5 -25
v -11.41 5 -28.56
v -16.59 5 -28.56
v -14 5 -25
v -16.59 5 -28.56
v -18.18 5 -23.64
v -14 5 -25
v -18.18 5 -23.64
v -14 5 -20.6
v 14 -5 -20.6
v 18.18 -5 -23.64
v 19.23 0 -21.3
v 14 -5 -20.6
v 19.23 0 -21.3
v 14 0 -17.5
v 18.18 -5 -23.64
v 16.59 -5 -28.56
v 17.23 0 -27.45
v 18.18 -5 -23.64
v 17.23 0 -27.45
v 19.23 0 -21.3
v 16.59 -5 -28.56
v 11.41 -5 -28.56
v 10.77 0 -27.45
v 16.59 -5 -28.56
v 10.77 0 -27.45
v 17.23 0 -27.45
v 11.41 -5 -28.56
v 9.82 -5 -23.64
v 8.77 0 -21.3
v 11.41 -5 -28.56
v 8.77 0 -21.3
v 10.77 0 -27.45
v 9.82 -5 -23.64
v 14 -5 -20.6
v 14 0 -17.5
v 9.82 -5 -23.64
v 14 0 -17.5
v 8.77 0 -21.3
v 14 0 -17.5
v 19.23 0 -21.3
v 18.18 5 -23.64
v 14 0 -17.5
v 18.18 5 -23.64
v 14 5 -20.6
v 19.23 0 -21.3
v 17.23 0 -27.45
v 16.59 5 -28.56
v 19.23 0 -21.3
v 16.59 5 -28.56
v 18.18 5 -23.64
v 17.23 0 -27.45
v 10.77 0 -27.45
v 11.41 5 -28.56
v 17.23 0 -27.45
v 11.41 5 -28.56
v 16.59 5 -28.56
v 10.77 0 -27.45
v 8.77 0 -21.3
v 9.82 5 -23.64
v 10.77 0 -27.45
v 9.82 5 -23.64
v 11.41 5 -28.56
v 8.77 0 -21.3
v 14 0 -17.5
v 14 5 -20.6
v 8.77 0 -21.3
v 14 5 -20.6
v 9.82 5 -23.64
v 14 -5 -25
v 18.18 -5 -23.64
v 14 -5 -20.6
v 14 -5 -25
v 16.59 -5 -28.56
v 18.18 -5 -23.64
v 14 -5 -25
v 11.41 -5 -28.56
v 16.59 -5 -28.56
v 14 -5 -25
v 9.82 -5 -23.64
v 11.41 -5 -28.56
v 14 -5 -25
v 14 -5 -20.6
v 9.82 -5 -23.64
v 14 5 -25
v 14 5 -20.6
v 18.18 5 -23.64
v 14 5 -25
v 18.18 5 -23.64
v 16.59 5 -28.56
v 14 5 -25
v 16.59 5 -28.56
v 11.41 5 -28.56
v 14 5 -25
v 11.41 5 -28.56
v 9.82 5 -23.64
v 14 5 -25
v 9.82 5 -23.64
v 14 5 -20.6
v 0 6 8
v 4.33 6 5.5
v 2.17 10 4.25
v 0 6 8
v 2.17 10 4.25
v 0 10 5.5
v 4.33 6 5.5
v 4.33 6 0.5
v 2.17 10 1.75
v 4.33 6 5.5
v 2.17 10 1.75
v 2.17 10 4.25
v 4.33 6 0.5
v 0 6 -2
v 0 10 0.5
v 4.33 6 0.5
v 0 10 0.5
v 2.17 10 1.75
v 0 6 -2
v -4.33 6 0.5
v -2.17 10 1.75
v 0 6 -2
v -2.17 10 1.75
v 0 10 0.5
v -4.33 6 0.5
v -4.33 6 5.5
v -2.17 10 4.25
v -4.33 6 0.5
v -2.17 10 4.25
v -2.17 10 1.75
v -4.33 6 5.5
v 0 6 8
v 0 10 5.5
v -4.33 6 5.5
v 0 10 5.5
v -2.17 10 4.25
v 0 10 3
v 0 10 5.5
v 2.17 10 4.25
v 0 10 3
v 2.17 10 4.25
v 2.17 10 1.75
v 0 10 3
v 2.17 10 1.75
v 0 10 0.5
v 0 10 3
v 0 10 0.5
v -2.17 10 1.75
v 0 10 3
v -2.17 10 1.75
v -2.17 10 4.25
v 0 10 3
v -2.17 10 4.25
v 0 10 5.5
vn 0.31 -0.93 0.2
vn 0.31 -0.93 0.2
vn 0.31 -0.93 0.2
vn 0.31 -0.93 0.2
vn 0.31 -0.93 0.2
vn 0.31 -0.93 0.2
vn 0.36 -0.93 -0.08
vn 0.36 -0.93 -0.08
vn 0.36 -0.93 -0.08
vn 0.36 -0.93 -0.08
vn 0.36 -0.93 -0.08
vn 0.36 -0.93 -0.08
vn 0.22 -0.94 -0.26
vn 0.22 -0.94 -0.26
vn 0.22 -0.94 -0.26
vn 0.22 -0.94 -0.26
vn 0.22 -0.94 -0.26
vn 0.22 -0.94 -0.26
vn 0 -0.95 -0.32
vn 0 -0.95 -0.32
vn 0 -0.95 -0.32
vn 0 -0.95 -0.32
vn 0 -0.95 -0.32
vn 0 -0.95 -0.32
vn -0.22 -0.94 -0.26
vn -0.22 -0.94 -0.26
vn -0.22 -0.94 -0.26
vn -0.22 -0.94 -0.26
vn -0.22 -0.94 -0.26
vn -0.22 -0.94 -0.26
vn -0.36 -0.93 -0.08
vn -0.36 -0.93 -0.08
vn -0.36 -0.93 -0.08
vn -0.36 -0.93 -0.08
vn -0.36 -0.93 -0.08
vn -0.36 -0.93 -0.08
vn -0.31 -0.93 0.2
vn -0.31 -0.93 0.2
vn -0.31 -0.93 0.2
vn -0.31 -0.93 0.2
vn -0.31 -0.93 0.2
vn -0.31 -0.93 0.2
vn 0 -0.95 0.32
vn 0 -0.95 0.32
vn 0 -0.95 0.32
vn 0 -0.95 0.32
vn 0 -0.95 0.32
vn 0 -0.95 0.32
vn 0.34 -0.91 0.22
vn 0.34 -0.91 0.22
vn 0.34 -0.91 0.22
vn 0.34 -0.91 0.22
vn 0.34 -0.91 0.22
vn 0.34 -0.91 0.22
vn 0.42 -0.9 -0.1
vn 0.42 -0.9 -0.1
vn 0.42 -0.9 -0.1
vn 0.42 -0.9 -0.1
vn 0.42 -0.9 -0.1
vn 0.42 -0.9 -0.1
vn 0.27 -0.91 -0.32
vn 0.27 -0.91 -0.32
vn 0.27 -0.91 -0.32
vn 0.27 -0.91 -0.32
vn 0.27 -0.91 -0.32
vn 0.27 -0.91 -0.32
vn 0 -0.92 -0.4
vn 0 -0.92 -0.4
vn 0 -0.92 -0.4
vn 0 -0.92 -0.4
vn 0 -0.92 -0.4
vn 0 -0.92 -0.4
vn -0.27 -0.91 -0.32
vn -0.27 -0.91 -0.32
vn -0.27 -0.91 -0.32
vn -0.27 -0.91 -0.32
vn -0.27 -0.91 -0.32
vn -0.27 -0.91 -0.32
vn -0.42 -0.9 -0.1
vn -0.42 -0.9 -0.1
vn -0.42 -0.9 -0.1
vn -0.42 -0.9 -0.1
vn -0.42 -0.9 -0.1
vn -0.42 -0.9 -0.1
vn -0.34 -0.91 0.22
vn -0.34 -0.91 0.22
vn -0.34 -0.91 0.22
vn -0.34 -0.91 0.22
vn -0.34 -0.91 0.22
vn -0.34 -0.91 0.22
vn 0 -0.94 0.34
vn 0 -0.94 0.34
vn 0 -0.94 0.34
vn 0 -0.94 0.34
vn 0 -0.94 0.34
vn 0 -0.94 0.34
vn 0.32 0.92 0.21
vn 0.32 0.92 0.21
vn 0.32 0.92 0.21
vn 0.32 0.92 0.21
vn 0.32 0.92 0.21
vn 0.32 0.92 0.21
vn 0.5 0.86 -0.11
vn 0.5 0.86 -0.11
vn 0.5 0.86 -0.11
vn 0.5 0.86 -0.11
vn 0.5 0.86 -0.11
vn 0.5 0.86 -0.11
vn 0.39 0.8 -0.45
vn 0.39 0.8 -0.45
vn 0.39 0.8 -0.45
vn 0.39 0.8 -0.45
vn 0.39 0.8 -0.45
vn 0.39 0.8 -0.45
vn 0 0.78 -0.62
vn 0 0.78 -0.62
vn 0 0.78 -0.62
vn 0 0.78 -0.62
vn 0 0.78 -0.62
vn 0 0.78 -0.62
vn -0.39 0.8 -0.45
vn -0.39 0.8 -0.45
vn -0.39 0.8 -0.45
vn -0.39 0.8 -0.45
vn -0.39 0.8 -0.45
vn -0.39 0.8 -0.45
vn -0.5 0.86 -0.11
vn -0.5 0.86 -0.11
vn -0.5 0.86 -0.11
vn -0.5 0.86 -0.11
vn -0.5 0.86 -0.11
vn -0.5 0.86 -0.11
vn -0.32 0.92 0.21
vn -0.32 0.92 0.21
vn -0.32 0.92 0.21
vn -0.32 0.92 0.21
vn -0.32 0.92 0.21
vn -0.32 0.92 0.21
vn 0 0.96 0.29
vn 0 0.96 0.29
vn 0 0.96 0.29
vn 0 0.96 0.29
vn 0 0.96 0.29
vn 0 0.96 0.29
vn 0.27 0.95 0.18
vn 0.27 0.95 0.18
vn 0.27 0.95 0.18
vn 0.27 0.95 0.18
vn 0.27 0.95 0.18
vn 0.27 0.95 0.18
vn 0.43 0.9 -0.1
vn 0.43 0.9 -0.1
vn 0.43 0.9 -0.1
vn 0.43 0.9 -0.1
vn 0.43 0.9 -0.1
vn 0.43 0.9 -0.1
vn 0.35 0.84 -0.41
vn 0.35 0.84 -0.41
vn 0.35 0.84 -0.41
vn 0.35 0.84 -0.41
vn 0.35 0.84 -0.41
vn 0.35 0.84 -0.41
vn 0 0.82 -0.57
vn 0 0.82 -0.57
vn 0 0.82 -0.57
vn 0 0.82 -0.57
vn 0 0.82 -0.57
vn 0 0.82 -0.57
vn -0.35 0.84 -0.41
vn -0.35 0.84 -0.41
vn -0.35 0.84 -0.41
vn -0.35 0.84 -0.41
vn -0.35 0.84 -0.41
vn -0.35 0.84 -0.41
vn -0.43 0.9 -0.1
vn -0.43 0.9 -0.1
vn -0.43 0.9 -0.1
vn -0.43 0.9 -0.1
vn -0.43 0.9 -0.1
vn -0.43 0.9 -0.1
vn -0.27 0.95 0.18
vn -0.27 0.95 0.18
vn -0.27 0.95 0.18
vn -0.27 0.95 0.18
vn -0.27 0.95 0.18
vn -0.27 0.95 0.18
vn 0 0.97 0.25
vn 0 0.97 0.25
vn 0 0.97 0.25
vn 0 0.97 0.25
vn 0 0.97 0.25
vn 0 0.97 0.25
vn 0 -1 0
vn 0 -1 0
vn 0 -1 0
vn 0 -1 0
vn 0 -1 0
vn 0 -1 0
vn 0 -1 0
vn 0 -1 0
vn 0 -1 0
vn 0 -1 0
vn 0 -1 0
vn 0 -1 0
vn 0 -1 0
vn 0 -1 0
vn 0 -1 0
vn 0 -1 0
vn 0 -1 0
vn 0 -1 0
vn 0 -1 0
vn 0 -1 0
vn 0 -1 0
vn 0 -1 0
vn 0 -1 0
vn 0 -1 0
vn 0 1 0
vn 0 1 0
vn 0 1 0
vn 0 1 0
vn 0 1 0
vn 0 1 0
vn 0 1 0
vn 0 1 0
vn 0 1 0
vn 0 1 0
vn 0 1 0
vn 0 1 0
vn 0 1 0
vn 0 1 0
vn 0 1 0
vn 0 1 0
vn 0 1 0
vn 0 1 0
vn 0 1 0
vn 0 1 0
vn 0 1 0
vn 0 1 0
vn 0 1 0
vn 0 1 0
vn 0.53 -0.45 0.72
vn 0.53 -0.45 0.72
vn 0.53 -0.45 0.72
vn 0.53 -0.45 0.72
vn 0.53 -0.45 0.72
vn 0.53 -0.45 0.72
vn 0.95 -0.05 -0.31
vn 0.95 -0.05 -0.31
vn 0.95 -0.05 -0.31
vn 0.95 -0.05 -0.31
vn 0.95 -0.05 -0.31
vn 0.95 -0.05 -0.31
vn 0 0.22 -0.98
vn 0 0.22 -0.98
vn 0 0.22 -0.98
vn 0 0.22 -0.98
vn 0 0.22 -0.98
vn 0 0.22 -0.98
vn -0.95 -0.05 -0.31
vn -0.95 -0.05 -0.31
vn -0.95 -0.05 -0.31
vn -0.95 -0.05 -0.31
vn -0.95 -0.05 -0.31
vn -0.95 -0.05 -0.31
vn -0.53 -0.45 0.72
vn -0.53 -0.45 0.72
vn -0.53 -0.45 0.72
vn -0.53 -0.45 0.72
vn -0.53 -0.45 0.72
vn -0.53 -0.45 0.72
vn 0.53 0.45 0.72
vn 0.53 0.45 0.72
vn 0.53 0.45 0.72
vn 0.53 0.45 0.72
vn 0.53 0.45 0.72
vn 0.53 0.45 0.72
vn 0.95 0.05 -0.31
vn 0.95 0.05 -0.31
vn 0.95 0.05 -0.31
vn 0.95 0.05 -0.31
vn 0.95 0.05 -0.31
vn 0.95 0.05 -0.31
vn 0 -0.22 -0.98
vn 0 -0.22 -0.98
vn 0 -0.22 -0.98
vn 0 -0.22 -0.98
vn 0 -0.22 -0.98
vn 0 -0.22 -0.98
vn -0.95 0.05 -0.31
vn -0.95 0.05 -0.31
vn -0.95 0.05 -0.31
vn -0.95 0.05 -0.31
vn -0.95 0.05 -0.31
vn -0.95 0.05 -0.31
vn -0.53 0.45 0.72
vn -0.53 0.45 0.72
vn -0.53 0.45 0.72
vn -0.53 0.45 0.72
vn -0.53 0.45 0.72
vn -0.53 0.45 0.72
vn 0 -1 0
vn 0 -1 0
vn 0 -1 0
vn 0 -1 0
vn 0 -1 0
vn 0 -1 0
vn 0 -1 0
vn 0 -1 0
vn 0 -1 0
vn 0 -1 0
vn 0 -1 0
vn 0 -1 0
vn 0 -1 0
vn 0 -1 0
vn 0 -1 0
vn 0 1 0
vn 0 1 0
vn 0 1 0
vn 0 1 0
vn 0 1 0
vn 0 1 0
vn 0 1 0
vn 0 1 0
vn 0 1 0
vn 0 1 0
vn 0 1 0
vn 0 1 0
vn 0 1 0
vn 0 1 0
vn 0 1 0
vn 0.53 -0.45 0.72
vn 0.53 -0.45 0.72
vn 0.53 -0.45 0.72
vn 0.53 -0.45 0.72
vn 0.53 -0.45 0.72
vn 0.53 -0.45 0.72
vn 0.95 -0.05 -0.31
vn 0.95 -0.05 -0.31
vn 0.95 -0.05 -0.31
vn 0.95 -0.05 -0.31
vn 0.95 -0.05 -0.31
vn 0.95 -0.05 -0.31
vn 0 0.22 -0.98
vn 0 0.22 -0.98
vn 0 0.22 -0.98
vn 0 0.22 -0.98
vn 0 0.22 -0.98
vn 0 0.22 -0.98
vn -0.95 -0.05 -0.31
vn -0.95 -0.05 -0.31
vn -0.95 -0.05 -0.31
vn -0.95 -0.05 -0.31
vn -0.95 -0.05 -0.31
vn -0.95 -0.05 -0.31
vn -0.53 -0.45 0.72
vn -0.53 -0.45 0.72
vn -0.53 -0.45 0.72
vn -0.53 -0.45 0.72
vn -0.53 -0.45 0.72
vn -0.53 -0.45 0.72
vn 0.53 0.45 0.72
vn 0.53 0.45 0.72
vn 0.53 0.45 0.72
vn 0.53 0.45 0.72
vn 0.53 0.45 0.72
vn 0.53 0.45 0.72
vn 0.95 0.05 -0.31
vn 0.95 0.05 -0.31
vn 0.95 0.05 -0.31
vn 0.95 0.05 -0.31
vn 0.95 0.05 -0.31
vn 0.95 0.05 -0.31
vn 0 -0.22 -0.98
vn 0 -0.22 -0.98
vn 0 -0.22 -0.98
vn 0 -0.22 -0.98
vn 0 -0.22 -0.98
vn 0 -0.22 -0.98
vn -0.95 0.05 -0.31
vn -0.95 0.05 -0.31
vn -0.95 0.05 -0.31
vn -0.95 0.05 -0.31
vn -0.95 0.05 -0.31
vn -0.95 0.05 -0.31
vn -0.53 0.45 0.72
vn -0.53 0.45 0.72
vn -0.53 0.45 0.72
vn -0.53 0.45 0.72
vn -0.53 0.45 0.72
vn -0.53 0.45 0.72
vn 0 -1 0
vn 0 -1 0
vn 0 -1 0
vn 0 -1 0
vn 0 -1 0
vn 0 -1 0
vn 0 -1 0
vn 0 -1 0
vn 0 -1 0
vn 0 -1 0
vn 0 -1 0
vn 0 -1 0
vn 0 -1 0
vn 0 -1 0
vn 0 -1 0
vn 0 1 0
vn 0 1 0
vn 0 1 0
vn 0 1 0
vn 0 1 0
vn 0 1 0
vn 0 1 0
vn 0 1 0
vn 0 1 0
vn 0 1 0
vn 0 1 0
vn 0 1 0
vn 0 1 0
vn 0 1 0
vn 0 1 0
vn 0.44 0.48 0.76
vn 0.44 0.48 0.76
vn 0.44 0.48 0.76
vn 0.44 0.48 0.76
vn 0.44 0.48 0.76
vn 0.44 0.48 0.76
vn 0.88 0.48 0
vn 0.88 0.48 0
vn 0.88 0.48 0
vn 0.88 0.48 0
vn 0.88 0.48 0
vn 0.88 0.48 0
vn 0.44 0.48 -0.76
vn 0.44 0.48 -0.76
vn 0.44 0.48 -0.76
vn 0.44 0.48 -0.76
vn 0.44 0.48 -0.76
vn 0.44 0.48 -0.76
vn -0.44 0.48 -0.76
vn -0.44 0.48 -0.76
vn -0.44 0.48 -0.76
vn -0.44 0.48 -0.76
vn -0.44 0.48 -0.76
vn -0.44 0.48 -0.76
vn -0.88 0.48 0
vn -0.88 0.48 0
vn -0.88 0.48 0
vn -0.88 0.48 0
vn -0.88 0.48 0
vn -0.88 0.48 0
vn -0.44 0.48 0.76
vn -0.44 0.48 0.76
vn -0.44 0.48 0.76
vn -0.44 0.48 0.76
vn -0.44 0.48 0.76
vn -0.44 0.48 0.76
vn 0 1 0
vn 0 1 0
vn 0 1 0
vn 0 1 0
vn 0 1 0
vn 0 1 0
vn 0 1 0
vn 0 1 0
vn 0 1 0
vn 0 1 0
vn 0 1 0
vn 0 1 0
vn 0 1 0
vn 0 1 0
vn 0 1 0
vn 0 1 0
vn 0 1 0
vn 0 1 0
vt 0 0
usemtl OC_Hull
s off
f 1/1/1 2/1/2 3/1/3
f 4/1/4 5/1/5 6/1/6
f 7/1/7 8/1/8 9/1/9
f 10/1/10 11/1/11 12/1/12
f 13/1/13 14/1/14 15/1/15
f 16/1/16 17/1/17 18/1/18
f 19/1/19 20/1/20 21/1/21
f 22/1/22 23/1/23 24/1/24
f 25/1/25 26/1/26 27/1/27
f 28/1/28 29/1/29 30/1/30
f 31/1/31 32/1/32 33/1/33
f 34/1/34 35/1/35 36/1/36
f 37/1/37 38/1/38 39/1/39
f 40/1/40 41/1/41 42/1/42
f 43/1/43 44/1/44 45/1/45
f 46/1/46 47/1/47 48/1/48
f 49/1/49 50/1/50 51/1/51
f 52/1/52 53/1/53 54/1/54
f 55/1/55 56/1/56 57/1/57
f 58/1/58 59/1/59 60/1/60
f 61/1/61 62/1/62 63/1/63
f 64/1/64 65/1/65 66/1/66
f 67/1/67 68/1/68 69/1/69
f 70/1/70 71/1/71 72/1/72
f 73/1/73 74/1/74 75/1/75
f 76/1/76 77/1/77 78/1/78
f 79/1/79 80/1/80 81/1/81
f 82/1/82 83/1/83 84/1/84
f 85/1/85 86/1/86 87/1/87
f 88/1/88 89/1/89 90/1/90
f 91/1/91 92/1/92 93/1/93
f 94/1/94 95/1/95 96/1/96
f 97/1/97 98/1/98 99/1/99
f 100/1/100 101/1/101 102/1/102
f 103/1/103 104/1/104 105/1/105
f 106/1/106 107/1/107 108/1/108
f 109/1/109 110/1/110 111/1/111
f 112/1/112 113/1/113 114/1/114
f 115/1/115 116/1/116 117/1/117
f 118/1/118 119/1/119 120/1/120
f 121/1/121 122/1/122 123/1/123
f 124/1/124 125/1/125 126/1/126
f 127/1/127 128/1/128 129/1/129
f 130/1/130 131/1/131 132/1/132
f 133/1/133 134/1/134 135/1/135
f 136/1/136 137/1/137 138/1/138
f 139/1/139 140/1/140 141/1/141
f 142/1/142 143/1/143 144/1/144
f 145/1/145 146/1/146 147/1/147
f 148/1/148 149/1/149 150/1/150
f 151/1/151 152/1/152 153/1/153
f 154/1/154 155/1/155 156/1/156
f 157/1/157 158/1/158 159/1/159
f 160/1/160 161/1/161 162/1/162
f 163/1/163 164/1/164 165/1/165
f 166/1/166 167/1/167 168/1/168
f 169/1/169 170/1/170 171/1/171
f 172/1/172 173/1/173 174/1/174
f 175/1/175 176/1/176 177/1/177
f 178/1/178 179/1/179 180/1/180
f 181/1/181 182/1/182 183/1/183
f 184/1/184 185/1/185 186/1/186
f 187/1/187 188/1/188 189/1/189
f 190/1/190 191/1/191 192/1/192
f 193/1/193 194/1/194 195/1/195
f 196/1/196 197/1/197 198/1/198
f 199/1/199 200/1/200 201/1/201
f 202/1/202 203/1/203 204/1/204
f 205/1/205 206/1/206 207/1/207
f 208/1/208 209/1/209 210/1/210
f 211/1/211 212/1/212 213/1/213
f 214/1/214 215/1/215 216/1/216
f 217/1/217 218/1/218 219/1/219
f 220/1/220 221/1/221 222/1/222
f 223/1/223 224/1/224 225/1/225
f 226/1/226 227/1/227 228/1/228
f 229/1/229 230/1/230 231/1/231
f 232/1/232 233/1/233 234/1/234
f 235/1/235 236/1/236 237/1/237
f 238/1/238 239/1/239 240/1/240
f 241/1/241 242/1/242 243/1/243
f 244/1/244 245/1/245 246/1/246
f 247/1/247 248/1/248 249/1/249
f 250/1/250 251/1/251 252/1/252
f 253/1/253 254/1/254 255/1/255
f 256/1/256 257/1/257 258/1/258
f 259/1/259 260/1/260 261/1/261
f 262/1/262 263/1/263 264/1/264
f 265/1/265 266/1/266 267/1/267
f 268/1/268 269/1/269 270/1/270
f 271/1/271 272/1/272 273/1/273
f 274/1/274 275/1/275 276/1/276
f 277/1/277 278/1/278 279/1/279
f 280/1/280 281/1/281 282/1/282
f 283/1/283 284/1/284 285/1/285
f 286/1/286 287/1/287 288/1/288
f 289/1/289 290/1/290 291/1/291
f 292/1/292 293/1/293 294/1/294
f 295/1/295 296/1/296 297/1/297
f 298/1/298 299/1/299 300/1/300
f 301/1/301 302/1/302 303/1/303
f 304/1/304 305/1/305 306/1/306
f 307/1/307 308/1/308 309/1/309
f 310/1/310 311/1/311 312/1/312
f 313/1/313 314/1/314 315/1/315
f 316/1/316 317/1/317 318/1/318
f 319/1/319 320/1/320 321/1/321
f 322/1/322 323/1/323 324/1/324
f 325/1/325 326/1/326 327/1/327
f 328/1/328 329/1/329 330/1/330
f 331/1/331 332/1/332 333/1/333
f 334/1/334 335/1/335 336/1/336
f 337/1/337 338/1/338 339/1/339
f 340/1/340 341/1/341 342/1/342
f 343/1/343 344/1/344 345/1/345
f 346/1/346 347/1/347 348/1/348
f 349/1/349 350/1/350 351/1/351
f 352/1/352 353/1/353 354/1/354
f 355/1/355 356/1/356 357/1/357
f 358/1/358 359/1/359 360/1/360
f 361/1/361 362/1/362 363/1/363
f 364/1/364 365/1/365 366/1/366
f 367/1/367 368/1/368 369/1/369
f 370/1/370 371/1/371 372/1/372
f 373/1/373 374/1/374 375/1/375
f 376/1/376 377/1/377 378/1/378
f 379/1/379 380/1/380 381/1/381
f 382/1/382 383/1/383 384/1/384
f 385/1/385 386/1/386 387/1/387
f 388/1/388 389/1/389 390/1/390
f 391/1/391 392/1/392 393/1/393
f 394/1/394 395/1/395 396/1/396
f 397/1/397 398/1/398 399/1/399
f 400/1/400 401/1/401 402/1/402
f 403/1/403 404/1/404 405/1/405
f 406/1/406 407/1/407 408/1/408
f 409/1/409 410/1/410 411/1/411
f 412/1/412 413/1/413 414/1/414
f 415/1/415 416/1/416 417/1/417
f 418/1/418 419/1/419 420/1/420
f 421/1/421 422/1/422 423/1/423
f 424/1/424 425/1/425 426/1/426
f 427/1/427 428/1/428 429/1/429
f 430/1/430 431/1/431 432/1/432
f 433/1/433 434/1/434 435/1/435
f 436/1/436 437/1/437 438/1/438
f 439/1/439 440/1/440 441/1/441
f 442/1/442 443/1/443 444/1/444
f 445/1/445 446/1/446 447/1/447
f 448/1/448 449/1/449 450/1/450
f 451/1/451 452/1/452 453/1/453
f 454/1/454 455/1/455 456/1/456
f 457/1/457 458/1/458 459/1/459
f 460/1/460 461/1/461 462/1/462
f 463/1/463 464/1/464 465/1/465
f 466/1/466 467/1/467 468/1/468
f 469/1/469 470/1/470 471/1/471
f 472/1/472 473/1/473 474/1/474
