# Outpost Commander - Station
# one per player, fixed, never moves. Chamfered plus-shaped plate, eight-sided hub tower, two point-defence mounts on the E/W arms, four arm-end docking nodes.
# Generated from meshes.json (outpost-commander-mesh-handoff/2) - do not hand-edit.
# LEFT-HANDED, Y up, +Z forward. Plane is Y=0. Mesh origin = simulated entity position.
# World units 1:1 - the authored extent IS the object's size; never scaled at draw time.
# Face-split vertices, baked per-face normals. No welding, no smoothing groups.
# ONE DEGENERATE TEXTURE COORDINATE, and it is not a UV layout. meshconvert always computes
# a tangent frame when it writes CMO -- the format's vertex carries one -- and it refuses to
# do so without texture coordinates. There is no flag to suppress it. So every face corner
# references this single vt 0 0. The CMO's texcoord field comes back zero, which is what the
# brief asks for; nothing reads it and nothing should start.
# extents  min -110 -12 -110  max 110 42 110  size 220 54 220
# 500 triangles, 1500 vertices
# Vertex colour selector is NOT in this file. See Station.vcol - one line per v record, same order.
mtllib OC_Hull.mtl
o Station
v 10.44 -12 63.8
v -15.84 -5 96.8
v -10.44 -12 63.8
v 10.44 -12 63.8
v 15.84 -5 96.8
v -15.84 -5 96.8
v -10.44 -12 63.8
v -22.88 -5 89.76
v -15.08 -12 59.16
v -10.44 -12 63.8
v -15.84 -5 96.8
v -22.88 -5 89.76
v -15.08 -12 59.16
v -22.88 -5 29.92
v -15.08 -12 19.72
v -15.08 -12 59.16
v -22.88 -5 89.76
v -22.88 -5 29.92
v -15.08 -12 19.72
v -29.92 -5 22.88
v -19.72 -12 15.08
v -15.08 -12 19.72
v -22.88 -5 29.92
v -29.92 -5 22.88
v -19.72 -12 15.08
v -89.76 -5 22.88
v -59.16 -12 15.08
v -19.72 -12 15.08
v -29.92 -5 22.88
v -89.76 -5 22.88
v -59.16 -12 15.08
v -96.8 -5 15.84
v -63.8 -12 10.44
v -59.16 -12 15.08
v -89.76 -5 22.88
v -96.8 -5 15.84
v -63.8 -12 10.44
v -96.8 -5 -15.84
v -63.8 -12 -10.44
v -63.8 -12 10.44
v -96.8 -5 15.84
v -96.8 -5 -15.84
v -63.8 -12 -10.44
v -89.76 -5 -22.88
v -59.16 -12 -15.08
v -63.8 -12 -10.44
v -96.8 -5 -15.84
v -89.76 -5 -22.88
v -59.16 -12 -15.08
v -29.92 -5 -22.88
v -19.72 -12 -15.08
v -59.16 -12 -15.08
v -89.76 -5 -22.88
v -29.92 -5 -22.88
v -19.72 -12 -15.08
v -22.88 -5 -29.92
v -15.08 -12 -19.72
v -19.72 -12 -15.08
v -29.92 -5 -22.88
v -22.88 -5 -29.92
v -15.08 -12 -19.72
v -22.88 -5 -89.76
v -15.08 -12 -59.16
v -15.08 -12 -19.72
v -22.88 -5 -29.92
v -22.88 -5 -89.76
v -15.08 -12 -59.16
v -15.84 -5 -96.8
v -10.44 -12 -63.8
v -15.08 -12 -59.16
v -22.88 -5 -89.76
v -15.84 -5 -96.8
v -10.44 -12 -63.8
v 15.84 -5 -96.8
v 10.44 -12 -63.8
v -10.44 -12 -63.8
v -15.84 -5 -96.8
v 15.84 -5 -96.8
v 10.44 -12 -63.8
v 22.88 -5 -89.76
v 15.08 -12 -59.16
v 10.44 -12 -63.8
v 15.84 -5 -96.8
v 22.88 -5 -89.76
v 15.08 -12 -59.16
v 22.88 -5 -29.92
v 15.08 -12 -19.72
v 15.08 -12 -59.16
v 22.88 -5 -89.76
v 22.88 -5 -29.92
v 15.08 -12 -19.72
v 29.92 -5 -22.88
v 19.72 -12 -15.08
v 15.08 -12 -19.72
v 22.88 -5 -29.92
v 29.92 -5 -22.88
v 19.72 -12 -15.08
v 89.76 -5 -22.88
v 59.16 -12 -15.08
v 19.72 -12 -15.08
v 29.92 -5 -22.88
v 89.76 -5 -22.88
v 59.16 -12 -15.08
v 96.8 -5 -15.84
v 63.8 -12 -10.44
v 59.16 -12 -15.08
v 89.76 -5 -22.88
v 96.8 -5 -15.84
v 63.8 -12 -10.44
v 96.8 -5 15.84
v 63.8 -12 10.44
v 63.8 -12 -10.44
v 96.8 -5 -15.84
v 96.8 -5 15.84
v 63.8 -12 10.44
v 89.76 -5 22.88
v 59.16 -12 15.08
v 63.8 -12 10.44
v 96.8 -5 15.84
v 89.76 -5 22.88
v 59.16 -12 15.08
v 29.92 -5 22.88
v 19.72 -12 15.08
v 59.16 -12 15.08
v 89.76 -5 22.88
v 29.92 -5 22.88
v 19.72 -12 15.08
v 22.88 -5 29.92
v 15.08 -12 19.72
v 19.72 -12 15.08
v 29.92 -5 22.88
v 22.88 -5 29.92
v 15.08 -12 19.72
v 22.88 -5 89.76
v 15.08 -12 59.16
v 15.08 -12 19.72
v 22.88 -5 29.92
v 22.88 -5 89.76
v 15.08 -12 59.16
v 15.84 -5 96.8
v 10.44 -12 63.8
v 15.08 -12 59.16
v 22.88 -5 89.76
v 15.84 -5 96.8
v 15.84 -5 96.8
v -18 0 110
v -15.84 -5 96.8
v 15.84 -5 96.8
v 18 0 110
v -18 0 110
v -15.84 -5 96.8
v -26 0 102
v -22.88 -5 89.76
v -15.84 -5 96.8
v -18 0 110
v -26 0 102
v -22.88 -5 89.76
v -26 0 34
v -22.88 -5 29.92
v -22.88 -5 89.76
v -26 0 102
v -26 0 34
v -22.88 -5 29.92
v -34 0 26
v -29.92 -5 22.88
v -22.88 -5 29.92
v -26 0 34
v -34 0 26
v -29.92 -5 22.88
v -102 0 26
v -89.76 -5 22.88
v -29.92 -5 22.88
v -34 0 26
v -102 0 26
v -89.76 -5 22.88
v -110 0 18
v -96.8 -5 15.84
v -89.76 -5 22.88
v -102 0 26
v -110 0 18
v -96.8 -5 15.84
v -110 0 -18
v -96.8 -5 -15.84
v -96.8 -5 15.84
v -110 0 18
v -110 0 -18
v -96.8 -5 -15.84
v -102 0 -26
v -89.76 -5 -22.88
v -96.8 -5 -15.84
v -110 0 -18
v -102 0 -26
v -89.76 -5 -22.88
v -34 0 -26
v -29.92 -5 -22.88
v -89.76 -5 -22.88
v -102 0 -26
v -34 0 -26
v -29.92 -5 -22.88
v -26 0 -34
v -22.88 -5 -29.92
v -29.92 -5 -22.88
v -34 0 -26
v -26 0 -34
v -22.88 -5 -29.92
v -26 0 -102
v -22.88 -5 -89.76
v -22.88 -5 -29.92
v -26 0 -34
v -26 0 -102
v -22.88 -5 -89.76
v -18 0 -110
v -15.84 -5 -96.8
v -22.88 -5 -89.76
v -26 0 -102
v -18 0 -110
v -15.84 -5 -96.8
v 18 0 -110
v 15.84 -5 -96.8
v -15.84 -5 -96.8
v -18 0 -110
v 18 0 -110
v 15.84 -5 -96.8
v 26 0 -102
v 22.88 -5 -89.76
v 15.84 -5 -96.8
v 18 0 -110
v 26 0 -102
v 22.88 -5 -89.76
v 26 0 -34
v 22.88 -5 -29.92
v 22.88 -5 -89.76
v 26 0 -102
v 26 0 -34
v 22.88 -5 -29.92
v 34 0 -26
v 29.92 -5 -22.88
v 22.88 -5 -29.92
v 26 0 -34
v 34 0 -26
v 29.92 -5 -22.88
v 102 0 -26
v 89.76 -5 -22.88
v 29.92 -5 -22.88
v 34 0 -26
v 102 0 -26
v 89.76 -5 -22.88
v 110 0 -18
v 96.8 -5 -15.84
v 89.76 -5 -22.88
v 102 0 -26
v 110 0 -18
v 96.8 -5 -15.84
v 110 0 18
v 96.8 -5 15.84
v 96.8 -5 -15.84
v 110 0 -18
v 110 0 18
v 96.8 -5 15.84
v 102 0 26
v 89.76 -5 22.88
v 96.8 -5 15.84
v 110 0 18
v 102 0 26
v 89.76 -5 22.88
v 34 0 26
v 29.92 -5 22.88
v 89.76 -5 22.88
v 102 0 26
v 34 0 26
v 29.92 -5 22.88
v 26 0 34
v 22.88 -5 29.92
v 29.92 -5 22.88
v 34 0 26
v 26 0 34
v 22.88 -5 29.92
v 26 0 102
v 22.88 -5 89.76
v 22.88 -5 29.92
v 26 0 34
v 26 0 102
v 22.88 -5 89.76
v 18 0 110
v 15.84 -5 96.8
v 22.88 -5 89.76
v 26 0 102
v 18 0 110
v 18 0 110
v -16.2 6 99
v -18 0 110
v 18 0 110
v 16.2 6 99
v -16.2 6 99
v -18 0 110
v -23.4 6 91.8
v -26 0 102
v -18 0 110
v -16.2 6 99
v -23.4 6 91.8
v -26 0 102
v -23.4 6 30.6
v -26 0 34
v -26 0 102
v -23.4 6 91.8
v -23.4 6 30.6
v -26 0 34
v -30.6 6 23.4
v -34 0 26
v -26 0 34
v -23.4 6 30.6
v -30.6 6 23.4
v -34 0 26
v -91.8 6 23.4
v -102 0 26
v -34 0 26
v -30.6 6 23.4
v -91.8 6 23.4
v -102 0 26
v -99 6 16.2
v -110 0 18
v -102 0 26
v -91.8 6 23.4
v -99 6 16.2
v -110 0 18
v -99 6 -16.2
v -110 0 -18
v -110 0 18
v -99 6 16.2
v -99 6 -16.2
v -110 0 -18
v -91.8 6 -23.4
v -102 0 -26
v -110 0 -18
v -99 6 -16.2
v -91.8 6 -23.4
v -102 0 -26
v -30.6 6 -23.4
v -34 0 -26
v -102 0 -26
v -91.8 6 -23.4
v -30.6 6 -23.4
v -34 0 -26
v -23.4 6 -30.6
v -26 0 -34
v -34 0 -26
v -30.6 6 -23.4
v -23.4 6 -30.6
v -26 0 -34
v -23.4 6 -91.8
v -26 0 -102
v -26 0 -34
v -23.4 6 -30.6
v -23.4 6 -91.8
v -26 0 -102
v -16.2 6 -99
v -18 0 -110
v -26 0 -102
v -23.4 6 -91.8
v -16.2 6 -99
v -18 0 -110
v 16.2 6 -99
v 18 0 -110
v -18 0 -110
v -16.2 6 -99
v 16.2 6 -99
v 18 0 -110
v 23.4 6 -91.8
v 26 0 -102
v 18 0 -110
v 16.2 6 -99
v 23.4 6 -91.8
v 26 0 -102
v 23.4 6 -30.6
v 26 0 -34
v 26 0 -102
v 23.4 6 -91.8
v 23.4 6 -30.6
v 26 0 -34
v 30.6 6 -23.4
v 34 0 -26
v 26 0 -34
v 23.4 6 -30.6
v 30.6 6 -23.4
v 34 0 -26
v 91.8 6 -23.4
v 102 0 -26
v 34 0 -26
v 30.6 6 -23.4
v 91.8 6 -23.4
v 102 0 -26
v 99 6 -16.2
v 110 0 -18
v 102 0 -26
v 91.8 6 -23.4
v 99 6 -16.2
v 110 0 -18
v 99 6 16.2
v 110 0 18
v 110 0 -18
v 99 6 -16.2
v 99 6 16.2
v 110 0 18
v 91.8 6 23.4
v 102 0 26
v 110 0 18
v 99 6 16.2
v 91.8 6 23.4
v 102 0 26
v 30.6 6 23.4
v 34 0 26
v 102 0 26
v 91.8 6 23.4
v 30.6 6 23.4
v 34 0 26
v 23.4 6 30.6
v 26 0 34
v 34 0 26
v 30.6 6 23.4
v 23.4 6 30.6
v 26 0 34
v 23.4 6 91.8
v 26 0 102
v 26 0 34
v 23.4 6 30.6
v 23.4 6 91.8
v 26 0 102
v 16.2 6 99
v 18 0 110
v 26 0 102
v 23.4 6 91.8
v 16.2 6 99
v 16.2 6 99
v -12.6 12 77
v -16.2 6 99
v 16.2 6 99
v 12.6 12 77
v -12.6 12 77
v -16.2 6 99
v -18.2 12 71.4
v -23.4 6 91.8
v -16.2 6 99
v -12.6 12 77
v -18.2 12 71.4
v -23.4 6 91.8
v -18.2 12 23.8
v -23.4 6 30.6
v -23.4 6 91.8
v -18.2 12 71.4
v -18.2 12 23.8
v -23.4 6 30.6
v -23.8 12 18.2
v -30.6 6 23.4
v -23.4 6 30.6
v -18.2 12 23.8
v -23.8 12 18.2
v -30.6 6 23.4
v -71.4 12 18.2
v -91.8 6 23.4
v -30.6 6 23.4
v -23.8 12 18.2
v -71.4 12 18.2
v -91.8 6 23.4
v -77 12 12.6
v -99 6 16.2
v -91.8 6 23.4
v -71.4 12 18.2
v -77 12 12.6
v -99 6 16.2
v -77 12 -12.6
v -99 6 -16.2
v -99 6 16.2
v -77 12 12.6
v -77 12 -12.6
v -99 6 -16.2
v -71.4 12 -18.2
v -91.8 6 -23.4
v -99 6 -16.2
v -77 12 -12.6
v -71.4 12 -18.2
v -91.8 6 -23.4
v -23.8 12 -18.2
v -30.6 6 -23.4
v -91.8 6 -23.4
v -71.4 12 -18.2
v -23.8 12 -18.2
v -30.6 6 -23.4
v -18.2 12 -23.8
v -23.4 6 -30.6
v -30.6 6 -23.4
v -23.8 12 -18.2
v -18.2 12 -23.8
v -23.4 6 -30.6
v -18.2 12 -71.4
v -23.4 6 -91.8
v -23.4 6 -30.6
v -18.2 12 -23.8
v -18.2 12 -71.4
v -23.4 6 -91.8
v -12.6 12 -77
v -16.2 6 -99
v -23.4 6 -91.8
v -18.2 12 -71.4
v -12.6 12 -77
v -16.2 6 -99
v 12.6 12 -77
v 16.2 6 -99
v -16.2 6 -99
v -12.6 12 -77
v 12.6 12 -77
v 16.2 6 -99
v 18.2 12 -71.4
v 23.4 6 -91.8
v 16.2 6 -99
v 12.6 12 -77
v 18.2 12 -71.4
v 23.4 6 -91.8
v 18.2 12 -23.8
v 23.4 6 -30.6
v 23.4 6 -91.8
v 18.2 12 -71.4
v 18.2 12 -23.8
v 23.4 6 -30.6
v 23.8 12 -18.2
v 30.6 6 -23.4
v 23.4 6 -30.6
v 18.2 12 -23.8
v 23.8 12 -18.2
v 30.6 6 -23.4
v 71.4 12 -18.2
v 91.8 6 -23.4
v 30.6 6 -23.4
v 23.8 12 -18.2
v 71.4 12 -18.2
v 91.8 6 -23.4
v 77 12 -12.6
v 99 6 -16.2
v 91.8 6 -23.4
v 71.4 12 -18.2
v 77 12 -12.6
v 99 6 -16.2
v 77 12 12.6
v 99 6 16.2
v 99 6 -16.2
v 77 12 -12.6
v 77 12 12.6
v 99 6 16.2
v 71.4 12 18.2
v 91.8 6 23.4
v 99 6 16.2
v 77 12 12.6
v 71.4 12 18.2
v 91.8 6 23.4
v 23.8 12 18.2
v 30.6 6 23.4
v 91.8 6 23.4
v 71.4 12 18.2
v 23.8 12 18.2
v 30.6 6 23.4
v 18.2 12 23.8
v 23.4 6 30.6
v 30.6 6 23.4
v 23.8 12 18.2
v 18.2 12 23.8
v 23.4 6 30.6
v 18.2 12 71.4
v 23.4 6 91.8
v 23.4 6 30.6
v 18.2 12 23.8
v 18.2 12 71.4
v 23.4 6 91.8
v 12.6 12 77
v 16.2 6 99
v 23.4 6 91.8
v 18.2 12 71.4
v 12.6 12 77
v 0 -12 0
v 10.44 -12 63.8
v -10.44 -12 63.8
v 0 -12 0
v -10.44 -12 63.8
v -15.08 -12 59.16
v 0 -12 0
v -15.08 -12 59.16
v -15.08 -12 19.72
v 0 -12 0
v -15.08 -12 19.72
v -19.72 -12 15.08
v 0 -12 0
v -19.72 -12 15.08
v -59.16 -12 15.08
v 0 -12 0
v -59.16 -12 15.08
v -63.8 -12 10.44
v 0 -12 0
v -63.8 -12 10.44
v -63.8 -12 -10.44
v 0 -12 0
v -63.8 -12 -10.44
v -59.16 -12 -15.08
v 0 -12 0
v -59.16 -12 -15.08
v -19.72 -12 -15.08
v 0 -12 0
v -19.72 -12 -15.08
v -15.08 -12 -19.72
v 0 -12 0
v -15.08 -12 -19.72
v -15.08 -12 -59.16
v 0 -12 0
v -15.08 -12 -59.16
v -10.44 -12 -63.8
v 0 -12 0
v -10.44 -12 -63.8
v 10.44 -12 -63.8
v 0 -12 0
v 10.44 -12 -63.8
v 15.08 -12 -59.16
v 0 -12 0
v 15.08 -12 -59.16
v 15.08 -12 -19.72
v 0 -12 0
v 15.08 -12 -19.72
v 19.72 -12 -15.08
v 0 -12 0
v 19.72 -12 -15.08
v 59.16 -12 -15.08
v 0 -12 0
v 59.16 -12 -15.08
v 63.8 -12 -10.44
v 0 -12 0
v 63.8 -12 -10.44
v 63.8 -12 10.44
v 0 -12 0
v 63.8 -12 10.44
v 59.16 -12 15.08
v 0 -12 0
v 59.16 -12 15.08
v 19.72 -12 15.08
v 0 -12 0
v 19.72 -12 15.08
v 15.08 -12 19.72
v 0 -12 0
v 15.08 -12 19.72
v 15.08 -12 59.16
v 0 -12 0
v 15.08 -12 59.16
v 10.44 -12 63.8
v 0 12 0
v -12.6 12 77
v 12.6 12 77
v 0 12 0
v -18.2 12 71.4
v -12.6 12 77
v 0 12 0
v -18.2 12 23.8
v -18.2 12 71.4
v 0 12 0
v -23.8 12 18.2
v -18.2 12 23.8
v 0 12 0
v -71.4 12 18.2
v -23.8 12 18.2
v 0 12 0
v -77 12 12.6
v -71.4 12 18.2
v 0 12 0
v -77 12 -12.6
v -77 12 12.6
v 0 12 0
v -71.4 12 -18.2
v -77 12 -12.6
v 0 12 0
v -23.8 12 -18.2
v -71.4 12 -18.2
v 0 12 0
v -18.2 12 -23.8
v -23.8 12 -18.2
v 0 12 0
v -18.2 12 -71.4
v -18.2 12 -23.8
v 0 12 0
v -12.6 12 -77
v -18.2 12 -71.4
v 0 12 0
v 12.6 12 -77
v -12.6 12 -77
v 0 12 0
v 18.2 12 -71.4
v 12.6 12 -77
v 0 12 0
v 18.2 12 -23.8
v 18.2 12 -71.4
v 0 12 0
v 23.8 12 -18.2
v 18.2 12 -23.8
v 0 12 0
v 71.4 12 -18.2
v 23.8 12 -18.2
v 0 12 0
v 77 12 -12.6
v 71.4 12 -18.2
v 0 12 0
v 77 12 12.6
v 77 12 -12.6
v 0 12 0
v 71.4 12 18.2
v 77 12 12.6
v 0 12 0
v 23.8 12 18.2
v 71.4 12 18.2
v 0 12 0
v 18.2 12 23.8
v 23.8 12 18.2
v 0 12 0
v 18.2 12 71.4
v 18.2 12 23.8
v 0 12 0
v 12.6 12 77
v 18.2 12 71.4
v 0 10 44
v 31.11 10 31.11
v 26.76 22 26.76
v 0 10 44
v 26.76 22 26.76
v 0 22 37.84
v 31.11 10 31.11
v 44 10 0
v 37.84 22 0
v 31.11 10 31.11
v 37.84 22 0
v 26.76 22 26.76
v 44 10 0
v 31.11 10 -31.11
v 26.76 22 -26.76
v 44 10 0
v 26.76 22 -26.76
v 37.84 22 0
v 31.11 10 -31.11
v 0 10 -44
v 0 22 -37.84
v 31.11 10 -31.11
v 0 22 -37.84
v 26.76 22 -26.76
v 0 10 -44
v -31.11 10 -31.11
v -26.76 22 -26.76
v 0 10 -44
v -26.76 22 -26.76
v 0 22 -37.84
v -31.11 10 -31.11
v -44 10 0
v -37.84 22 0
v -31.11 10 -31.11
v -37.84 22 0
v -26.76 22 -26.76
v -44 10 0
v -31.11 10 31.11
v -26.76 22 26.76
v -44 10 0
v -26.76 22 26.76
v -37.84 22 0
v -31.11 10 31.11
v 0 10 44
v 0 22 37.84
v -31.11 10 31.11
v 0 22 37.84
v -26.76 22 26.76
v 0 22 37.84
v 26.76 22 26.76
v 20.53 34 20.53
v 0 22 37.84
v 20.53 34 20.53
v 0 34 29.04
v 26.76 22 26.76
v 37.84 22 0
v 29.04 34 0
v 26.76 22 26.76
v 29.04 34 0
v 20.53 34 20.53
v 37.84 22 0
v 26.76 22 -26.76
v 20.53 34 -20.53
v 37.84 22 0
v 20.53 34 -20.53
v 29.04 34 0
v 26.76 22 -26.76
v 0 22 -37.84
v 0 34 -29.04
v 26.76 22 -26.76
v 0 34 -29.04
v 20.53 34 -20.53
v 0 22 -37.84
v -26.76 22 -26.76
v -20.53 34 -20.53
v 0 22 -37.84
v -20.53 34 -20.53
v 0 34 -29.04
v -26.76 22 -26.76
v -37.84 22 0
v -29.04 34 0
v -26.76 22 -26.76
v -29.04 34 0
v -20.53 34 -20.53
v -37.84 22 0
v -26.76 22 26.76
v -20.53 34 20.53
v -37.84 22 0
v -20.53 34 20.53
v -29.04 34 0
v -26.76 22 26.76
v 0 22 37.84
v 0 34 29.04
v -26.76 22 26.76
v 0 34 29.04
v -20.53 34 20.53
v 0 34 29.04
v 20.53 34 20.53
v 12.45 42 12.45
v 0 34 29.04
v 12.45 42 12.45
v 0 42 17.6
v 20.53 34 20.53
v 29.04 34 0
v 17.6 42 0
v 20.53 34 20.53
v 17.6 42 0
v 12.45 42 12.45
v 29.04 34 0
v 20.53 34 -20.53
v 12.45 42 -12.45
v 29.04 34 0
v 12.45 42 -12.45
v 17.6 42 0
v 20.53 34 -20.53
v 0 34 -29.04
v 0 42 -17.6
v 20.53 34 -20.53
v 0 42 -17.6
v 12.45 42 -12.45
v 0 34 -29.04
v -20.53 34 -20.53
v -12.45 42 -12.45
v 0 34 -29.04
v -12.45 42 -12.45
v 0 42 -17.6
v -20.53 34 -20.53
v -29.04 34 0
v -17.6 42 0
v -20.53 34 -20.53
v -17.6 42 0
v -12.45 42 -12.45
v -29.04 34 0
v -20.53 34 20.53
v -12.45 42 12.45
v -29.04 34 0
v -12.45 42 12.45
v -17.6 42 0
v -20.53 34 20.53
v 0 34 29.04
v 0 42 17.6
v -20.53 34 20.53
v 0 42 17.6
v -12.45 42 12.45
v 0 42 0
v 0 42 17.6
v 12.45 42 12.45
v 0 42 0
v 12.45 42 12.45
v 17.6 42 0
v 0 42 0
v 17.6 42 0
v 12.45 42 -12.45
v 0 42 0
v 12.45 42 -12.45
v 0 42 -17.6
v 0 42 0
v 0 42 -17.6
v -12.45 42 -12.45
v 0 42 0
v -12.45 42 -12.45
v -17.6 42 0
v 0 42 0
v -17.6 42 0
v -12.45 42 12.45
v 0 42 0
v -12.45 42 12.45
v 0 42 17.6
v -66 10 14
v -53.88 10 7
v -56.06 20 5.74
v -66 10 14
v -56.06 20 5.74
v -66 20 11.48
v -53.88 10 7
v -53.88 10 -7
v -56.06 20 -5.74
v -53.88 10 7
v -56.06 20 -5.74
v -56.06 20 5.74
v -53.88 10 -7
v -66 10 -14
v -66 20 -11.48
v -53.88 10 -7
v -66 20 -11.48
v -56.06 20 -5.74
v -66 10 -14
v -78.12 10 -7
v -75.94 20 -5.74
v -66 10 -14
v -75.94 20 -5.74
v -66 20 -11.48
v -78.12 10 -7
v -78.12 10 7
v -75.94 20 5.74
v -78.12 10 -7
v -75.94 20 5.74
v -75.94 20 -5.74
v -78.12 10 7
v -66 10 14
v -66 20 11.48
v -78.12 10 7
v -66 20 11.48
v -75.94 20 5.74
v -66 20 11.48
v -56.06 20 5.74
v -59.94 27 3.5
v -66 20 11.48
v -59.94 27 3.5
v -66 27 7
v -56.06 20 5.74
v -56.06 20 -5.74
v -59.94 27 -3.5
v -56.06 20 5.74
v -59.94 27 -3.5
v -59.94 27 3.5
v -56.06 20 -5.74
v -66 20 -11.48
v -66 27 -7
v -56.06 20 -5.74
v -66 27 -7
v -59.94 27 -3.5
v -66 20 -11.48
v -75.94 20 -5.74
v -72.06 27 -3.5
v -66 20 -11.48
v -72.06 27 -3.5
v -66 27 -7
v -75.94 20 -5.74
v -75.94 20 5.74
v -72.06 27 3.5
v -75.94 20 -5.74
v -72.06 27 3.5
v -72.06 27 -3.5
v -75.94 20 5.74
v -66 20 11.48
v -66 27 7
v -75.94 20 5.74
v -66 27 7
v -72.06 27 3.5
v -66 27 0
v -66 27 7
v -59.94 27 3.5
v -66 27 0
v -59.94 27 3.5
v -59.94 27 -3.5
v -66 27 0
v -59.94 27 -3.5
v -66 27 -7
v -66 27 0
v -66 27 -7
v -72.06 27 -3.5
v -66 27 0
v -72.06 27 -3.5
v -72.06 27 3.5
v -66 27 0
v -72.06 27 3.5
v -66 27 7
v 66 10 14
v 78.12 10 7
v 75.94 20 5.74
v 66 10 14
v 75.94 20 5.74
v 66 20 11.48
v 78.12 10 7
v 78.12 10 -7
v 75.94 20 -5.74
v 78.12 10 7
v 75.94 20 -5.74
v 75.94 20 5.74
v 78.12 10 -7
v 66 10 -14
v 66 20 -11.48
v 78.12 10 -7
v 66 20 -11.48
v 75.94 20 -5.74
v 66 10 -14
v 53.88 10 -7
v 56.06 20 -5.74
v 66 10 -14
v 56.06 20 -5.74
v 66 20 -11.48
v 53.88 10 -7
v 53.88 10 7
v 56.06 20 5.74
v 53.88 10 -7
v 56.06 20 5.74
v 56.06 20 -5.74
v 53.88 10 7
v 66 10 14
v 66 20 11.48
v 53.88 10 7
v 66 20 11.48
v 56.06 20 5.74
v 66 20 11.48
v 75.94 20 5.74
v 72.06 27 3.5
v 66 20 11.48
v 72.06 27 3.5
v 66 27 7
v 75.94 20 5.74
v 75.94 20 -5.74
v 72.06 27 -3.5
v 75.94 20 5.74
v 72.06 27 -3.5
v 72.06 27 3.5
v 75.94 20 -5.74
v 66 20 -11.48
v 66 27 -7
v 75.94 20 -5.74
v 66 27 -7
v 72.06 27 -3.5
v 66 20 -11.48
v 56.06 20 -5.74
v 59.94 27 -3.5
v 66 20 -11.48
v 59.94 27 -3.5
v 66 27 -7
v 56.06 20 -5.74
v 56.06 20 5.74
v 59.94 27 3.5
v 56.06 20 -5.74
v 59.94 27 3.5
v 59.94 27 -3.5
v 56.06 20 5.74
v 66 20 11.48
v 66 27 7
v 56.06 20 5.74
v 66 27 7
v 59.94 27 3.5
v 66 27 0
v 66 27 7
v 72.06 27 3.5
v 66 27 0
v 72.06 27 3.5
v 72.06 27 -3.5
v 66 27 0
v 72.06 27 -3.5
v 66 27 -7
v 66 27 0
v 66 27 -7
v 59.94 27 -3.5
v 66 27 0
v 59.94 27 -3.5
v 59.94 27 3.5
v 66 27 0
v 59.94 27 3.5
v 66 27 7
v 0 -6 105.6
v 11.78 -6 98.8
v 14.72 6 100.5
v 0 -6 105.6
v 14.72 6 100.5
v 0 6 109
v 11.78 -6 98.8
v 11.78 -6 85.2
v 14.72 6 83.5
v 11.78 -6 98.8
v 14.72 6 83.5
v 14.72 6 100.5
v 11.78 -6 85.2
v 0 -6 78.4
v 0 6 75
v 11.78 -6 85.2
v 0 6 75
v 14.72 6 83.5
v 0 -6 78.4
v -11.78 -6 85.2
v -14.72 6 83.5
v 0 -6 78.4
v -14.72 6 83.5
v 0 6 75
v -11.78 -6 85.2
v -11.78 -6 98.8
v -14.72 6 100.5
v -11.78 -6 85.2
v -14.72 6 100.5
v -14.72 6 83.5
v -11.78 -6 98.8
v 0 -6 105.6
v 0 6 109
v -11.78 -6 98.8
v 0 6 109
v -14.72 6 100.5
v 0 6 109
v 14.72 6 100.5
v 9.13 16 97.27
v 0 6 109
v 9.13 16 97.27
v 0 16 102.54
v 14.72 6 100.5
v 14.72 6 83.5
v 9.13 16 86.73
v 14.72 6 100.5
v 9.13 16 86.73
v 9.13 16 97.27
v 14.72 6 83.5
v 0 6 75
v 0 16 81.46
v 14.72 6 83.5
v 0 16 81.46
v 9.13 16 86.73
v 0 6 75
v -14.72 6 83.5
v -9.13 16 86.73
v 0 6 75
v -9.13 16 86.73
v 0 16 81.46
v -14.72 6 83.5
v -14.72 6 100.5
v -9.13 16 97.27
v -14.72 6 83.5
v -9.13 16 97.27
v -9.13 16 86.73
v -14.72 6 100.5
v 0 6 109
v 0 16 102.54
v -14.72 6 100.5
v 0 16 102.54
v -9.13 16 97.27
v 0 -6 92
v 11.78 -6 98.8
v 0 -6 105.6
v 0 -6 92
v 11.78 -6 85.2
v 11.78 -6 98.8
v 0 -6 92
v 0 -6 78.4
v 11.78 -6 85.2
v 0 -6 92
v -11.78 -6 85.2
v 0 -6 78.4
v 0 -6 92
v -11.78 -6 98.8
v -11.78 -6 85.2
v 0 -6 92
v 0 -6 105.6
v -11.78 -6 98.8
v 0 16 92
v 0 16 102.54
v 9.13 16 97.27
v 0 16 92
v 9.13 16 97.27
v 9.13 16 86.73
v 0 16 92
v 9.13 16 86.73
v 0 16 81.46
v 0 16 92
v 0 16 81.46
v -9.13 16 86.73
v 0 16 92
v -9.13 16 86.73
v -9.13 16 97.27
v 0 16 92
v -9.13 16 97.27
v 0 16 102.54
v 0 -6 -78.4
v 11.78 -6 -85.2
v 14.72 6 -83.5
v 0 -6 -78.4
v 14.72 6 -83.5
v 0 6 -75
v 11.78 -6 -85.2
v 11.78 -6 -98.8
v 14.72 6 -100.5
v 11.78 -6 -85.2
v 14.72 6 -100.5
v 14.72 6 -83.5
v 11.78 -6 -98.8
v 0 -6 -105.6
v 0 6 -109
v 11.78 -6 -98.8
v 0 6 -109
v 14.72 6 -100.5
v 0 -6 -105.6
v -11.78 -6 -98.8
v -14.72 6 -100.5
v 0 -6 -105.6
v -14.72 6 -100.5
v 0 6 -109
v -11.78 -6 -98.8
v -11.78 -6 -85.2
v -14.72 6 -83.5
v -11.78 -6 -98.8
v -14.72 6 -83.5
v -14.72 6 -100.5
v -11.78 -6 -85.2
v 0 -6 -78.4
v 0 6 -75
v -11.78 -6 -85.2
v 0 6 -75
v -14.72 6 -83.5
v 0 6 -75
v 14.72 6 -83.5
v 9.13 16 -86.73
v 0 6 -75
v 9.13 16 -86.73
v 0 16 -81.46
v 14.72 6 -83.5
v 14.72 6 -100.5
v 9.13 16 -97.27
v 14.72 6 -83.5
v 9.13 16 -97.27
v 9.13 16 -86.73
v 14.72 6 -100.5
v 0 6 -109
v 0 16 -102.54
v 14.72 6 -100.5
v 0 16 -102.54
v 9.13 16 -97.27
v 0 6 -109
v -14.72 6 -100.5
v -9.13 16 -97.27
v 0 6 -109
v -9.13 16 -97.27
v 0 16 -102.54
v -14.72 6 -100.5
v -14.72 6 -83.5
v -9.13 16 -86.73
v -14.72 6 -100.5
v -9.13 16 -86.73
v -9.13 16 -97.27
v -14.72 6 -83.5
v 0 6 -75
v 0 16 -81.46
v -14.72 6 -83.5
v 0 16 -81.46
v -9.13 16 -86.73
v 0 -6 -92
v 11.78 -6 -85.2
v 0 -6 -78.4
v 0 -6 -92
v 11.78 -6 -98.8
v 11.78 -6 -85.2
v 0 -6 -92
v 0 -6 -105.6
v 11.78 -6 -98.8
v 0 -6 -92
v -11.78 -6 -98.8
v 0 -6 -105.6
v 0 -6 -92
v -11.78 -6 -85.2
v -11.78 -6 -98.8
v 0 -6 -92
v 0 -6 -78.4
v -11.78 -6 -85.2
v 0 16 -92
v 0 16 -81.46
v 9.13 16 -86.73
v 0 16 -92
v 9.13 16 -86.73
v 9.13 16 -97.27
v 0 16 -92
v 9.13 16 -97.27
v 0 16 -102.54
v 0 16 -92
v 0 16 -102.54
v -9.13 16 -97.27
v 0 16 -92
v -9.13 16 -97.27
v -9.13 16 -86.73
v 0 16 -92
v -9.13 16 -86.73
v 0 16 -81.46
v 92 -6 13.6
v 103.78 -6 6.8
v 106.72 6 8.5
v 92 -6 13.6
v 106.72 6 8.5
v 92 6 17
v 103.78 -6 6.8
v 103.78 -6 -6.8
v 106.72 6 -8.5
v 103.78 -6 6.8
v 106.72 6 -8.5
v 106.72 6 8.5
v 103.78 -6 -6.8
v 92 -6 -13.6
v 92 6 -17
v 103.78 -6 -6.8
v 92 6 -17
v 106.72 6 -8.5
v 92 -6 -13.6
v 80.22 -6 -6.8
v 77.28 6 -8.5
v 92 -6 -13.6
v 77.28 6 -8.5
v 92 6 -17
v 80.22 -6 -6.8
v 80.22 -6 6.8
v 77.28 6 8.5
v 80.22 -6 -6.8
v 77.28 6 8.5
v 77.28 6 -8.5
v 80.22 -6 6.8
v 92 -6 13.6
v 92 6 17
v 80.22 -6 6.8
v 92 6 17
v 77.28 6 8.5
v 92 6 17
v 106.72 6 8.5
v 101.13 16 5.27
v 92 6 17
v 101.13 16 5.27
v 92 16 10.54
v 106.72 6 8.5
v 106.72 6 -8.5
v 101.13 16 -5.27
v 106.72 6 8.5
v 101.13 16 -5.27
v 101.13 16 5.27
v 106.72 6 -8.5
v 92 6 -17
v 92 16 -10.54
v 106.72 6 -8.5
v 92 16 -10.54
v 101.13 16 -5.27
v 92 6 -17
v 77.28 6 -8.5
v 82.87 16 -5.27
v 92 6 -17
v 82.87 16 -5.27
v 92 16 -10.54
v 77.28 6 -8.5
v 77.28 6 8.5
v 82.87 16 5.27
v 77.28 6 -8.5
v 82.87 16 5.27
v 82.87 16 -5.27
v 77.28 6 8.5
v 92 6 17
v 92 16 10.54
v 77.28 6 8.5
v 92 16 10.54
v 82.87 16 5.27
v 92 -6 0
v 103.78 -6 6.8
v 92 -6 13.6
v 92 -6 0
v 103.78 -6 -6.8
v 103.78 -6 6.8
v 92 -6 0
v 92 -6 -13.6
v 103.78 -6 -6.8
v 92 -6 0
v 80.22 -6 -6.8
v 92 -6 -13.6
v 92 -6 0
v 80.22 -6 6.8
v 80.22 -6 -6.8
v 92 -6 0
v 92 -6 13.6
v 80.22 -6 6.8
v 92 16 0
v 92 16 10.54
v 101.13 16 5.27
v 92 16 0
v 101.13 16 5.27
v 101.13 16 -5.27
v 92 16 0
v 101.13 16 -5.27
v 92 16 -10.54
v 92 16 0
v 92 16 -10.54
v 82.87 16 -5.27
v 92 16 0
v 82.87 16 -5.27
v 82.87 16 5.27
v 92 16 0
v 82.87 16 5.27
v 92 16 10.54
v -92 -6 13.6
v -80.22 -6 6.8
v -77.28 6 8.5
v -92 -6 13.6
v -77.28 6 8.5
v -92 6 17
v -80.22 -6 6.8
v -80.22 -6 -6.8
v -77.28 6 -8.5
v -80.22 -6 6.8
v -77.28 6 -8.5
v -77.28 6 8.5
v -80.22 -6 -6.8
v -92 -6 -13.6
v -92 6 -17
v -80.22 -6 -6.8
v -92 6 -17
v -77.28 6 -8.5
v -92 -6 -13.6
v -103.78 -6 -6.8
v -106.72 6 -8.5
v -92 -6 -13.6
v -106.72 6 -8.5
v -92 6 -17
v -103.78 -6 -6.8
v -103.78 -6 6.8
v -106.72 6 8.5
v -103.78 -6 -6.8
v -106.72 6 8.5
v -106.72 6 -8.5
v -103.78 -6 6.8
v -92 -6 13.6
v -92 6 17
v -103.78 -6 6.8
v -92 6 17
v -106.72 6 8.5
v -92 6 17
v -77.28 6 8.5
v -82.87 16 5.27
v -92 6 17
v -82.87 16 5.27
v -92 16 10.54
v -77.28 6 8.5
v -77.28 6 -8.5
v -82.87 16 -5.27
v -77.28 6 8.5
v -82.87 16 -5.27
v -82.87 16 5.27
v -77.28 6 -8.5
v -92 6 -17
v -92 16 -10.54
v -77.28 6 -8.5
v -92 16 -10.54
v -82.87 16 -5.27
v -92 6 -17
v -106.72 6 -8.5
v -101.13 16 -5.27
v -92 6 -17
v -101.13 16 -5.27
v -92 16 -10.54
v -106.72 6 -8.5
v -106.72 6 8.5
v -101.13 16 5.27
v -106.72 6 -8.5
v -101.13 16 5.27
v -101.13 16 -5.27
v -106.72 6 8.5
v -92 6 17
v -92 16 10.54
v -106.72 6 8.5
v -92 16 10.54
v -101.13 16 5.27
v -92 -6 0
v -80.22 -6 6.8
v -92 -6 13.6
v -92 -6 0
v -80.22 -6 -6.8
v -80.22 -6 6.8
v -92 -6 0
v -92 -6 -13.6
v -80.22 -6 -6.8
v -92 -6 0
v -103.78 -6 -6.8
v -92 -6 -13.6
v -92 -6 0
v -103.78 -6 6.8
v -103.78 -6 -6.8
v -92 -6 0
v -92 -6 13.6
v -103.78 -6 6.8
v -92 16 0
v -92 16 10.54
v -82.87 16 5.27
v -92 16 0
v -82.87 16 5.27
v -82.87 16 -5.27
v -92 16 0
v -82.87 16 -5.27
v -92 16 -10.54
v -92 16 0
v -92 16 -10.54
v -101.13 16 -5.27
v -92 16 0
v -101.13 16 -5.27
v -101.13 16 5.27
v -92 16 0
v -101.13 16 5.27
v -92 16 10.54
vn 0 -0.98 0.21
vn 0 -0.98 0.21
vn 0 -0.98 0.21
vn 0 -0.98 0.21
vn 0 -0.98 0.21
vn 0 -0.98 0.21
vn -0.18 -0.97 0.18
vn -0.18 -0.97 0.18
vn -0.18 -0.97 0.18
vn -0.18 -0.97 0.18
vn -0.18 -0.97 0.18
vn -0.18 -0.97 0.18
vn -0.67 -0.74 0
vn -0.67 -0.74 0
vn -0.67 -0.74 0
vn -0.67 -0.74 0
vn -0.67 -0.74 0
vn -0.67 -0.74 0
vn -0.34 -0.88 0.34
vn -0.34 -0.88 0.34
vn -0.34 -0.88 0.34
vn -0.34 -0.88 0.34
vn -0.34 -0.88 0.34
vn -0.34 -0.88 0.34
vn 0 -0.74 0.67
vn 0 -0.74 0.67
vn 0 -0.74 0.67
vn 0 -0.74 0.67
vn 0 -0.74 0.67
vn 0 -0.74 0.67
vn -0.18 -0.97 0.18
vn -0.18 -0.97 0.18
vn -0.18 -0.97 0.18
vn -0.18 -0.97 0.18
vn -0.18 -0.97 0.18
vn -0.18 -0.97 0.18
vn -0.21 -0.98 0
vn -0.21 -0.98 0
vn -0.21 -0.98 0
vn -0.21 -0.98 0
vn -0.21 -0.98 0
vn -0.21 -0.98 0
vn -0.18 -0.97 -0.18
vn -0.18 -0.97 -0.18
vn -0.18 -0.97 -0.18
vn -0.18 -0.97 -0.18
vn -0.18 -0.97 -0.18
vn -0.18 -0.97 -0.18
vn 0 -0.74 -0.67
vn 0 -0.74 -0.67
vn 0 -0.74 -0.67
vn 0 -0.74 -0.67
vn 0 -0.74 -0.67
vn 0 -0.74 -0.67
vn -0.34 -0.88 -0.34
vn -0.34 -0.88 -0.34
vn -0.34 -0.88 -0.34
vn -0.34 -0.88 -0.34
vn -0.34 -0.88 -0.34
vn -0.34 -0.88 -0.34
vn -0.67 -0.74 0
vn -0.67 -0.74 0
vn -0.67 -0.74 0
vn -0.67 -0.74 0
vn -0.67 -0.74 0
vn -0.67 -0.74 0
vn -0.18 -0.97 -0.18
vn -0.18 -0.97 -0.18
vn -0.18 -0.97 -0.18
vn -0.18 -0.97 -0.18
vn -0.18 -0.97 -0.18
vn -0.18 -0.97 -0.18
vn 0 -0.98 -0.21
vn 0 -0.98 -0.21
vn 0 -0.98 -0.21
vn 0 -0.98 -0.21
vn 0 -0.98 -0.21
vn 0 -0.98 -0.21
vn 0.18 -0.97 -0.18
vn 0.18 -0.97 -0.18
vn 0.18 -0.97 -0.18
vn 0.18 -0.97 -0.18
vn 0.18 -0.97 -0.18
vn 0.18 -0.97 -0.18
vn 0.67 -0.74 0
vn 0.67 -0.74 0
vn 0.67 -0.74 0
vn 0.67 -0.74 0
vn 0.67 -0.74 0
vn 0.67 -0.74 0
vn 0.34 -0.88 -0.34
vn 0.34 -0.88 -0.34
vn 0.34 -0.88 -0.34
vn 0.34 -0.88 -0.34
vn 0.34 -0.88 -0.34
vn 0.34 -0.88 -0.34
vn 0 -0.74 -0.67
vn 0 -0.74 -0.67
vn 0 -0.74 -0.67
vn 0 -0.74 -0.67
vn 0 -0.74 -0.67
vn 0 -0.74 -0.67
vn 0.18 -0.97 -0.18
vn 0.18 -0.97 -0.18
vn 0.18 -0.97 -0.18
vn 0.18 -0.97 -0.18
vn 0.18 -0.97 -0.18
vn 0.18 -0.97 -0.18
vn 0.21 -0.98 0
vn 0.21 -0.98 0
vn 0.21 -0.98 0
vn 0.21 -0.98 0
vn 0.21 -0.98 0
vn 0.21 -0.98 0
vn 0.18 -0.97 0.18
vn 0.18 -0.97 0.18
vn 0.18 -0.97 0.18
vn 0.18 -0.97 0.18
vn 0.18 -0.97 0.18
vn 0.18 -0.97 0.18
vn 0 -0.74 0.67
vn 0 -0.74 0.67
vn 0 -0.74 0.67
vn 0 -0.74 0.67
vn 0 -0.74 0.67
vn 0 -0.74 0.67
vn 0.34 -0.88 0.34
vn 0.34 -0.88 0.34
vn 0.34 -0.88 0.34
vn 0.34 -0.88 0.34
vn 0.34 -0.88 0.34
vn 0.34 -0.88 0.34
vn 0.67 -0.74 0
vn 0.67 -0.74 0
vn 0.67 -0.74 0
vn 0.67 -0.74 0
vn 0.67 -0.74 0
vn 0.67 -0.74 0
vn 0.18 -0.97 0.18
vn 0.18 -0.97 0.18
vn 0.18 -0.97 0.18
vn 0.18 -0.97 0.18
vn 0.18 -0.97 0.18
vn 0.18 -0.97 0.18
vn 0 -0.94 0.35
vn 0 -0.94 0.35
vn 0 -0.94 0.35
vn 0 -0.94 0.35
vn 0 -0.94 0.35
vn 0 -0.94 0.35
vn -0.3 -0.91 0.3
vn -0.3 -0.91 0.3
vn -0.3 -0.91 0.3
vn -0.3 -0.91 0.3
vn -0.3 -0.91 0.3
vn -0.3 -0.91 0.3
vn -0.85 -0.53 0
vn -0.85 -0.53 0
vn -0.85 -0.53 0
vn -0.85 -0.53 0
vn -0.85 -0.53 0
vn -0.85 -0.53 0
vn -0.5 -0.71 0.5
vn -0.5 -0.71 0.5
vn -0.5 -0.71 0.5
vn -0.5 -0.71 0.5
vn -0.5 -0.71 0.5
vn -0.5 -0.71 0.5
vn 0 -0.53 0.85
vn 0 -0.53 0.85
vn 0 -0.53 0.85
vn 0 -0.53 0.85
vn 0 -0.53 0.85
vn 0 -0.53 0.85
vn -0.3 -0.91 0.3
vn -0.3 -0.91 0.3
vn -0.3 -0.91 0.3
vn -0.3 -0.91 0.3
vn -0.3 -0.91 0.3
vn -0.3 -0.91 0.3
vn -0.35 -0.94 0
vn -0.35 -0.94 0
vn -0.35 -0.94 0
vn -0.35 -0.94 0
vn -0.35 -0.94 0
vn -0.35 -0.94 0
vn -0.3 -0.91 -0.3
vn -0.3 -0.91 -0.3
vn -0.3 -0.91 -0.3
vn -0.3 -0.91 -0.3
vn -0.3 -0.91 -0.3
vn -0.3 -0.91 -0.3
vn 0 -0.53 -0.85
vn 0 -0.53 -0.85
vn 0 -0.53 -0.85
vn 0 -0.53 -0.85
vn 0 -0.53 -0.85
vn 0 -0.53 -0.85
vn -0.5 -0.71 -0.5
vn -0.5 -0.71 -0.5
vn -0.5 -0.71 -0.5
vn -0.5 -0.71 -0.5
vn -0.5 -0.71 -0.5
vn -0.5 -0.71 -0.5
vn -0.85 -0.53 0
vn -0.85 -0.53 0
vn -0.85 -0.53 0
vn -0.85 -0.53 0
vn -0.85 -0.53 0
vn -0.85 -0.53 0
vn -0.3 -0.91 -0.3
vn -0.3 -0.91 -0.3
vn -0.3 -0.91 -0.3
vn -0.3 -0.91 -0.3
vn -0.3 -0.91 -0.3
vn -0.3 -0.91 -0.3
vn 0 -0.94 -0.35
vn 0 -0.94 -0.35
vn 0 -0.94 -0.35
vn 0 -0.94 -0.35
vn 0 -0.94 -0.35
vn 0 -0.94 -0.35
vn 0.3 -0.91 -0.3
vn 0.3 -0.91 -0.3
vn 0.3 -0.91 -0.3
vn 0.3 -0.91 -0.3
vn 0.3 -0.91 -0.3
vn 0.3 -0.91 -0.3
vn 0.85 -0.53 0
vn 0.85 -0.53 0
vn 0.85 -0.53 0
vn 0.85 -0.53 0
vn 0.85 -0.53 0
vn 0.85 -0.53 0
vn 0.5 -0.71 -0.5
vn 0.5 -0.71 -0.5
vn 0.5 -0.71 -0.5
vn 0.5 -0.71 -0.5
vn 0.5 -0.71 -0.5
vn 0.5 -0.71 -0.5
vn 0 -0.53 -0.85
vn 0 -0.53 -0.85
vn 0 -0.53 -0.85
vn 0 -0.53 -0.85
vn 0 -0.53 -0.85
vn 0 -0.53 -0.85
vn 0.3 -0.91 -0.3
vn 0.3 -0.91 -0.3
vn 0.3 -0.91 -0.3
vn 0.3 -0.91 -0.3
vn 0.3 -0.91 -0.3
vn 0.3 -0.91 -0.3
vn 0.35 -0.94 0
vn 0.35 -0.94 0
vn 0.35 -0.94 0
vn 0.35 -0.94 0
vn 0.35 -0.94 0
vn 0.35 -0.94 0
vn 0.3 -0.91 0.3
vn 0.3 -0.91 0.3
vn 0.3 -0.91 0.3
vn 0.3 -0.91 0.3
vn 0.3 -0.91 0.3
vn 0.3 -0.91 0.3
vn 0 -0.53 0.85
vn 0 -0.53 0.85
vn 0 -0.53 0.85
vn 0 -0.53 0.85
vn 0 -0.53 0.85
vn 0 -0.53 0.85
vn 0.5 -0.71 0.5
vn 0.5 -0.71 0.5
vn 0.5 -0.71 0.5
vn 0.5 -0.71 0.5
vn 0.5 -0.71 0.5
vn 0.5 -0.71 0.5
vn 0.85 -0.53 0
vn 0.85 -0.53 0
vn 0.85 -0.53 0
vn 0.85 -0.53 0
vn 0.85 -0.53 0
vn 0.85 -0.53 0
vn 0.3 -0.91 0.3
vn 0.3 -0.91 0.3
vn 0.3 -0.91 0.3
vn 0.3 -0.91 0.3
vn 0.3 -0.91 0.3
vn 0.3 -0.91 0.3
vn 0 0.88 0.48
vn 0 0.88 0.48
vn 0 0.88 0.48
vn 0 0.88 0.48
vn 0 0.88 0.48
vn 0 0.88 0.48
vn -0.39 0.83 0.39
vn -0.39 0.83 0.39
vn -0.39 0.83 0.39
vn -0.39 0.83 0.39
vn -0.39 0.83 0.39
vn -0.39 0.83 0.39
vn -0.92 0.4 0
vn -0.92 0.4 0
vn -0.92 0.4 0
vn -0.92 0.4 0
vn -0.92 0.4 0
vn -0.92 0.4 0
vn -0.58 0.58 0.58
vn -0.58 0.58 0.58
vn -0.58 0.58 0.58
vn -0.58 0.58 0.58
vn -0.58 0.58 0.58
vn -0.58 0.58 0.58
vn 0 0.4 0.92
vn 0 0.4 0.92
vn 0 0.4 0.92
vn 0 0.4 0.92
vn 0 0.4 0.92
vn 0 0.4 0.92
vn -0.39 0.83 0.39
vn -0.39 0.83 0.39
vn -0.39 0.83 0.39
vn -0.39 0.83 0.39
vn -0.39 0.83 0.39
vn -0.39 0.83 0.39
vn -0.48 0.88 0
vn -0.48 0.88 0
vn -0.48 0.88 0
vn -0.48 0.88 0
vn -0.48 0.88 0
vn -0.48 0.88 0
vn -0.39 0.83 -0.39
vn -0.39 0.83 -0.39
vn -0.39 0.83 -0.39
vn -0.39 0.83 -0.39
vn -0.39 0.83 -0.39
vn -0.39 0.83 -0.39
vn 0 0.4 -0.92
vn 0 0.4 -0.92
vn 0 0.4 -0.92
vn 0 0.4 -0.92
vn 0 0.4 -0.92
vn 0 0.4 -0.92
vn -0.58 0.58 -0.58
vn -0.58 0.58 -0.58
vn -0.58 0.58 -0.58
vn -0.58 0.58 -0.58
vn -0.58 0.58 -0.58
vn -0.58 0.58 -0.58
vn -0.92 0.4 0
vn -0.92 0.4 0
vn -0.92 0.4 0
vn -0.92 0.4 0
vn -0.92 0.4 0
vn -0.92 0.4 0
vn -0.39 0.83 -0.39
vn -0.39 0.83 -0.39
vn -0.39 0.83 -0.39
vn -0.39 0.83 -0.39
vn -0.39 0.83 -0.39
vn -0.39 0.83 -0.39
vn 0 0.88 -0.48
vn 0 0.88 -0.48
vn 0 0.88 -0.48
vn 0 0.88 -0.48
vn 0 0.88 -0.48
vn 0 0.88 -0.48
vn 0.39 0.83 -0.39
vn 0.39 0.83 -0.39
vn 0.39 0.83 -0.39
vn 0.39 0.83 -0.39
vn 0.39 0.83 -0.39
vn 0.39 0.83 -0.39
vn 0.92 0.4 0
vn 0.92 0.4 0
vn 0.92 0.4 0
vn 0.92 0.4 0
vn 0.92 0.4 0
vn 0.92 0.4 0
vn 0.58 0.58 -0.58
vn 0.58 0.58 -0.58
vn 0.58 0.58 -0.58
vn 0.58 0.58 -0.58
vn 0.58 0.58 -0.58
vn 0.58 0.58 -0.58
vn 0 0.4 -0.92
vn 0 0.4 -0.92
vn 0 0.4 -0.92
vn 0 0.4 -0.92
vn 0 0.4 -0.92
vn 0 0.4 -0.92
vn 0.39 0.83 -0.39
vn 0.39 0.83 -0.39
vn 0.39 0.83 -0.39
vn 0.39 0.83 -0.39
vn 0.39 0.83 -0.39
vn 0.39 0.83 -0.39
vn 0.48 0.88 0
vn 0.48 0.88 0
vn 0.48 0.88 0
vn 0.48 0.88 0
vn 0.48 0.88 0
vn 0.48 0.88 0
vn 0.39 0.83 0.39
vn 0.39 0.83 0.39
vn 0.39 0.83 0.39
vn 0.39 0.83 0.39
vn 0.39 0.83 0.39
vn 0.39 0.83 0.39
vn 0 0.4 0.92
vn 0 0.4 0.92
vn 0 0.4 0.92
vn 0 0.4 0.92
vn 0 0.4 0.92
vn 0 0.4 0.92
vn 0.58 0.58 0.58
vn 0.58 0.58 0.58
vn 0.58 0.58 0.58
vn 0.58 0.58 0.58
vn 0.58 0.58 0.58
vn 0.58 0.58 0.58
vn 0.92 0.4 0
vn 0.92 0.4 0
vn 0.92 0.4 0
vn 0.92 0.4 0
vn 0.92 0.4 0
vn 0.92 0.4 0
vn 0.39 0.83 0.39
vn 0.39 0.83 0.39
vn 0.39 0.83 0.39
vn 0.39 0.83 0.39
vn 0.39 0.83 0.39
vn 0.39 0.83 0.39
vn 0 0.96 0.26
vn 0 0.96 0.26
vn 0 0.96 0.26
vn 0 0.96 0.26
vn 0 0.96 0.26
vn 0 0.96 0.26
vn -0.22 0.95 0.22
vn -0.22 0.95 0.22
vn -0.22 0.95 0.22
vn -0.22 0.95 0.22
vn -0.22 0.95 0.22
vn -0.22 0.95 0.22
vn -0.76 0.65 0
vn -0.76 0.65 0
vn -0.76 0.65 0
vn -0.76 0.65 0
vn -0.76 0.65 0
vn -0.76 0.65 0
vn -0.41 0.82 0.41
vn -0.41 0.82 0.41
vn -0.41 0.82 0.41
vn -0.41 0.82 0.41
vn -0.41 0.82 0.41
vn -0.41 0.82 0.41
vn 0 0.65 0.76
vn 0 0.65 0.76
vn 0 0.65 0.76
vn 0 0.65 0.76
vn 0 0.65 0.76
vn 0 0.65 0.76
vn -0.22 0.95 0.22
vn -0.22 0.95 0.22
vn -0.22 0.95 0.22
vn -0.22 0.95 0.22
vn -0.22 0.95 0.22
vn -0.22 0.95 0.22
vn -0.26 0.96 0
vn -0.26 0.96 0
vn -0.26 0.96 0
vn -0.26 0.96 0
vn -0.26 0.96 0
vn -0.26 0.96 0
vn -0.22 0.95 -0.22
vn -0.22 0.95 -0.22
vn -0.22 0.95 -0.22
vn -0.22 0.95 -0.22
vn -0.22 0.95 -0.22
vn -0.22 0.95 -0.22
vn 0 0.65 -0.76
vn 0 0.65 -0.76
vn 0 0.65 -0.76
vn 0 0.65 -0.76
vn 0 0.65 -0.76
vn 0 0.65 -0.76
vn -0.41 0.82 -0.41
vn -0.41 0.82 -0.41
vn -0.41 0.82 -0.41
vn -0.41 0.82 -0.41
vn -0.41 0.82 -0.41
vn -0.41 0.82 -0.41
vn -0.76 0.65 0
vn -0.76 0.65 0
vn -0.76 0.65 0
vn -0.76 0.65 0
vn -0.76 0.65 0
vn -0.76 0.65 0
vn -0.22 0.95 -0.22
vn -0.22 0.95 -0.22
vn -0.22 0.95 -0.22
vn -0.22 0.95 -0.22
vn -0.22 0.95 -0.22
vn -0.22 0.95 -0.22
vn 0 0.96 -0.26
vn 0 0.96 -0.26
vn 0 0.96 -0.26
vn 0 0.96 -0.26
vn 0 0.96 -0.26
vn 0 0.96 -0.26
vn 0.22 0.95 -0.22
vn 0.22 0.95 -0.22
vn 0.22 0.95 -0.22
vn 0.22 0.95 -0.22
vn 0.22 0.95 -0.22
vn 0.22 0.95 -0.22
vn 0.76 0.65 0
vn 0.76 0.65 0
vn 0.76 0.65 0
vn 0.76 0.65 0
vn 0.76 0.65 0
vn 0.76 0.65 0
vn 0.41 0.82 -0.41
vn 0.41 0.82 -0.41
vn 0.41 0.82 -0.41
vn 0.41 0.82 -0.41
vn 0.41 0.82 -0.41
vn 0.41 0.82 -0.41
vn 0 0.65 -0.76
vn 0 0.65 -0.76
vn 0 0.65 -0.76
vn 0 0.65 -0.76
vn 0 0.65 -0.76
vn 0 0.65 -0.76
vn 0.22 0.95 -0.22
vn 0.22 0.95 -0.22
vn 0.22 0.95 -0.22
vn 0.22 0.95 -0.22
vn 0.22 0.95 -0.22
vn 0.22 0.95 -0.22
vn 0.26 0.96 0
vn 0.26 0.96 0
vn 0.26 0.96 0
vn 0.26 0.96 0
vn 0.26 0.96 0
vn 0.26 0.96 0
vn 0.22 0.95 0.22
vn 0.22 0.95 0.22
vn 0.22 0.95 0.22
vn 0.22 0.95 0.22
vn 0.22 0.95 0.22
vn 0.22 0.95 0.22
vn 0 0.65 0.76
vn 0 0.65 0.76
vn 0 0.65 0.76
vn 0 0.65 0.76
vn 0 0.65 0.76
vn 0 0.65 0.76
vn 0.41 0.82 0.41
vn 0.41 0.82 0.41
vn 0.41 0.82 0.41
vn 0.41 0.82 0.41
vn 0.41 0.82 0.41
vn 0.41 0.82 0.41
vn 0.76 0.65 0
vn 0.76 0.65 0
vn 0.76 0.65 0
vn 0.76 0.65 0
vn 0.76 0.65 0
vn 0.76 0.65 0
vn 0.22 0.95 0.22
vn 0.22 0.95 0.22
vn 0.22 0.95 0.22
vn 0.22 0.95 0.22
vn 0.22 0.95 0.22
vn 0.22 0.95 0.22
vn 0 -1 0
vn 0 -1 0
vn 0 -1 0
vn 0 -1 0
vn 0 -1 0
vn 0 -1 0
vn 0 -1 0
vn 0 -1 0
vn 0 -1 0
vn 0 -1 0
vn 0 -1 0
vn 0 -1 0
vn 0 -1 0
vn 0 -1 0
vn 0 -1 0
vn 0 -1 0
vn 0 -1 0
vn 0 -1 0
vn 0 -1 0
vn 0 -1 0
vn 0 -1 0
vn 0 -1 0
vn 0 -1 0
vn 0 -1 0
vn 0 -1 0
vn 0 -1 0
vn 0 -1 0
vn 0 -1 0
vn 0 -1 0
vn 0 -1 0
vn 0 -1 0
vn 0 -1 0
vn 0 -1 0
vn 0 -1 0
vn 0 -1 0
vn 0 -1 0
vn 0 -1 0
vn 0 -1 0
vn 0 -1 0
vn 0 -1 0
vn 0 -1 0
vn 0 -1 0
vn 0 -1 0
vn 0 -1 0
vn 0 -1 0
vn 0 -1 0
vn 0 -1 0
vn 0 -1 0
vn 0 -1 0
vn 0 -1 0
vn 0 -1 0
vn 0 -1 0
vn 0 -1 0
vn 0 -1 0
vn 0 -1 0
vn 0 -1 0
vn 0 -1 0
vn 0 -1 0
vn 0 -1 0
vn 0 -1 0
vn 0 -1 0
vn 0 -1 0
vn 0 -1 0
vn 0 -1 0
vn 0 -1 0
vn 0 -1 0
vn 0 -1 0
vn 0 -1 0
vn 0 -1 0
vn 0 -1 0
vn 0 -1 0
vn 0 -1 0
vn 0 1 0
vn 0 1 0
vn 0 1 0
vn 0 1 0
vn 0 1 0
vn 0 1 0
vn 0 1 0
vn 0 1 0
vn 0 1 0
vn 0 1 0
vn 0 1 0
vn 0 1 0
vn 0 1 0
vn 0 1 0
vn 0 1 0
vn 0 1 0
vn 0 1 0
vn 0 1 0
vn 0 1 0
vn 0 1 0
vn 0 1 0
vn 0 1 0
vn 0 1 0
vn 0 1 0
vn 0 1 0
vn 0 1 0
vn 0 1 0
vn 0 1 0
vn 0 1 0
vn 0 1 0
vn 0 1 0
vn 0 1 0
vn 0 1 0
vn 0 1 0
vn 0 1 0
vn 0 1 0
vn 0 1 0
vn 0 1 0
vn 0 1 0
vn 0 1 0
vn 0 1 0
vn 0 1 0
vn 0 1 0
vn 0 1 0
vn 0 1 0
vn 0 1 0
vn 0 1 0
vn 0 1 0
vn 0 1 0
vn 0 1 0
vn 0 1 0
vn 0 1 0
vn 0 1 0
vn 0 1 0
vn 0 1 0
vn 0 1 0
vn 0 1 0
vn 0 1 0
vn 0 1 0
vn 0 1 0
vn 0 1 0
vn 0 1 0
vn 0 1 0
vn 0 1 0
vn 0 1 0
vn 0 1 0
vn 0 1 0
vn 0 1 0
vn 0 1 0
vn 0 1 0
vn 0 1 0
vn 0 1 0
vn 0.35 0.43 0.83
vn 0.35 0.43 0.83
vn 0.35 0.43 0.83
vn 0.35 0.43 0.83
vn 0.35 0.43 0.83
vn 0.35 0.43 0.83
vn 0.83 0.43 0.35
vn 0.83 0.43 0.35
vn 0.83 0.43 0.35
vn 0.83 0.43 0.35
vn 0.83 0.43 0.35
vn 0.83 0.43 0.35
vn 0.83 0.43 -0.35
vn 0.83 0.43 -0.35
vn 0.83 0.43 -0.35
vn 0.83 0.43 -0.35
vn 0.83 0.43 -0.35
vn 0.83 0.43 -0.35
vn 0.35 0.43 -0.83
vn 0.35 0.43 -0.83
vn 0.35 0.43 -0.83
vn 0.35 0.43 -0.83
vn 0.35 0.43 -0.83
vn 0.35 0.43 -0.83
vn -0.35 0.43 -0.83
vn -0.35 0.43 -0.83
vn -0.35 0.43 -0.83
vn -0.35 0.43 -0.83
vn -0.35 0.43 -0.83
vn -0.35 0.43 -0.83
vn -0.83 0.43 -0.35
vn -0.83 0.43 -0.35
vn -0.83 0.43 -0.35
vn -0.83 0.43 -0.35
vn -0.83 0.43 -0.35
vn -0.83 0.43 -0.35
vn -0.83 0.43 0.35
vn -0.83 0.43 0.35
vn -0.83 0.43 0.35
vn -0.83 0.43 0.35
vn -0.83 0.43 0.35
vn -0.83 0.43 0.35
vn -0.35 0.43 0.83
vn -0.35 0.43 0.83
vn -0.35 0.43 0.83
vn -0.35 0.43 0.83
vn -0.35 0.43 0.83
vn -0.35 0.43 0.83
vn 0.32 0.56 0.76
vn 0.32 0.56 0.76
vn 0.32 0.56 0.76
vn 0.32 0.56 0.76
vn 0.32 0.56 0.76
vn 0.32 0.56 0.76
vn 0.76 0.56 0.32
vn 0.76 0.56 0.32
vn 0.76 0.56 0.32
vn 0.76 0.56 0.32
vn 0.76 0.56 0.32
vn 0.76 0.56 0.32
vn 0.76 0.56 -0.32
vn 0.76 0.56 -0.32
vn 0.76 0.56 -0.32
vn 0.76 0.56 -0.32
vn 0.76 0.56 -0.32
vn 0.76 0.56 -0.32
vn 0.32 0.56 -0.76
vn 0.32 0.56 -0.76
vn 0.32 0.56 -0.76
vn 0.32 0.56 -0.76
vn 0.32 0.56 -0.76
vn 0.32 0.56 -0.76
vn -0.32 0.56 -0.76
vn -0.32 0.56 -0.76
vn -0.32 0.56 -0.76
vn -0.32 0.56 -0.76
vn -0.32 0.56 -0.76
vn -0.32 0.56 -0.76
vn -0.76 0.56 -0.32
vn -0.76 0.56 -0.32
vn -0.76 0.56 -0.32
vn -0.76 0.56 -0.32
vn -0.76 0.56 -0.32
vn -0.76 0.56 -0.32
vn -0.76 0.56 0.32
vn -0.76 0.56 0.32
vn -0.76 0.56 0.32
vn -0.76 0.56 0.32
vn -0.76 0.56 0.32
vn -0.76 0.56 0.32
vn -0.32 0.56 0.76
vn -0.32 0.56 0.76
vn -0.32 0.56 0.76
vn -0.32 0.56 0.76
vn -0.32 0.56 0.76
vn -0.32 0.56 0.76
vn 0.23 0.8 0.56
vn 0.23 0.8 0.56
vn 0.23 0.8 0.56
vn 0.23 0.8 0.56
vn 0.23 0.8 0.56
vn 0.23 0.8 0.56
vn 0.56 0.8 0.23
vn 0.56 0.8 0.23
vn 0.56 0.8 0.23
vn 0.56 0.8 0.23
vn 0.56 0.8 0.23
vn 0.56 0.8 0.23
vn 0.56 0.8 -0.23
vn 0.56 0.8 -0.23
vn 0.56 0.8 -0.23
vn 0.56 0.8 -0.23
vn 0.56 0.8 -0.23
vn 0.56 0.8 -0.23
vn 0.23 0.8 -0.56
vn 0.23 0.8 -0.56
vn 0.23 0.8 -0.56
vn 0.23 0.8 -0.56
vn 0.23 0.8 -0.56
vn 0.23 0.8 -0.56
vn -0.23 0.8 -0.56
vn -0.23 0.8 -0.56
vn -0.23 0.8 -0.56
vn -0.23 0.8 -0.56
vn -0.23 0.8 -0.56
vn -0.23 0.8 -0.56
vn -0.56 0.8 -0.23
vn -0.56 0.8 -0.23
vn -0.56 0.8 -0.23
vn -0.56 0.8 -0.23
vn -0.56 0.8 -0.23
vn -0.56 0.8 -0.23
vn -0.56 0.8 0.23
vn -0.56 0.8 0.23
vn -0.56 0.8 0.23
vn -0.56 0.8 0.23
vn -0.56 0.8 0.23
vn -0.56 0.8 0.23
vn -0.23 0.8 0.56
vn -0.23 0.8 0.56
vn -0.23 0.8 0.56
vn -0.23 0.8 0.56
vn -0.23 0.8 0.56
vn -0.23 0.8 0.56
vn 0 1 0
vn 0 1 0
vn 0 1 0
vn 0 1 0
vn 0 1 0
vn 0 1 0
vn 0 1 0
vn 0 1 0
vn 0 1 0
vn 0 1 0
vn 0 1 0
vn 0 1 0
vn 0 1 0
vn 0 1 0
vn 0 1 0
vn 0 1 0
vn 0 1 0
vn 0 1 0
vn 0 1 0
vn 0 1 0
vn 0 1 0
vn 0 1 0
vn 0 1 0
vn 0 1 0
vn 0.49 0.21 0.85
vn 0.49 0.21 0.85
vn 0.49 0.21 0.85
vn 0.49 0.21 0.85
vn 0.49 0.21 0.85
vn 0.49 0.21 0.85
vn 0.98 0.21 0
vn 0.98 0.21 0
vn 0.98 0.21 0
vn 0.98 0.21 0
vn 0.98 0.21 0
vn 0.98 0.21 0
vn 0.49 0.21 -0.85
vn 0.49 0.21 -0.85
vn 0.49 0.21 -0.85
vn 0.49 0.21 -0.85
vn 0.49 0.21 -0.85
vn 0.49 0.21 -0.85
vn -0.49 0.21 -0.85
vn -0.49 0.21 -0.85
vn -0.49 0.21 -0.85
vn -0.49 0.21 -0.85
vn -0.49 0.21 -0.85
vn -0.49 0.21 -0.85
vn -0.98 0.21 0
vn -0.98 0.21 0
vn -0.98 0.21 0
vn -0.98 0.21 0
vn -0.98 0.21 0
vn -0.98 0.21 0
vn -0.49 0.21 0.85
vn -0.49 0.21 0.85
vn -0.49 0.21 0.85
vn -0.49 0.21 0.85
vn -0.49 0.21 0.85
vn -0.49 0.21 0.85
vn 0.44 0.48 0.76
vn 0.44 0.48 0.76
vn 0.44 0.48 0.76
vn 0.44 0.48 0.76
vn 0.44 0.48 0.76
vn 0.44 0.48 0.76
vn 0.87 0.48 0
vn 0.87 0.48 0
vn 0.87 0.48 0
vn 0.87 0.48 0
vn 0.87 0.48 0
vn 0.87 0.48 0
vn 0.44 0.48 -0.76
vn 0.44 0.48 -0.76
vn 0.44 0.48 -0.76
vn 0.44 0.48 -0.76
vn 0.44 0.48 -0.76
vn 0.44 0.48 -0.76
vn -0.44 0.48 -0.76
vn -0.44 0.48 -0.76
vn -0.44 0.48 -0.76
vn -0.44 0.48 -0.76
vn -0.44 0.48 -0.76
vn -0.44 0.48 -0.76
vn -0.87 0.48 0
vn -0.87 0.48 0
vn -0.87 0.48 0
vn -0.87 0.48 0
vn -0.87 0.48 0
vn -0.87 0.48 0
vn -0.44 0.48 0.76
vn -0.44 0.48 0.76
vn -0.44 0.48 0.76
vn -0.44 0.48 0.76
vn -0.44 0.48 0.76
vn -0.44 0.48 0.76
vn 0 1 0
vn 0 1 0
vn 0 1 0
vn 0 1 0
vn 0 1 0
vn 0 1 0
vn 0 1 0
vn 0 1 0
vn 0 1 0
vn 0 1 0
vn 0 1 0
vn 0 1 0
vn 0 1 0
vn 0 1 0
vn 0 1 0
vn 0 1 0
vn 0 1 0
vn 0 1 0
vn 0.49 0.21 0.85
vn 0.49 0.21 0.85
vn 0.49 0.21 0.85
vn 0.49 0.21 0.85
vn 0.49 0.21 0.85
vn 0.49 0.21 0.85
vn 0.98 0.21 0
vn 0.98 0.21 0
vn 0.98 0.21 0
vn 0.98 0.21 0
vn 0.98 0.21 0
vn 0.98 0.21 0
vn 0.49 0.21 -0.85
vn 0.49 0.21 -0.85
vn 0.49 0.21 -0.85
vn 0.49 0.21 -0.85
vn 0.49 0.21 -0.85
vn 0.49 0.21 -0.85
vn -0.49 0.21 -0.85
vn -0.49 0.21 -0.85
vn -0.49 0.21 -0.85
vn -0.49 0.21 -0.85
vn -0.49 0.21 -0.85
vn -0.49 0.21 -0.85
vn -0.98 0.21 0
vn -0.98 0.21 0
vn -0.98 0.21 0
vn -0.98 0.21 0
vn -0.98 0.21 0
vn -0.98 0.21 0
vn -0.49 0.21 0.85
vn -0.49 0.21 0.85
vn -0.49 0.21 0.85
vn -0.49 0.21 0.85
vn -0.49 0.21 0.85
vn -0.49 0.21 0.85
vn 0.44 0.48 0.76
vn 0.44 0.48 0.76
vn 0.44 0.48 0.76
vn 0.44 0.48 0.76
vn 0.44 0.48 0.76
vn 0.44 0.48 0.76
vn 0.87 0.48 0
vn 0.87 0.48 0
vn 0.87 0.48 0
vn 0.87 0.48 0
vn 0.87 0.48 0
vn 0.87 0.48 0
vn 0.44 0.48 -0.76
vn 0.44 0.48 -0.76
vn 0.44 0.48 -0.76
vn 0.44 0.48 -0.76
vn 0.44 0.48 -0.76
vn 0.44 0.48 -0.76
vn -0.44 0.48 -0.76
vn -0.44 0.48 -0.76
vn -0.44 0.48 -0.76
vn -0.44 0.48 -0.76
vn -0.44 0.48 -0.76
vn -0.44 0.48 -0.76
vn -0.87 0.48 0
vn -0.87 0.48 0
vn -0.87 0.48 0
vn -0.87 0.48 0
vn -0.87 0.48 0
vn -0.87 0.48 0
vn -0.44 0.48 0.76
vn -0.44 0.48 0.76
vn -0.44 0.48 0.76
vn -0.44 0.48 0.76
vn -0.44 0.48 0.76
vn -0.44 0.48 0.76
vn 0 1 0
vn 0 1 0
vn 0 1 0
vn 0 1 0
vn 0 1 0
vn 0 1 0
vn 0 1 0
vn 0 1 0
vn 0 1 0
vn 0 1 0
vn 0 1 0
vn 0 1 0
vn 0 1 0
vn 0 1 0
vn 0 1 0
vn 0 1 0
vn 0 1 0
vn 0 1 0
vn 0.49 -0.24 0.84
vn 0.49 -0.24 0.84
vn 0.49 -0.24 0.84
vn 0.49 -0.24 0.84
vn 0.49 -0.24 0.84
vn 0.49 -0.24 0.84
vn 0.97 -0.24 0
vn 0.97 -0.24 0
vn 0.97 -0.24 0
vn 0.97 -0.24 0
vn 0.97 -0.24 0
vn 0.97 -0.24 0
vn 0.49 -0.24 -0.84
vn 0.49 -0.24 -0.84
vn 0.49 -0.24 -0.84
vn 0.49 -0.24 -0.84
vn 0.49 -0.24 -0.84
vn 0.49 -0.24 -0.84
vn -0.49 -0.24 -0.84
vn -0.49 -0.24 -0.84
vn -0.49 -0.24 -0.84
vn -0.49 -0.24 -0.84
vn -0.49 -0.24 -0.84
vn -0.49 -0.24 -0.84
vn -0.97 -0.24 0
vn -0.97 -0.24 0
vn -0.97 -0.24 0
vn -0.97 -0.24 0
vn -0.97 -0.24 0
vn -0.97 -0.24 0
vn -0.49 -0.24 0.84
vn -0.49 -0.24 0.84
vn -0.49 -0.24 0.84
vn -0.49 -0.24 0.84
vn -0.49 -0.24 0.84
vn -0.49 -0.24 0.84
vn 0.44 0.49 0.76
vn 0.44 0.49 0.76
vn 0.44 0.49 0.76
vn 0.44 0.49 0.76
vn 0.44 0.49 0.76
vn 0.44 0.49 0.76
vn 0.87 0.49 0
vn 0.87 0.49 0
vn 0.87 0.49 0
vn 0.87 0.49 0
vn 0.87 0.49 0
vn 0.87 0.49 0
vn 0.44 0.49 -0.76
vn 0.44 0.49 -0.76
vn 0.44 0.49 -0.76
vn 0.44 0.49 -0.76
vn 0.44 0.49 -0.76
vn 0.44 0.49 -0.76
vn -0.44 0.49 -0.76
vn -0.44 0.49 -0.76
vn -0.44 0.49 -0.76
vn -0.44 0.49 -0.76
vn -0.44 0.49 -0.76
vn -0.44 0.49 -0.76
vn -0.87 0.49 0
vn -0.87 0.49 0
vn -0.87 0.49 0
vn -0.87 0.49 0
vn -0.87 0.49 0
vn -0.87 0.49 0
vn -0.44 0.49 0.76
vn -0.44 0.49 0.76
vn -0.44 0.49 0.76
vn -0.44 0.49 0.76
vn -0.44 0.49 0.76
vn -0.44 0.49 0.76
vn 0 -1 0
vn 0 -1 0
vn 0 -1 0
vn 0 -1 0
vn 0 -1 0
vn 0 -1 0
vn 0 -1 0
vn 0 -1 0
vn 0 -1 0
vn 0 -1 0
vn 0 -1 0
vn 0 -1 0
vn 0 -1 0
vn 0 -1 0
vn 0 -1 0
vn 0 -1 0
vn 0 -1 0
vn 0 -1 0
vn 0 1 0
vn 0 1 0
vn 0 1 0
vn 0 1 0
vn 0 1 0
vn 0 1 0
vn 0 1 0
vn 0 1 0
vn 0 1 0
vn 0 1 0
vn 0 1 0
vn 0 1 0
vn 0 1 0
vn 0 1 0
vn 0 1 0
vn 0 1 0
vn 0 1 0
vn 0 1 0
vn 0.49 -0.24 0.84
vn 0.49 -0.24 0.84
vn 0.49 -0.24 0.84
vn 0.49 -0.24 0.84
vn 0.49 -0.24 0.84
vn 0.49 -0.24 0.84
vn 0.97 -0.24 0
vn 0.97 -0.24 0
vn 0.97 -0.24 0
vn 0.97 -0.24 0
vn 0.97 -0.24 0
vn 0.97 -0.24 0
vn 0.49 -0.24 -0.84
vn 0.49 -0.24 -0.84
vn 0.49 -0.24 -0.84
vn 0.49 -0.24 -0.84
vn 0.49 -0.24 -0.84
vn 0.49 -0.24 -0.84
vn -0.49 -0.24 -0.84
vn -0.49 -0.24 -0.84
vn -0.49 -0.24 -0.84
vn -0.49 -0.24 -0.84
vn -0.49 -0.24 -0.84
vn -0.49 -0.24 -0.84
vn -0.97 -0.24 0
vn -0.97 -0.24 0
vn -0.97 -0.24 0
vn -0.97 -0.24 0
vn -0.97 -0.24 0
vn -0.97 -0.24 0
vn -0.49 -0.24 0.84
vn -0.49 -0.24 0.84
vn -0.49 -0.24 0.84
vn -0.49 -0.24 0.84
vn -0.49 -0.24 0.84
vn -0.49 -0.24 0.84
vn 0.44 0.49 0.76
vn 0.44 0.49 0.76
vn 0.44 0.49 0.76
vn 0.44 0.49 0.76
vn 0.44 0.49 0.76
vn 0.44 0.49 0.76
vn 0.87 0.49 0
vn 0.87 0.49 0
vn 0.87 0.49 0
vn 0.87 0.49 0
vn 0.87 0.49 0
vn 0.87 0.49 0
vn 0.44 0.49 -0.76
vn 0.44 0.49 -0.76
vn 0.44 0.49 -0.76
vn 0.44 0.49 -0.76
vn 0.44 0.49 -0.76
vn 0.44 0.49 -0.76
vn -0.44 0.49 -0.76
vn -0.44 0.49 -0.76
vn -0.44 0.49 -0.76
vn -0.44 0.49 -0.76
vn -0.44 0.49 -0.76
vn -0.44 0.49 -0.76
vn -0.87 0.49 0
vn -0.87 0.49 0
vn -0.87 0.49 0
vn -0.87 0.49 0
vn -0.87 0.49 0
vn -0.87 0.49 0
vn -0.44 0.49 0.76
vn -0.44 0.49 0.76
vn -0.44 0.49 0.76
vn -0.44 0.49 0.76
vn -0.44 0.49 0.76
vn -0.44 0.49 0.76
vn 0 -1 0
vn 0 -1 0
vn 0 -1 0
vn 0 -1 0
vn 0 -1 0
vn 0 -1 0
vn 0 -1 0
vn 0 -1 0
vn 0 -1 0
vn 0 -1 0
vn 0 -1 0
vn 0 -1 0
vn 0 -1 0
vn 0 -1 0
vn 0 -1 0
vn 0 -1 0
vn 0 -1 0
vn 0 -1 0
vn 0 1 0
vn 0 1 0
vn 0 1 0
vn 0 1 0
vn 0 1 0
vn 0 1 0
vn 0 1 0
vn 0 1 0
vn 0 1 0
vn 0 1 0
vn 0 1 0
vn 0 1 0
vn 0 1 0
vn 0 1 0
vn 0 1 0
vn 0 1 0
vn 0 1 0
vn 0 1 0
vn 0.49 -0.24 0.84
vn 0.49 -0.24 0.84
vn 0.49 -0.24 0.84
vn 0.49 -0.24 0.84
vn 0.49 -0.24 0.84
vn 0.49 -0.24 0.84
vn 0.97 -0.24 0
vn 0.97 -0.24 0
vn 0.97 -0.24 0
vn 0.97 -0.24 0
vn 0.97 -0.24 0
vn 0.97 -0.24 0
vn 0.49 -0.24 -0.84
vn 0.49 -0.24 -0.84
vn 0.49 -0.24 -0.84
vn 0.49 -0.24 -0.84
vn 0.49 -0.24 -0.84
vn 0.49 -0.24 -0.84
vn -0.49 -0.24 -0.84
vn -0.49 -0.24 -0.84
vn -0.49 -0.24 -0.84
vn -0.49 -0.24 -0.84
vn -0.49 -0.24 -0.84
vn -0.49 -0.24 -0.84
vn -0.97 -0.24 0
vn -0.97 -0.24 0
vn -0.97 -0.24 0
vn -0.97 -0.24 0
vn -0.97 -0.24 0
vn -0.97 -0.24 0
vn -0.49 -0.24 0.84
vn -0.49 -0.24 0.84
vn -0.49 -0.24 0.84
vn -0.49 -0.24 0.84
vn -0.49 -0.24 0.84
vn -0.49 -0.24 0.84
vn 0.44 0.49 0.76
vn 0.44 0.49 0.76
vn 0.44 0.49 0.76
vn 0.44 0.49 0.76
vn 0.44 0.49 0.76
vn 0.44 0.49 0.76
vn 0.87 0.49 0
vn 0.87 0.49 0
vn 0.87 0.49 0
vn 0.87 0.49 0
vn 0.87 0.49 0
vn 0.87 0.49 0
vn 0.44 0.49 -0.76
vn 0.44 0.49 -0.76
vn 0.44 0.49 -0.76
vn 0.44 0.49 -0.76
vn 0.44 0.49 -0.76
vn 0.44 0.49 -0.76
vn -0.44 0.49 -0.76
vn -0.44 0.49 -0.76
vn -0.44 0.49 -0.76
vn -0.44 0.49 -0.76
vn -0.44 0.49 -0.76
vn -0.44 0.49 -0.76
vn -0.87 0.49 0
vn -0.87 0.49 0
vn -0.87 0.49 0
vn -0.87 0.49 0
vn -0.87 0.49 0
vn -0.87 0.49 0
vn -0.44 0.49 0.76
vn -0.44 0.49 0.76
vn -0.44 0.49 0.76
vn -0.44 0.49 0.76
vn -0.44 0.49 0.76
vn -0.44 0.49 0.76
vn 0 -1 0
vn 0 -1 0
vn 0 -1 0
vn 0 -1 0
vn 0 -1 0
vn 0 -1 0
vn 0 -1 0
vn 0 -1 0
vn 0 -1 0
vn 0 -1 0
vn 0 -1 0
vn 0 -1 0
vn 0 -1 0
vn 0 -1 0
vn 0 -1 0
vn 0 -1 0
vn 0 -1 0
vn 0 -1 0
vn 0 1 0
vn 0 1 0
vn 0 1 0
vn 0 1 0
vn 0 1 0
vn 0 1 0
vn 0 1 0
vn 0 1 0
vn 0 1 0
vn 0 1 0
vn 0 1 0
vn 0 1 0
vn 0 1 0
vn 0 1 0
vn 0 1 0
vn 0 1 0
vn 0 1 0
vn 0 1 0
vn 0.49 -0.24 0.84
vn 0.49 -0.24 0.84
vn 0.49 -0.24 0.84
vn 0.49 -0.24 0.84
vn 0.49 -0.24 0.84
vn 0.49 -0.24 0.84
vn 0.97 -0.24 0
vn 0.97 -0.24 0
vn 0.97 -0.24 0
vn 0.97 -0.24 0
vn 0.97 -0.24 0
vn 0.97 -0.24 0
vn 0.49 -0.24 -0.84
vn 0.49 -0.24 -0.84
vn 0.49 -0.24 -0.84
vn 0.49 -0.24 -0.84
vn 0.49 -0.24 -0.84
vn 0.49 -0.24 -0.84
vn -0.49 -0.24 -0.84
vn -0.49 -0.24 -0.84
vn -0.49 -0.24 -0.84
vn -0.49 -0.24 -0.84
vn -0.49 -0.24 -0.84
vn -0.49 -0.24 -0.84
vn -0.97 -0.24 0
vn -0.97 -0.24 0
vn -0.97 -0.24 0
vn -0.97 -0.24 0
vn -0.97 -0.24 0
vn -0.97 -0.24 0
vn -0.49 -0.24 0.84
vn -0.49 -0.24 0.84
vn -0.49 -0.24 0.84
vn -0.49 -0.24 0.84
vn -0.49 -0.24 0.84
vn -0.49 -0.24 0.84
vn 0.44 0.49 0.76
vn 0.44 0.49 0.76
vn 0.44 0.49 0.76
vn 0.44 0.49 0.76
vn 0.44 0.49 0.76
vn 0.44 0.49 0.76
vn 0.87 0.49 0
vn 0.87 0.49 0
vn 0.87 0.49 0
vn 0.87 0.49 0
vn 0.87 0.49 0
vn 0.87 0.49 0
vn 0.44 0.49 -0.76
vn 0.44 0.49 -0.76
vn 0.44 0.49 -0.76
vn 0.44 0.49 -0.76
vn 0.44 0.49 -0.76
vn 0.44 0.49 -0.76
vn -0.44 0.49 -0.76
vn -0.44 0.49 -0.76
vn -0.44 0.49 -0.76
vn -0.44 0.49 -0.76
vn -0.44 0.49 -0.76
vn -0.44 0.49 -0.76
vn -0.87 0.49 0
vn -0.87 0.49 0
vn -0.87 0.49 0
vn -0.87 0.49 0
vn -0.87 0.49 0
vn -0.87 0.49 0
vn -0.44 0.49 0.76
vn -0.44 0.49 0.76
vn -0.44 0.49 0.76
vn -0.44 0.49 0.76
vn -0.44 0.49 0.76
vn -0.44 0.49 0.76
vn 0 -1 0
vn 0 -1 0
vn 0 -1 0
vn 0 -1 0
vn 0 -1 0
vn 0 -1 0
vn 0 -1 0
vn 0 -1 0
vn 0 -1 0
vn 0 -1 0
vn 0 -1 0
vn 0 -1 0
vn 0 -1 0
vn 0 -1 0
vn 0 -1 0
vn 0 -1 0
vn 0 -1 0
vn 0 -1 0
vn 0 1 0
vn 0 1 0
vn 0 1 0
vn 0 1 0
vn 0 1 0
vn 0 1 0
vn 0 1 0
vn 0 1 0
vn 0 1 0
vn 0 1 0
vn 0 1 0
vn 0 1 0
vn 0 1 0
vn 0 1 0
vn 0 1 0
vn 0 1 0
vn 0 1 0
vn 0 1 0
vt 0 0
usemtl OC_Hull
s off
f 1/1/1 2/1/2 3/1/3
f 4/1/4 5/1/5 6/1/6
f 7/1/7 8/1/8 9/1/9
f 10/1/10 11/1/11 12/1/12
f 13/1/13 14/1/14 15/1/15
f 16/1/16 17/1/17 18/1/18
f 19/1/19 20/1/20 21/1/21
f 22/1/22 23/1/23 24/1/24
f 25/1/25 26/1/26 27/1/27
f 28/1/28 29/1/29 30/1/30
f 31/1/31 32/1/32 33/1/33
f 34/1/34 35/1/35 36/1/36
f 37/1/37 38/1/38 39/1/39
f 40/1/40 41/1/41 42/1/42
f 43/1/43 44/1/44 45/1/45
f 46/1/46 47/1/47 48/1/48
f 49/1/49 50/1/50 51/1/51
f 52/1/52 53/1/53 54/1/54
f 55/1/55 56/1/56 57/1/57
f 58/1/58 59/1/59 60/1/60
f 61/1/61 62/1/62 63/1/63
f 64/1/64 65/1/65 66/1/66
f 67/1/67 68/1/68 69/1/69
f 70/1/70 71/1/71 72/1/72
f 73/1/73 74/1/74 75/1/75
f 76/1/76 77/1/77 78/1/78
f 79/1/79 80/1/80 81/1/81
f 82/1/82 83/1/83 84/1/84
f 85/1/85 86/1/86 87/1/87
f 88/1/88 89/1/89 90/1/90
f 91/1/91 92/1/92 93/1/93
f 94/1/94 95/1/95 96/1/96
f 97/1/97 98/1/98 99/1/99
f 100/1/100 101/1/101 102/1/102
f 103/1/103 104/1/104 105/1/105
f 106/1/106 107/1/107 108/1/108
f 109/1/109 110/1/110 111/1/111
f 112/1/112 113/1/113 114/1/114
f 115/1/115 116/1/116 117/1/117
f 118/1/118 119/1/119 120/1/120
f 121/1/121 122/1/122 123/1/123
f 124/1/124 125/1/125 126/1/126
f 127/1/127 128/1/128 129/1/129
f 130/1/130 131/1/131 132/1/132
f 133/1/133 134/1/134 135/1/135
f 136/1/136 137/1/137 138/1/138
f 139/1/139 140/1/140 141/1/141
f 142/1/142 143/1/143 144/1/144
f 145/1/145 146/1/146 147/1/147
f 148/1/148 149/1/149 150/1/150
f 151/1/151 152/1/152 153/1/153
f 154/1/154 155/1/155 156/1/156
f 157/1/157 158/1/158 159/1/159
f 160/1/160 161/1/161 162/1/162
f 163/1/163 164/1/164 165/1/165
f 166/1/166 167/1/167 168/1/168
f 169/1/169 170/1/170 171/1/171
f 172/1/172 173/1/173 174/1/174
f 175/1/175 176/1/176 177/1/177
f 178/1/178 179/1/179 180/1/180
f 181/1/181 182/1/182 183/1/183
f 184/1/184 185/1/185 186/1/186
f 187/1/187 188/1/188 189/1/189
f 190/1/190 191/1/191 192/1/192
f 193/1/193 194/1/194 195/1/195
f 196/1/196 197/1/197 198/1/198
f 199/1/199 200/1/200 201/1/201
f 202/1/202 203/1/203 204/1/204
f 205/1/205 206/1/206 207/1/207
f 208/1/208 209/1/209 210/1/210
f 211/1/211 212/1/212 213/1/213
f 214/1/214 215/1/215 216/1/216
f 217/1/217 218/1/218 219/1/219
f 220/1/220 221/1/221 222/1/222
f 223/1/223 224/1/224 225/1/225
f 226/1/226 227/1/227 228/1/228
f 229/1/229 230/1/230 231/1/231
f 232/1/232 233/1/233 234/1/234
f 235/1/235 236/1/236 237/1/237
f 238/1/238 239/1/239 240/1/240
f 241/1/241 242/1/242 243/1/243
f 244/1/244 245/1/245 246/1/246
f 247/1/247 248/1/248 249/1/249
f 250/1/250 251/1/251 252/1/252
f 253/1/253 254/1/254 255/1/255
f 256/1/256 257/1/257 258/1/258
f 259/1/259 260/1/260 261/1/261
f 262/1/262 263/1/263 264/1/264
f 265/1/265 266/1/266 267/1/267
f 268/1/268 269/1/269 270/1/270
f 271/1/271 272/1/272 273/1/273
f 274/1/274 275/1/275 276/1/276
f 277/1/277 278/1/278 279/1/279
f 280/1/280 281/1/281 282/1/282
f 283/1/283 284/1/284 285/1/285
f 286/1/286 287/1/287 288/1/288
f 289/1/289 290/1/290 291/1/291
f 292/1/292 293/1/293 294/1/294
f 295/1/295 296/1/296 297/1/297
f 298/1/298 299/1/299 300/1/300
f 301/1/301 302/1/302 303/1/303
f 304/1/304 305/1/305 306/1/306
f 307/1/307 308/1/308 309/1/309
f 310/1/310 311/1/311 312/1/312
f 313/1/313 314/1/314 315/1/315
f 316/1/316 317/1/317 318/1/318
f 319/1/319 320/1/320 321/1/321
f 322/1/322 323/1/323 324/1/324
f 325/1/325 326/1/326 327/1/327
f 328/1/328 329/1/329 330/1/330
f 331/1/331 332/1/332 333/1/333
f 334/1/334 335/1/335 336/1/336
f 337/1/337 338/1/338 339/1/339
f 340/1/340 341/1/341 342/1/342
f 343/1/343 344/1/344 345/1/345
f 346/1/346 347/1/347 348/1/348
f 349/1/349 350/1/350 351/1/351
f 352/1/352 353/1/353 354/1/354
f 355/1/355 356/1/356 357/1/357
f 358/1/358 359/1/359 360/1/360
f 361/1/361 362/1/362 363/1/363
f 364/1/364 365/1/365 366/1/366
f 367/1/367 368/1/368 369/1/369
f 370/1/370 371/1/371 372/1/372
f 373/1/373 374/1/374 375/1/375
f 376/1/376 377/1/377 378/1/378
f 379/1/379 380/1/380 381/1/381
f 382/1/382 383/1/383 384/1/384
f 385/1/385 386/1/386 387/1/387
f 388/1/388 389/1/389 390/1/390
f 391/1/391 392/1/392 393/1/393
f 394/1/394 395/1/395 396/1/396
f 397/1/397 398/1/398 399/1/399
f 400/1/400 401/1/401 402/1/402
f 403/1/403 404/1/404 405/1/405
f 406/1/406 407/1/407 408/1/408
f 409/1/409 410/1/410 411/1/411
f 412/1/412 413/1/413 414/1/414
f 415/1/415 416/1/416 417/1/417
f 418/1/418 419/1/419 420/1/420
f 421/1/421 422/1/422 423/1/423
f 424/1/424 425/1/425 426/1/426
f 427/1/427 428/1/428 429/1/429
f 430/1/430 431/1/431 432/1/432
f 433/1/433 434/1/434 435/1/435
f 436/1/436 437/1/437 438/1/438
f 439/1/439 440/1/440 441/1/441
f 442/1/442 443/1/443 444/1/444
f 445/1/445 446/1/446 447/1/447
f 448/1/448 449/1/449 450/1/450
f 451/1/451 452/1/452 453/1/453
f 454/1/454 455/1/455 456/1/456
f 457/1/457 458/1/458 459/1/459
f 460/1/460 461/1/461 462/1/462
f 463/1/463 464/1/464 465/1/465
f 466/1/466 467/1/467 468/1/468
f 469/1/469 470/1/470 471/1/471
f 472/1/472 473/1/473 474/1/474
f 475/1/475 476/1/476 477/1/477
f 478/1/478 479/1/479 480/1/480
f 481/1/481 482/1/482 483/1/483
f 484/1/484 485/1/485 486/1/486
f 487/1/487 488/1/488 489/1/489
f 490/1/490 491/1/491 492/1/492
f 493/1/493 494/1/494 495/1/495
f 496/1/496 497/1/497 498/1/498
f 499/1/499 500/1/500 501/1/501
f 502/1/502 503/1/503 504/1/504
f 505/1/505 506/1/506 507/1/507
f 508/1/508 509/1/509 510/1/510
f 511/1/511 512/1/512 513/1/513
f 514/1/514 515/1/515 516/1/516
f 517/1/517 518/1/518 519/1/519
f 520/1/520 521/1/521 522/1/522
f 523/1/523 524/1/524 525/1/525
f 526/1/526 527/1/527 528/1/528
f 529/1/529 530/1/530 531/1/531
f 532/1/532 533/1/533 534/1/534
f 535/1/535 536/1/536 537/1/537
f 538/1/538 539/1/539 540/1/540
f 541/1/541 542/1/542 543/1/543
f 544/1/544 545/1/545 546/1/546
f 547/1/547 548/1/548 549/1/549
f 550/1/550 551/1/551 552/1/552
f 553/1/553 554/1/554 555/1/555
f 556/1/556 557/1/557 558/1/558
f 559/1/559 560/1/560 561/1/561
f 562/1/562 563/1/563 564/1/564
f 565/1/565 566/1/566 567/1/567
f 568/1/568 569/1/569 570/1/570
f 571/1/571 572/1/572 573/1/573
f 574/1/574 575/1/575 576/1/576
f 577/1/577 578/1/578 579/1/579
f 580/1/580 581/1/581 582/1/582
f 583/1/583 584/1/584 585/1/585
f 586/1/586 587/1/587 588/1/588
f 589/1/589 590/1/590 591/1/591
f 592/1/592 593/1/593 594/1/594
f 595/1/595 596/1/596 597/1/597
f 598/1/598 599/1/599 600/1/600
f 601/1/601 602/1/602 603/1/603
f 604/1/604 605/1/605 606/1/606
f 607/1/607 608/1/608 609/1/609
f 610/1/610 611/1/611 612/1/612
f 613/1/613 614/1/614 615/1/615
f 616/1/616 617/1/617 618/1/618
f 619/1/619 620/1/620 621/1/621
f 622/1/622 623/1/623 624/1/624
f 625/1/625 626/1/626 627/1/627
f 628/1/628 629/1/629 630/1/630
f 631/1/631 632/1/632 633/1/633
f 634/1/634 635/1/635 636/1/636
f 637/1/637 638/1/638 639/1/639
f 640/1/640 641/1/641 642/1/642
f 643/1/643 644/1/644 645/1/645
f 646/1/646 647/1/647 648/1/648
f 649/1/649 650/1/650 651/1/651
f 652/1/652 653/1/653 654/1/654
f 655/1/655 656/1/656 657/1/657
f 658/1/658 659/1/659 660/1/660
f 661/1/661 662/1/662 663/1/663
f 664/1/664 665/1/665 666/1/666
f 667/1/667 668/1/668 669/1/669
f 670/1/670 671/1/671 672/1/672
f 673/1/673 674/1/674 675/1/675
f 676/1/676 677/1/677 678/1/678
f 679/1/679 680/1/680 681/1/681
f 682/1/682 683/1/683 684/1/684
f 685/1/685 686/1/686 687/1/687
f 688/1/688 689/1/689 690/1/690
f 691/1/691 692/1/692 693/1/693
f 694/1/694 695/1/695 696/1/696
f 697/1/697 698/1/698 699/1/699
f 700/1/700 701/1/701 702/1/702
f 703/1/703 704/1/704 705/1/705
f 706/1/706 707/1/707 708/1/708
f 709/1/709 710/1/710 711/1/711
f 712/1/712 713/1/713 714/1/714
f 715/1/715 716/1/716 717/1/717
f 718/1/718 719/1/719 720/1/720
f 721/1/721 722/1/722 723/1/723
f 724/1/724 725/1/725 726/1/726
f 727/1/727 728/1/728 729/1/729
f 730/1/730 731/1/731 732/1/732
f 733/1/733 734/1/734 735/1/735
f 736/1/736 737/1/737 738/1/738
f 739/1/739 740/1/740 741/1/741
f 742/1/742 743/1/743 744/1/744
f 745/1/745 746/1/746 747/1/747
f 748/1/748 749/1/749 750/1/750
f 751/1/751 752/1/752 753/1/753
f 754/1/754 755/1/755 756/1/756
f 757/1/757 758/1/758 759/1/759
f 760/1/760 761/1/761 762/1/762
f 763/1/763 764/1/764 765/1/765
f 766/1/766 767/1/767 768/1/768
f 769/1/769 770/1/770 771/1/771
f 772/1/772 773/1/773 774/1/774
f 775/1/775 776/1/776 777/1/777
f 778/1/778 779/1/779 780/1/780
f 781/1/781 782/1/782 783/1/783
f 784/1/784 785/1/785 786/1/786
f 787/1/787 788/1/788 789/1/789
f 790/1/790 791/1/791 792/1/792
f 793/1/793 794/1/794 795/1/795
f 796/1/796 797/1/797 798/1/798
f 799/1/799 800/1/800 801/1/801
f 802/1/802 803/1/803 804/1/804
f 805/1/805 806/1/806 807/1/807
f 808/1/808 809/1/809 810/1/810
f 811/1/811 812/1/812 813/1/813
f 814/1/814 815/1/815 816/1/816
f 817/1/817 818/1/818 819/1/819
f 820/1/820 821/1/821 822/1/822
f 823/1/823 824/1/824 825/1/825
f 826/1/826 827/1/827 828/1/828
f 829/1/829 830/1/830 831/1/831
f 832/1/832 833/1/833 834/1/834
f 835/1/835 836/1/836 837/1/837
f 838/1/838 839/1/839 840/1/840
f 841/1/841 842/1/842 843/1/843
f 844/1/844 845/1/845 846/1/846
f 847/1/847 848/1/848 849/1/849
f 850/1/850 851/1/851 852/1/852
f 853/1/853 854/1/854 855/1/855
f 856/1/856 857/1/857 858/1/858
f 859/1/859 860/1/860 861/1/861
f 862/1/862 863/1/863 864/1/864
f 865/1/865 866/1/866 867/1/867
f 868/1/868 869/1/869 870/1/870
f 871/1/871 872/1/872 873/1/873
f 874/1/874 875/1/875 876/1/876
f 877/1/877 878/1/878 879/1/879
f 880/1/880 881/1/881 882/1/882
f 883/1/883 884/1/884 885/1/885
f 886/1/886 887/1/887 888/1/888
f 889/1/889 890/1/890 891/1/891
f 892/1/892 893/1/893 894/1/894
f 895/1/895 896/1/896 897/1/897
f 898/1/898 899/1/899 900/1/900
f 901/1/901 902/1/902 903/1/903
f 904/1/904 905/1/905 906/1/906
f 907/1/907 908/1/908 909/1/909
f 910/1/910 911/1/911 912/1/912
f 913/1/913 914/1/914 915/1/915
f 916/1/916 917/1/917 918/1/918
f 919/1/919 920/1/920 921/1/921
f 922/1/922 923/1/923 924/1/924
f 925/1/925 926/1/926 927/1/927
f 928/1/928 929/1/929 930/1/930
f 931/1/931 932/1/932 933/1/933
f 934/1/934 935/1/935 936/1/936
f 937/1/937 938/1/938 939/1/939
f 940/1/940 941/1/941 942/1/942
f 943/1/943 944/1/944 945/1/945
f 946/1/946 947/1/947 948/1/948
f 949/1/949 950/1/950 951/1/951
f 952/1/952 953/1/953 954/1/954
f 955/1/955 956/1/956 957/1/957
f 958/1/958 959/1/959 960/1/960
f 961/1/961 962/1/962 963/1/963
f 964/1/964 965/1/965 966/1/966
f 967/1/967 968/1/968 969/1/969
f 970/1/970 971/1/971 972/1/972
f 973/1/973 974/1/974 975/1/975
f 976/1/976 977/1/977 978/1/978
f 979/1/979 980/1/980 981/1/981
f 982/1/982 983/1/983 984/1/984
f 985/1/985 986/1/986 987/1/987
f 988/1/988 989/1/989 990/1/990
f 991/1/991 992/1/992 993/1/993
f 994/1/994 995/1/995 996/1/996
f 997/1/997 998/1/998 999/1/999
f 1000/1/1000 1001/1/1001 1002/1/1002
f 1003/1/1003 1004/1/1004 1005/1/1005
f 1006/1/1006 1007/1/1007 1008/1/1008
f 1009/1/1009 1010/1/1010 1011/1/1011
f 1012/1/1012 1013/1/1013 1014/1/1014
f 1015/1/1015 1016/1/1016 1017/1/1017
f 1018/1/1018 1019/1/1019 1020/1/1020
f 1021/1/1021 1022/1/1022 1023/1/1023
f 1024/1/1024 1025/1/1025 1026/1/1026
f 1027/1/1027 1028/1/1028 1029/1/1029
f 1030/1/1030 1031/1/1031 1032/1/1032
f 1033/1/1033 1034/1/1034 1035/1/1035
f 1036/1/1036 1037/1/1037 1038/1/1038
f 1039/1/1039 1040/1/1040 1041/1/1041
f 1042/1/1042 1043/1/1043 1044/1/1044
f 1045/1/1045 1046/1/1046 1047/1/1047
f 1048/1/1048 1049/1/1049 1050/1/1050
f 1051/1/1051 1052/1/1052 1053/1/1053
f 1054/1/1054 1055/1/1055 1056/1/1056
f 1057/1/1057 1058/1/1058 1059/1/1059
f 1060/1/1060 1061/1/1061 1062/1/1062
f 1063/1/1063 1064/1/1064 1065/1/1065
f 1066/1/1066 1067/1/1067 1068/1/1068
f 1069/1/1069 1070/1/1070 1071/1/1071
f 1072/1/1072 1073/1/1073 1074/1/1074
f 1075/1/1075 1076/1/1076 1077/1/1077
f 1078/1/1078 1079/1/1079 1080/1/1080
f 1081/1/1081 1082/1/1082 1083/1/1083
f 1084/1/1084 1085/1/1085 1086/1/1086
f 1087/1/1087 1088/1/1088 1089/1/1089
f 1090/1/1090 1091/1/1091 1092/1/1092
f 1093/1/1093 1094/1/1094 1095/1/1095
f 1096/1/1096 1097/1/1097 1098/1/1098
f 1099/1/1099 1100/1/1100 1101/1/1101
f 1102/1/1102 1103/1/1103 1104/1/1104
f 1105/1/1105 1106/1/1106 1107/1/1107
f 1108/1/1108 1109/1/1109 1110/1/1110
f 1111/1/1111 1112/1/1112 1113/1/1113
f 1114/1/1114 1115/1/1115 1116/1/1116
f 1117/1/1117 1118/1/1118 1119/1/1119
f 1120/1/1120 1121/1/1121 1122/1/1122
f 1123/1/1123 1124/1/1124 1125/1/1125
f 1126/1/1126 1127/1/1127 1128/1/1128
f 1129/1/1129 1130/1/1130 1131/1/1131
f 1132/1/1132 1133/1/1133 1134/1/1134
f 1135/1/1135 1136/1/1136 1137/1/1137
f 1138/1/1138 1139/1/1139 1140/1/1140
f 1141/1/1141 1142/1/1142 1143/1/1143
f 1144/1/1144 1145/1/1145 1146/1/1146
f 1147/1/1147 1148/1/1148 1149/1/1149
f 1150/1/1150 1151/1/1151 1152/1/1152
f 1153/1/1153 1154/1/1154 1155/1/1155
f 1156/1/1156 1157/1/1157 1158/1/1158
f 1159/1/1159 1160/1/1160 1161/1/1161
f 1162/1/1162 1163/1/1163 1164/1/1164
f 1165/1/1165 1166/1/1166 1167/1/1167
f 1168/1/1168 1169/1/1169 1170/1/1170
f 1171/1/1171 1172/1/1172 1173/1/1173
f 1174/1/1174 1175/1/1175 1176/1/1176
f 1177/1/1177 1178/1/1178 1179/1/1179
f 1180/1/1180 1181/1/1181 1182/1/1182
f 1183/1/1183 1184/1/1184 1185/1/1185
f 1186/1/1186 1187/1/1187 1188/1/1188
f 1189/1/1189 1190/1/1190 1191/1/1191
f 1192/1/1192 1193/1/1193 1194/1/1194
f 1195/1/1195 1196/1/1196 1197/1/1197
f 1198/1/1198 1199/1/1199 1200/1/1200
f 1201/1/1201 1202/1/1202 1203/1/1203
f 1204/1/1204 1205/1/1205 1206/1/1206
f 1207/1/1207 1208/1/1208 1209/1/1209
f 1210/1/1210 1211/1/1211 1212/1/1212
f 1213/1/1213 1214/1/1214 1215/1/1215
f 1216/1/1216 1217/1/1217 1218/1/1218
f 1219/1/1219 1220/1/1220 1221/1/1221
f 1222/1/1222 1223/1/1223 1224/1/1224
f 1225/1/1225 1226/1/1226 1227/1/1227
f 1228/1/1228 1229/1/1229 1230/1/1230
f 1231/1/1231 1232/1/1232 1233/1/1233
f 1234/1/1234 1235/1/1235 1236/1/1236
f 1237/1/1237 1238/1/1238 1239/1/1239
f 1240/1/1240 1241/1/1241 1242/1/1242
f 1243/1/1243 1244/1/1244 1245/1/1245
f 1246/1/1246 1247/1/1247 1248/1/1248
f 1249/1/1249 1250/1/1250 1251/1/1251
f 1252/1/1252 1253/1/1253 1254/1/1254
f 1255/1/1255 1256/1/1256 1257/1/1257
f 1258/1/1258 1259/1/1259 1260/1/1260
f 1261/1/1261 1262/1/1262 1263/1/1263
f 1264/1/1264 1265/1/1265 1266/1/1266
f 1267/1/1267 1268/1/1268 1269/1/1269
f 1270/1/1270 1271/1/1271 1272/1/1272
f 1273/1/1273 1274/1/1274 1275/1/1275
f 1276/1/1276 1277/1/1277 1278/1/1278
f 1279/1/1279 1280/1/1280 1281/1/1281
f 1282/1/1282 1283/1/1283 1284/1/1284
f 1285/1/1285 1286/1/1286 1287/1/1287
f 1288/1/1288 1289/1/1289 1290/1/1290
f 1291/1/1291 1292/1/1292 1293/1/1293
f 1294/1/1294 1295/1/1295 1296/1/1296
f 1297/1/1297 1298/1/1298 1299/1/1299
f 1300/1/1300 1301/1/1301 1302/1/1302
f 1303/1/1303 1304/1/1304 1305/1/1305
f 1306/1/1306 1307/1/1307 1308/1/1308
f 1309/1/1309 1310/1/1310 1311/1/1311
f 1312/1/1312 1313/1/1313 1314/1/1314
f 1315/1/1315 1316/1/1316 1317/1/1317
f 1318/1/1318 1319/1/1319 1320/1/1320
f 1321/1/1321 1322/1/1322 1323/1/1323
f 1324/1/1324 1325/1/1325 1326/1/1326
f 1327/1/1327 1328/1/1328 1329/1/1329
f 1330/1/1330 1331/1/1331 1332/1/1332
f 1333/1/1333 1334/1/1334 1335/1/1335
f 1336/1/1336 1337/1/1337 1338/1/1338
f 1339/1/1339 1340/1/1340 1341/1/1341
f 1342/1/1342 1343/1/1343 1344/1/1344
f 1345/1/1345 1346/1/1346 1347/1/1347
f 1348/1/1348 1349/1/1349 1350/1/1350
f 1351/1/1351 1352/1/1352 1353/1/1353
f 1354/1/1354 1355/1/1355 1356/1/1356
f 1357/1/1357 1358/1/1358 1359/1/1359
f 1360/1/1360 1361/1/1361 1362/1/1362
f 1363/1/1363 1364/1/1364 1365/1/1365
f 1366/1/1366 1367/1/1367 1368/1/1368
f 1369/1/1369 1370/1/1370 1371/1/1371
f 1372/1/1372 1373/1/1373 1374/1/1374
f 1375/1/1375 1376/1/1376 1377/1/1377
f 1378/1/1378 1379/1/1379 1380/1/1380
f 1381/1/1381 1382/1/1382 1383/1/1383
f 1384/1/1384 1385/1/1385 1386/1/1386
f 1387/1/1387 1388/1/1388 1389/1/1389
f 1390/1/1390 1391/1/1391 1392/1/1392
f 1393/1/1393 1394/1/1394 1395/1/1395
f 1396/1/1396 1397/1/1397 1398/1/1398
f 1399/1/1399 1400/1/1400 1401/1/1401
f 1402/1/1402 1403/1/1403 1404/1/1404
f 1405/1/1405 1406/1/1406 1407/1/1407
f 1408/1/1408 1409/1/1409 1410/1/1410
f 1411/1/1411 1412/1/1412 1413/1/1413
f 1414/1/1414 1415/1/1415 1416/1/1416
f 1417/1/1417 1418/1/1418 1419/1/1419
f 1420/1/1420 1421/1/1421 1422/1/1422
f 1423/1/1423 1424/1/1424 1425/1/1425
f 1426/1/1426 1427/1/1427 1428/1/1428
f 1429/1/1429 1430/1/1430 1431/1/1431
f 1432/1/1432 1433/1/1433 1434/1/1434
f 1435/1/1435 1436/1/1436 1437/1/1437
f 1438/1/1438 1439/1/1439 1440/1/1440
f 1441/1/1441 1442/1/1442 1443/1/1443
f 1444/1/1444 1445/1/1445 1446/1/1446
f 1447/1/1447 1448/1/1448 1449/1/1449
f 1450/1/1450 1451/1/1451 1452/1/1452
f 1453/1/1453 1454/1/1454 1455/1/1455
f 1456/1/1456 1457/1/1457 1458/1/1458
f 1459/1/1459 1460/1/1460 1461/1/1461
f 1462/1/1462 1463/1/1463 1464/1/1464
f 1465/1/1465 1466/1/1466 1467/1/1467
f 1468/1/1468 1469/1/1469 1470/1/1470
f 1471/1/1471 1472/1/1472 1473/1/1473
f 1474/1/1474 1475/1/1475 1476/1/1476
f 1477/1/1477 1478/1/1478 1479/1/1479
f 1480/1/1480 1481/1/1481 1482/1/1482
f 1483/1/1483 1484/1/1484 1485/1/1485
f 1486/1/1486 1487/1/1487 1488/1/1488
f 1489/1/1489 1490/1/1490 1491/1/1491
f 1492/1/1492 1493/1/1493 1494/1/1494
f 1495/1/1495 1496/1/1496 1497/1/1497
f 1498/1/1498 1499/1/1499 1500/1/1500
