# Outpost Commander — AsteroidA
# asteroid variant A, seed 10711; nine-sided, seven sections, no preferred axis
# Generated from meshes.json (outpost-commander-mesh-handoff/2) — do not hand-edit.
# LEFT-HANDED, Y up, +Z forward. Plane is Y=0. Mesh origin = simulated entity position.
# World units 1:1 — the authored extent IS the object's size; never scaled at draw time.
# Face-split vertices, baked per-face normals. No welding, no smoothing groups, no vt.
# extents  min -31.23 -22.62 -29.88  max 31.21 22.62 29.64  size 62.44 45.24 59.52
# 126 triangles, 378 vertices
# Vertex colour selector is NOT in this file. See AsteroidA.vcol — one line per v record, same order.
mtllib OC_Hull.mtl
o AsteroidA
v 0.31 -22.62 2.99
v 2.18 -22.62 2.22
v 10.02 -16.29 10.2
v 0.31 -22.62 2.99
v 10.02 -16.29 10.2
v 1.58 -16.29 15.1
v 2.18 -22.62 2.22
v 2.99 -22.62 0.9
v 10.38 -16.29 3.14
v 2.18 -22.62 2.22
v 10.38 -16.29 3.14
v 10.02 -16.29 10.2
v 2.99 -22.62 0.9
v 2.49 -22.62 -1.94
v 9.5 -16.29 -7.39
v 2.99 -22.62 0.9
v 9.5 -16.29 -7.39
v 10.38 -16.29 3.14
v 2.49 -22.62 -1.94
v 1.15 -22.62 -2.73
v 4.79 -16.29 -11.36
v 2.49 -22.62 -1.94
v 4.79 -16.29 -11.36
v 9.5 -16.29 -7.39
v 1.15 -22.62 -2.73
v -0.77 -22.62 -3.12
v -3.08 -16.29 -12.56
v 1.15 -22.62 -2.73
v -3.08 -16.29 -12.56
v 4.79 -16.29 -11.36
v -0.77 -22.62 -3.12
v -2.19 -22.62 -1.21
v -11.5 -16.29 -6.36
v -0.77 -22.62 -3.12
v -11.5 -16.29 -6.36
v -3.08 -16.29 -12.56
v -2.19 -22.62 -1.21
v -2.46 -22.62 0.31
v -12.45 -16.29 1.57
v -2.19 -22.62 -1.21
v -12.45 -16.29 1.57
v -11.5 -16.29 -6.36
v -2.46 -22.62 0.31
v -1.52 -22.62 2.44
v -7.56 -16.29 12.12
v -2.46 -22.62 0.31
v -7.56 -16.29 12.12
v -12.45 -16.29 1.57
v -1.52 -22.62 2.44
v 0.31 -22.62 2.99
v 1.58 -16.29 15.1
v -1.52 -22.62 2.44
v 1.58 -16.29 15.1
v -7.56 -16.29 12.12
v 1.58 -16.29 15.1
v 10.02 -16.29 10.2
v 14.12 -8.14 14.38
v 1.58 -16.29 15.1
v 14.12 -8.14 14.38
v 2.61 -8.14 24.97
v 10.02 -16.29 10.2
v 10.38 -16.29 3.14
v 19.31 -8.14 5.84
v 10.02 -16.29 10.2
v 19.31 -8.14 5.84
v 14.12 -8.14 14.38
v 10.38 -16.29 3.14
v 9.5 -16.29 -7.39
v 18.24 -8.14 -14.19
v 10.38 -16.29 3.14
v 18.24 -8.14 -14.19
v 19.31 -8.14 5.84
v 9.5 -16.29 -7.39
v 4.79 -16.29 -11.36
v 8.59 -8.14 -20.37
v 9.5 -16.29 -7.39
v 8.59 -8.14 -20.37
v 18.24 -8.14 -14.19
v 4.79 -16.29 -11.36
v -3.08 -16.29 -12.56
v -5.34 -8.14 -21.75
v 4.79 -16.29 -11.36
v -5.34 -8.14 -21.75
v 8.59 -8.14 -20.37
v -3.08 -16.29 -12.56
v -11.5 -16.29 -6.36
v -18.33 -8.14 -10.13
v -3.08 -16.29 -12.56
v -18.33 -8.14 -10.13
v -5.34 -8.14 -21.75
v -11.5 -16.29 -6.36
v -12.45 -16.29 1.57
v -20.2 -8.14 2.55
v -11.5 -16.29 -6.36
v -20.2 -8.14 2.55
v -18.33 -8.14 -10.13
v -12.45 -16.29 1.57
v -7.56 -16.29 12.12
v -11.55 -8.14 18.51
v -12.45 -16.29 1.57
v -11.55 -8.14 18.51
v -20.2 -8.14 2.55
v -7.56 -16.29 12.12
v 1.58 -16.29 15.1
v 2.61 -8.14 24.97
v -7.56 -16.29 12.12
v 2.61 -8.14 24.97
v -11.55 -8.14 18.51
v 2.61 -8.14 24.97
v 14.12 -8.14 14.38
v 18.18 0.9 18.51
v 2.61 -8.14 24.97
v 18.18 0.9 18.51
v 3.1 0.9 29.64
v 14.12 -8.14 14.38
v 19.31 -8.14 5.84
v 31.21 0.9 9.43
v 14.12 -8.14 14.38
v 31.21 0.9 9.43
v 18.18 0.9 18.51
v 19.31 -8.14 5.84
v 18.24 -8.14 -14.19
v 18.97 0.9 -14.75
v 19.31 -8.14 5.84
v 18.97 0.9 -14.75
v 31.21 0.9 9.43
v 18.24 -8.14 -14.19
v 8.59 -8.14 -20.37
v 12.6 0.9 -29.88
v 18.24 -8.14 -14.19
v 12.6 0.9 -29.88
v 18.97 0.9 -14.75
v 8.59 -8.14 -20.37
v -5.34 -8.14 -21.75
v -6.34 0.9 -25.83
v 8.59 -8.14 -20.37
v -6.34 0.9 -25.83
v 12.6 0.9 -29.88
v -5.34 -8.14 -21.75
v -18.33 -8.14 -10.13
v -22.56 0.9 -12.47
v -5.34 -8.14 -21.75
v -22.56 0.9 -12.47
v -6.34 0.9 -25.83
v -18.33 -8.14 -10.13
v -20.2 -8.14 2.55
v -31.23 0.9 3.94
v -18.33 -8.14 -10.13
v -31.23 0.9 3.94
v -22.56 0.9 -12.47
v -20.2 -8.14 2.55
v -11.55 -8.14 18.51
v -15.72 0.9 25.19
v -20.2 -8.14 2.55
v -15.72 0.9 25.19
v -31.23 0.9 3.94
v -11.55 -8.14 18.51
v 2.61 -8.14 24.97
v 3.1 0.9 29.64
v -11.55 -8.14 18.51
v 3.1 0.9 29.64
v -15.72 0.9 25.19
v 3.1 0.9 29.64
v 18.18 0.9 18.51
v 16.35 9.95 16.65
v 3.1 0.9 29.64
v 16.35 9.95 16.65
v 2.27 9.95 21.74
v 18.18 0.9 18.51
v 31.21 0.9 9.43
v 24.87 9.95 7.52
v 18.18 0.9 18.51
v 24.87 9.95 7.52
v 16.35 9.95 16.65
v 31.21 0.9 9.43
v 18.97 0.9 -14.75
v 16.59 9.95 -12.9
v 31.21 0.9 9.43
v 16.59 9.95 -12.9
v 24.87 9.95 7.52
v 18.97 0.9 -14.75
v 12.6 0.9 -29.88
v 7.95 9.95 -18.85
v 18.97 0.9 -14.75
v 7.95 9.95 -18.85
v 16.59 9.95 -12.9
v 12.6 0.9 -29.88
v -6.34 0.9 -25.83
v -6.22 9.95 -25.34
v 12.6 0.9 -29.88
v -6.22 9.95 -25.34
v 7.95 9.95 -18.85
v -6.34 0.9 -25.83
v -22.56 0.9 -12.47
v -18.47 9.95 -10.21
v -6.34 0.9 -25.83
v -18.47 9.95 -10.21
v -6.22 9.95 -25.34
v -22.56 0.9 -12.47
v -31.23 0.9 3.94
v -24.32 9.95 3.07
v -22.56 0.9 -12.47
v -24.32 9.95 3.07
v -18.47 9.95 -10.21
v -31.23 0.9 3.94
v -15.72 0.9 25.19
v -10.93 9.95 17.51
v -31.23 0.9 3.94
v -10.93 9.95 17.51
v -24.32 9.95 3.07
v -15.72 0.9 25.19
v 3.1 0.9 29.64
v 2.27 9.95 21.74
v -15.72 0.9 25.19
v 2.27 9.95 21.74
v -10.93 9.95 17.51
v 2.27 9.95 21.74
v 16.35 9.95 16.65
v 9.53 17.19 9.71
v 2.27 9.95 21.74
v 9.53 17.19 9.71
v 1.43 17.19 13.66
v 16.35 9.95 16.65
v 24.87 9.95 7.52
v 12.33 17.19 3.72
v 16.35 9.95 16.65
v 12.33 17.19 3.72
v 9.53 17.19 9.71
v 24.87 9.95 7.52
v 16.59 9.95 -12.9
v 10.56 17.19 -8.22
v 24.87 9.95 7.52
v 10.56 17.19 -8.22
v 12.33 17.19 3.72
v 16.59 9.95 -12.9
v 7.95 9.95 -18.85
v 5.92 17.19 -14.04
v 16.59 9.95 -12.9
v 5.92 17.19 -14.04
v 10.56 17.19 -8.22
v 7.95 9.95 -18.85
v -6.22 9.95 -25.34
v -3.04 17.19 -12.36
v 7.95 9.95 -18.85
v -3.04 17.19 -12.36
v 5.92 17.19 -14.04
v -6.22 9.95 -25.34
v -18.47 9.95 -10.21
v -10.39 17.19 -5.75
v -6.22 9.95 -25.34
v -10.39 17.19 -5.75
v -3.04 17.19 -12.36
v -18.47 9.95 -10.21
v -24.32 9.95 3.07
v -13.94 17.19 1.76
v -18.47 9.95 -10.21
v -13.94 17.19 1.76
v -10.39 17.19 -5.75
v -24.32 9.95 3.07
v -10.93 9.95 17.51
v -7.06 17.19 11.32
v -24.32 9.95 3.07
v -7.06 17.19 11.32
v -13.94 17.19 1.76
v -10.93 9.95 17.51
v 2.27 9.95 21.74
v 1.43 17.19 13.66
v -10.93 9.95 17.51
v 1.43 17.19 13.66
v -7.06 17.19 11.32
v 1.43 17.19 13.66
v 9.53 17.19 9.71
v 2.63 22.62 2.67
v 1.43 17.19 13.66
v 2.63 22.62 2.67
v 0.33 22.62 3.15
v 9.53 17.19 9.71
v 12.33 17.19 3.72
v 3.77 22.62 1.14
v 9.53 17.19 9.71
v 3.77 22.62 1.14
v 2.63 22.62 2.67
v 12.33 17.19 3.72
v 10.56 17.19 -8.22
v 2.31 22.62 -1.79
v 12.33 17.19 3.72
v 2.31 22.62 -1.79
v 3.77 22.62 1.14
v 10.56 17.19 -8.22
v 5.92 17.19 -14.04
v 1.53 22.62 -3.63
v 10.56 17.19 -8.22
v 1.53 22.62 -3.63
v 2.31 22.62 -1.79
v 5.92 17.19 -14.04
v -3.04 17.19 -12.36
v -0.7 22.62 -2.85
v 5.92 17.19 -14.04
v -0.7 22.62 -2.85
v 1.53 22.62 -3.63
v -3.04 17.19 -12.36
v -10.39 17.19 -5.75
v -3.14 22.62 -1.74
v -3.04 17.19 -12.36
v -3.14 22.62 -1.74
v -0.7 22.62 -2.85
v -10.39 17.19 -5.75
v -13.94 17.19 1.76
v -3.73 22.62 0.47
v -10.39 17.19 -5.75
v -3.73 22.62 0.47
v -3.14 22.62 -1.74
v -13.94 17.19 1.76
v -7.06 17.19 11.32
v -1.6 22.62 2.56
v -13.94 17.19 1.76
v -1.6 22.62 2.56
v -3.73 22.62 0.47
v -7.06 17.19 11.32
v 1.43 17.19 13.66
v 0.33 22.62 3.15
v -7.06 17.19 11.32
v 0.33 22.62 3.15
v -1.6 22.62 2.56
v 0.24 -22.62 -0.02
v 2.18 -22.62 2.22
v 0.31 -22.62 2.99
v 0.24 -22.62 -0.02
v 2.99 -22.62 0.9
v 2.18 -22.62 2.22
v 0.24 -22.62 -0.02
v 2.49 -22.62 -1.94
v 2.99 -22.62 0.9
v 0.24 -22.62 -0.02
v 1.15 -22.62 -2.73
v 2.49 -22.62 -1.94
v 0.24 -22.62 -0.02
v -0.77 -22.62 -3.12
v 1.15 -22.62 -2.73
v 0.24 -22.62 -0.02
v -2.19 -22.62 -1.21
v -0.77 -22.62 -3.12
v 0.24 -22.62 -0.02
v -2.46 -22.62 0.31
v -2.19 -22.62 -1.21
v 0.24 -22.62 -0.02
v -1.52 -22.62 2.44
v -2.46 -22.62 0.31
v 0.24 -22.62 -0.02
v 0.31 -22.62 2.99
v -1.52 -22.62 2.44
v 0.16 22.62 0
v 0.33 22.62 3.15
v 2.63 22.62 2.67
v 0.16 22.62 0
v 2.63 22.62 2.67
v 3.77 22.62 1.14
v 0.16 22.62 0
v 3.77 22.62 1.14
v 2.31 22.62 -1.79
v 0.16 22.62 0
v 2.31 22.62 -1.79
v 1.53 22.62 -3.63
v 0.16 22.62 0
v 1.53 22.62 -3.63
v -0.7 22.62 -2.85
v 0.16 22.62 0
v -0.7 22.62 -2.85
v -3.14 22.62 -1.74
v 0.16 22.62 0
v -3.14 22.62 -1.74
v -3.73 22.62 0.47
v 0.16 22.62 0
v -3.73 22.62 0.47
v -1.6 22.62 2.56
v 0.16 22.62 0
v -1.6 22.62 2.56
v 0.33 22.62 3.15
vn 0.2 -0.85 0.48
vn 0.2 -0.85 0.48
vn 0.2 -0.85 0.48
vn 0.25 -0.87 0.43
vn 0.25 -0.87 0.43
vn 0.25 -0.87 0.43
vn 0.55 -0.76 0.34
vn 0.55 -0.76 0.34
vn 0.55 -0.76 0.34
vn 0.61 -0.79 0.03
vn 0.61 -0.79 0.03
vn 0.61 -0.79 0.03
vn 0.62 -0.78 -0.11
vn 0.62 -0.78 -0.11
vn 0.62 -0.78 -0.11
vn 0.66 -0.75 -0.06
vn 0.66 -0.75 -0.06
vn 0.66 -0.75 -0.06
vn 0.29 -0.83 -0.49
vn 0.29 -0.83 -0.49
vn 0.29 -0.83 -0.49
vn 0.38 -0.81 -0.45
vn 0.38 -0.81 -0.45
vn 0.38 -0.81 -0.45
vn 0.12 -0.81 -0.57
vn 0.12 -0.81 -0.57
vn 0.12 -0.81 -0.57
vn 0.09 -0.82 -0.57
vn 0.09 -0.82 -0.57
vn 0.09 -0.82 -0.57
vn -0.41 -0.86 -0.31
vn -0.41 -0.86 -0.31
vn -0.41 -0.86 -0.31
vn -0.34 -0.82 -0.46
vn -0.34 -0.82 -0.46
vn -0.34 -0.82 -0.46
vn -0.54 -0.84 -0.1
vn -0.54 -0.84 -0.1
vn -0.54 -0.84 -0.1
vn -0.54 -0.84 -0.06
vn -0.54 -0.84 -0.06
vn -0.54 -0.84 -0.06
vn -0.51 -0.83 0.22
vn -0.51 -0.83 0.22
vn -0.51 -0.83 0.22
vn -0.5 -0.83 0.23
vn -0.5 -0.83 0.23
vn -0.5 -0.83 0.23
vn -0.14 -0.87 0.47
vn -0.14 -0.87 0.47
vn -0.14 -0.87 0.47
vn -0.15 -0.87 0.47
vn -0.15 -0.87 0.47
vn -0.15 -0.87 0.47
vn 0.41 -0.57 0.71
vn 0.41 -0.57 0.71
vn 0.41 -0.57 0.71
vn 0.48 -0.7 0.53
vn 0.48 -0.7 0.53
vn 0.48 -0.7 0.53
vn 0.67 -0.74 0.03
vn 0.67 -0.74 0.03
vn 0.67 -0.74 0.03
vn 0.7 -0.57 0.43
vn 0.7 -0.57 0.43
vn 0.7 -0.57 0.43
vn 0.66 -0.75 -0.05
vn 0.66 -0.75 -0.05
vn 0.66 -0.75 -0.05
vn 0.68 -0.73 -0.04
vn 0.68 -0.73 -0.04
vn 0.68 -0.73 -0.04
vn 0.42 -0.75 -0.5
vn 0.42 -0.75 -0.5
vn 0.42 -0.75 -0.5
vn 0.33 -0.79 -0.52
vn 0.33 -0.79 -0.52
vn 0.33 -0.79 -0.52
vn 0.1 -0.73 -0.67
vn 0.1 -0.73 -0.67
vn 0.1 -0.73 -0.67
vn 0.06 -0.75 -0.65
vn 0.06 -0.75 -0.65
vn 0.06 -0.75 -0.65
vn -0.45 -0.66 -0.61
vn -0.45 -0.66 -0.61
vn -0.45 -0.66 -0.61
vn -0.47 -0.72 -0.52
vn -0.47 -0.72 -0.52
vn -0.47 -0.72 -0.52
vn -0.73 -0.68 -0.09
vn -0.73 -0.68 -0.09
vn -0.73 -0.68 -0.09
vn -0.74 -0.67 -0.11
vn -0.74 -0.67 -0.11
vn -0.74 -0.67 -0.11
vn -0.72 -0.61 0.33
vn -0.72 -0.61 0.33
vn -0.72 -0.61 0.33
vn -0.66 -0.67 0.36
vn -0.66 -0.67 0.36
vn -0.66 -0.67 0.36
vn -0.21 -0.74 0.64
vn -0.21 -0.74 0.64
vn -0.21 -0.74 0.64
vn -0.31 -0.68 0.67
vn -0.31 -0.68 0.67
vn -0.31 -0.68 0.67
vn 0.57 -0.54 0.62
vn 0.57 -0.54 0.62
vn 0.57 -0.54 0.62
vn 0.54 -0.41 0.73
vn 0.54 -0.41 0.73
vn 0.54 -0.41 0.73
vn 0.51 -0.8 0.31
vn 0.51 -0.8 0.31
vn 0.51 -0.8 0.31
vn 0.48 -0.53 0.69
vn 0.48 -0.53 0.69
vn 0.48 -0.53 0.69
vn 1 -0.08 -0.05
vn 1 -0.08 -0.05
vn 1 -0.08 -0.05
vn 0.63 -0.71 -0.32
vn 0.63 -0.71 -0.32
vn 0.63 -0.71 -0.32
vn 0.36 -0.75 -0.56
vn 0.36 -0.75 -0.56
vn 0.36 -0.75 -0.56
vn 0.92 -0.1 -0.39
vn 0.92 -0.1 -0.39
vn 0.92 -0.1 -0.39
vn 0.09 -0.4 -0.91
vn 0.09 -0.4 -0.91
vn 0.09 -0.4 -0.91
vn -0.15 -0.68 -0.71
vn -0.15 -0.68 -0.71
vn -0.15 -0.68 -0.71
vn -0.6 -0.45 -0.67
vn -0.6 -0.45 -0.67
vn -0.6 -0.45 -0.67
vn -0.59 -0.39 -0.71
vn -0.59 -0.39 -0.71
vn -0.59 -0.39 -0.71
vn -0.64 -0.76 -0.09
vn -0.64 -0.76 -0.09
vn -0.64 -0.76 -0.09
vn -0.78 -0.47 -0.41
vn -0.78 -0.47 -0.41
vn -0.78 -0.47 -0.41
vn -0.7 -0.6 0.38
vn -0.7 -0.6 0.38
vn -0.7 -0.6 0.38
vn -0.55 -0.73 0.4
vn -0.55 -0.73 0.4
vn -0.55 -0.73 0.4
vn -0.38 -0.41 0.83
vn -0.38 -0.41 0.83
vn -0.38 -0.41 0.83
vn -0.18 -0.64 0.75
vn -0.18 -0.64 0.75
vn -0.18 -0.64 0.75
vn 0.57 0.27 0.77
vn 0.57 0.27 0.77
vn 0.57 0.27 0.77
vn 0.26 0.65 0.72
vn 0.26 0.65 0.72
vn 0.26 0.65 0.72
vn 0.5 0.5 0.71
vn 0.5 0.5 0.71
vn 0.5 0.5 0.71
vn 0.7 0.28 0.66
vn 0.7 0.28 0.66
vn 0.7 0.28 0.66
vn 0.85 0.31 -0.43
vn 0.85 0.31 -0.43
vn 0.85 0.31 -0.43
vn 0.81 0.5 -0.33
vn 0.81 0.5 -0.33
vn 0.81 0.5 -0.33
vn 0.67 0.69 -0.28
vn 0.67 0.69 -0.28
vn 0.67 0.69 -0.28
vn 0.54 0.3 -0.78
vn 0.54 0.3 -0.78
vn 0.54 0.3 -0.78
vn -0.21 0.06 -0.98
vn -0.21 0.06 -0.98
vn -0.21 0.06 -0.98
vn 0.25 0.8 -0.55
vn 0.25 0.8 -0.55
vn 0.25 0.8 -0.55
vn -0.57 0.43 -0.7
vn -0.57 0.43 -0.7
vn -0.57 0.43 -0.7
vn -0.78 0.04 -0.63
vn -0.78 0.04 -0.63
vn -0.78 0.04 -0.63
vn -0.75 0.53 -0.4
vn -0.75 0.53 -0.4
vn -0.75 0.53 -0.4
vn -0.81 0.46 -0.36
vn -0.81 0.46 -0.36
vn -0.81 0.46 -0.36
vn -0.59 0.68 0.43
vn -0.59 0.68 0.43
vn -0.59 0.68 0.43
vn -0.62 0.53 0.58
vn -0.62 0.53 0.58
vn -0.62 0.53 0.58
vn -0.18 0.64 0.75
vn -0.18 0.64 0.75
vn -0.18 0.64 0.75
vn -0.22 0.7 0.68
vn -0.22 0.7 0.68
vn -0.22 0.7 0.68
vn 0.22 0.77 0.6
vn 0.22 0.77 0.6
vn 0.22 0.77 0.6
vn 0.3 0.73 0.62
vn 0.3 0.73 0.62
vn 0.3 0.73 0.62
vn 0.38 0.85 0.36
vn 0.38 0.85 0.36
vn 0.38 0.85 0.36
vn 0.56 0.78 0.26
vn 0.56 0.78 0.26
vn 0.56 0.78 0.26
vn 0.65 0.71 -0.26
vn 0.65 0.71 -0.26
vn 0.65 0.71 -0.26
vn 0.52 0.85 -0.08
vn 0.52 0.85 -0.08
vn 0.52 0.85 -0.08
vn 0.46 0.58 -0.67
vn 0.46 0.58 -0.67
vn 0.46 0.58 -0.67
vn 0.54 0.73 -0.43
vn 0.54 0.73 -0.43
vn 0.54 0.73 -0.43
vn 0.24 0.82 -0.52
vn 0.24 0.82 -0.52
vn 0.24 0.82 -0.52
vn -0.16 0.52 -0.84
vn -0.16 0.52 -0.84
vn -0.16 0.52 -0.84
vn -0.48 0.78 -0.39
vn -0.48 0.78 -0.39
vn -0.48 0.78 -0.39
vn -0.35 0.85 -0.39
vn -0.35 0.85 -0.39
vn -0.35 0.85 -0.39
vn -0.57 0.78 -0.25
vn -0.57 0.78 -0.25
vn -0.57 0.78 -0.25
vn -0.56 0.79 -0.26
vn -0.56 0.79 -0.26
vn -0.56 0.79 -0.26
vn -0.53 0.7 0.49
vn -0.53 0.7 0.49
vn -0.53 0.7 0.49
vn -0.5 0.79 0.36
vn -0.5 0.79 0.36
vn -0.5 0.79 0.36
vn -0.21 0.72 0.66
vn -0.21 0.72 0.66
vn -0.21 0.72 0.66
vn -0.19 0.69 0.69
vn -0.19 0.69 0.69
vn -0.19 0.69 0.69
vn 0.22 0.86 0.45
vn 0.22 0.86 0.45
vn 0.22 0.86 0.45
vn 0.09 0.89 0.45
vn 0.09 0.89 0.45
vn 0.09 0.89 0.45
vn 0.47 0.85 0.22
vn 0.47 0.85 0.22
vn 0.47 0.85 0.22
vn 0.39 0.87 0.29
vn 0.39 0.87 0.29
vn 0.39 0.87 0.29
vn 0.51 0.86 -0.08
vn 0.51 0.86 -0.08
vn 0.51 0.86 -0.08
vn 0.57 0.77 -0.29
vn 0.57 0.77 -0.29
vn 0.57 0.77 -0.29
vn 0.38 0.88 -0.3
vn 0.38 0.88 -0.3
vn 0.38 0.88 -0.3
vn 0.44 0.88 -0.18
vn 0.44 0.88 -0.18
vn 0.44 0.88 -0.18
vn -0.09 0.87 -0.48
vn -0.09 0.87 -0.48
vn -0.09 0.87 -0.48
vn -0.18 0.84 -0.51
vn -0.18 0.84 -0.51
vn -0.18 0.84 -0.51
vn -0.38 0.82 -0.42
vn -0.38 0.82 -0.42
vn -0.38 0.82 -0.42
vn -0.2 0.87 -0.45
vn -0.2 0.87 -0.45
vn -0.2 0.87 -0.45
vn -0.48 0.85 -0.23
vn -0.48 0.85 -0.23
vn -0.48 0.85 -0.23
vn -0.54 0.83 -0.14
vn -0.54 0.83 -0.14
vn -0.54 0.83 -0.14
vn -0.4 0.87 0.29
vn -0.4 0.87 0.29
vn -0.4 0.87 0.29
vn -0.39 0.83 0.4
vn -0.39 0.83 0.4
vn -0.39 0.83 0.4
vn -0.13 0.88 0.47
vn -0.13 0.88 0.47
vn -0.13 0.88 0.47
vn -0.14 0.88 0.46
vn -0.14 0.88 0.46
vn -0.14 0.88 0.46
vn 0 -1 0
vn 0 -1 0
vn 0 -1 0
vn 0 -1 0
vn 0 -1 0
vn 0 -1 0
vn 0 -1 0
vn 0 -1 0
vn 0 -1 0
vn 0 -1 0
vn 0 -1 0
vn 0 -1 0
vn 0 -1 0
vn 0 -1 0
vn 0 -1 0
vn 0 -1 0
vn 0 -1 0
vn 0 -1 0
vn 0 -1 0
vn 0 -1 0
vn 0 -1 0
vn 0 -1 0
vn 0 -1 0
vn 0 -1 0
vn 0 -1 0
vn 0 -1 0
vn 0 -1 0
vn 0 1 0
vn 0 1 0
vn 0 1 0
vn 0 1 0
vn 0 1 0
vn 0 1 0
vn 0 1 0
vn 0 1 0
vn 0 1 0
vn 0 1 0
vn 0 1 0
vn 0 1 0
vn 0 1 0
vn 0 1 0
vn 0 1 0
vn 0 1 0
vn 0 1 0
vn 0 1 0
vn 0 1 0
vn 0 1 0
vn 0 1 0
vn 0 1 0
vn 0 1 0
vn 0 1 0
vn 0 1 0
vn 0 1 0
vn 0 1 0
usemtl OC_Hull
s off
f 1//1 2//2 3//3
f 4//4 5//5 6//6
f 7//7 8//8 9//9
f 10//10 11//11 12//12
f 13//13 14//14 15//15
f 16//16 17//17 18//18
f 19//19 20//20 21//21
f 22//22 23//23 24//24
f 25//25 26//26 27//27
f 28//28 29//29 30//30
f 31//31 32//32 33//33
f 34//34 35//35 36//36
f 37//37 38//38 39//39
f 40//40 41//41 42//42
f 43//43 44//44 45//45
f 46//46 47//47 48//48
f 49//49 50//50 51//51
f 52//52 53//53 54//54
f 55//55 56//56 57//57
f 58//58 59//59 60//60
f 61//61 62//62 63//63
f 64//64 65//65 66//66
f 67//67 68//68 69//69
f 70//70 71//71 72//72
f 73//73 74//74 75//75
f 76//76 77//77 78//78
f 79//79 80//80 81//81
f 82//82 83//83 84//84
f 85//85 86//86 87//87
f 88//88 89//89 90//90
f 91//91 92//92 93//93
f 94//94 95//95 96//96
f 97//97 98//98 99//99
f 100//100 101//101 102//102
f 103//103 104//104 105//105
f 106//106 107//107 108//108
f 109//109 110//110 111//111
f 112//112 113//113 114//114
f 115//115 116//116 117//117
f 118//118 119//119 120//120
f 121//121 122//122 123//123
f 124//124 125//125 126//126
f 127//127 128//128 129//129
f 130//130 131//131 132//132
f 133//133 134//134 135//135
f 136//136 137//137 138//138
f 139//139 140//140 141//141
f 142//142 143//143 144//144
f 145//145 146//146 147//147
f 148//148 149//149 150//150
f 151//151 152//152 153//153
f 154//154 155//155 156//156
f 157//157 158//158 159//159
f 160//160 161//161 162//162
f 163//163 164//164 165//165
f 166//166 167//167 168//168
f 169//169 170//170 171//171
f 172//172 173//173 174//174
f 175//175 176//176 177//177
f 178//178 179//179 180//180
f 181//181 182//182 183//183
f 184//184 185//185 186//186
f 187//187 188//188 189//189
f 190//190 191//191 192//192
f 193//193 194//194 195//195
f 196//196 197//197 198//198
f 199//199 200//200 201//201
f 202//202 203//203 204//204
f 205//205 206//206 207//207
f 208//208 209//209 210//210
f 211//211 212//212 213//213
f 214//214 215//215 216//216
f 217//217 218//218 219//219
f 220//220 221//221 222//222
f 223//223 224//224 225//225
f 226//226 227//227 228//228
f 229//229 230//230 231//231
f 232//232 233//233 234//234
f 235//235 236//236 237//237
f 238//238 239//239 240//240
f 241//241 242//242 243//243
f 244//244 245//245 246//246
f 247//247 248//248 249//249
f 250//250 251//251 252//252
f 253//253 254//254 255//255
f 256//256 257//257 258//258
f 259//259 260//260 261//261
f 262//262 263//263 264//264
f 265//265 266//266 267//267
f 268//268 269//269 270//270
f 271//271 272//272 273//273
f 274//274 275//275 276//276
f 277//277 278//278 279//279
f 280//280 281//281 282//282
f 283//283 284//284 285//285
f 286//286 287//287 288//288
f 289//289 290//290 291//291
f 292//292 293//293 294//294
f 295//295 296//296 297//297
f 298//298 299//299 300//300
f 301//301 302//302 303//303
f 304//304 305//305 306//306
f 307//307 308//308 309//309
f 310//310 311//311 312//312
f 313//313 314//314 315//315
f 316//316 317//317 318//318
f 319//319 320//320 321//321
f 322//322 323//323 324//324
f 325//325 326//326 327//327
f 328//328 329//329 330//330
f 331//331 332//332 333//333
f 334//334 335//335 336//336
f 337//337 338//338 339//339
f 340//340 341//341 342//342
f 343//343 344//344 345//345
f 346//346 347//347 348//348
f 349//349 350//350 351//351
f 352//352 353//353 354//354
f 355//355 356//356 357//357
f 358//358 359//359 360//360
f 361//361 362//362 363//363
f 364//364 365//365 366//366
f 367//367 368//368 369//369
f 370//370 371//371 372//372
f 373//373 374//374 375//375
f 376//376 377//377 378//378
