# Outpost Commander — AsteroidD
# asteroid variant D, seed 40961; nine-sided, seven sections, no preferred axis
# Generated from meshes.json (outpost-commander-mesh-handoff/2) — do not hand-edit.
# LEFT-HANDED, Y up, +Z forward. Plane is Y=0. Mesh origin = simulated entity position.
# World units 1:1 — the authored extent IS the object's size; never scaled at draw time.
# Face-split vertices, baked per-face normals. No welding, no smoothing groups, no vt.
# extents  min -66.77 -48.27 -69.41  max 55.29 48.27 58.46  size 122.06 96.54 127.87
# 126 triangles, 378 vertices
# Vertex colour selector is NOT in this file. See AsteroidD.vcol — one line per v record, same order.
mtllib OC_Hull.mtl
o AsteroidD
v 0.24 -48.27 7.33
v 3.37 -48.27 5.14
v 14.42 -34.76 21.96
v 0.24 -48.27 7.33
v 14.42 -34.76 21.96
v 0.83 -34.76 25.54
v 3.37 -48.27 5.14
v 7.27 -48.27 0.29
v 30.79 -34.76 1.24
v 3.37 -48.27 5.14
v 30.79 -34.76 1.24
v 14.42 -34.76 21.96
v 7.27 -48.27 0.29
v 5.23 -48.27 -3.04
v 28.7 -34.76 -16.68
v 7.27 -48.27 0.29
v 28.7 -34.76 -16.68
v 30.79 -34.76 1.24
v 5.23 -48.27 -3.04
v 2.01 -48.27 -6.21
v 9.36 -34.76 -28.95
v 5.23 -48.27 -3.04
v 9.36 -34.76 -28.95
v 28.7 -34.76 -16.68
v 2.01 -48.27 -6.21
v -1.16 -48.27 -5.83
v -6.36 -34.76 -31.93
v 2.01 -48.27 -6.21
v -6.36 -34.76 -31.93
v 9.36 -34.76 -28.95
v -1.16 -48.27 -5.83
v -4.46 -48.27 -3.26
v -22.47 -34.76 -16.45
v -1.16 -48.27 -5.83
v -22.47 -34.76 -16.45
v -6.36 -34.76 -31.93
v -4.46 -48.27 -3.26
v -7.08 -48.27 2.51
v -23.56 -34.76 8.35
v -4.46 -48.27 -3.26
v -23.56 -34.76 8.35
v -22.47 -34.76 -16.45
v -7.08 -48.27 2.51
v -4.05 -48.27 5.67
v -19.15 -34.76 26.82
v -7.08 -48.27 2.51
v -19.15 -34.76 26.82
v -23.56 -34.76 8.35
v -4.05 -48.27 5.67
v 0.24 -48.27 7.33
v 0.83 -34.76 25.54
v -4.05 -48.27 5.67
v 0.83 -34.76 25.54
v -19.15 -34.76 26.82
v 0.83 -34.76 25.54
v 14.42 -34.76 21.96
v 32.25 -17.38 49.13
v 0.83 -34.76 25.54
v 32.25 -17.38 49.13
v 1.9 -17.38 58.46
v 14.42 -34.76 21.96
v 30.79 -34.76 1.24
v 46.42 -17.38 1.86
v 14.42 -34.76 21.96
v 46.42 -17.38 1.86
v 32.25 -17.38 49.13
v 30.79 -34.76 1.24
v 28.7 -34.76 -16.68
v 52.83 -17.38 -30.71
v 30.79 -34.76 1.24
v 52.83 -17.38 -30.71
v 46.42 -17.38 1.86
v 28.7 -34.76 -16.68
v 9.36 -34.76 -28.95
v 16.7 -17.38 -51.64
v 28.7 -34.76 -16.68
v 16.7 -17.38 -51.64
v 52.83 -17.38 -30.71
v 9.36 -34.76 -28.95
v -6.36 -34.76 -31.93
v -11.34 -17.38 -56.92
v 9.36 -34.76 -28.95
v -11.34 -17.38 -56.92
v 16.7 -17.38 -51.64
v -6.36 -34.76 -31.93
v -22.47 -34.76 -16.45
v -46.96 -17.38 -34.37
v -6.36 -34.76 -31.93
v -46.96 -17.38 -34.37
v -11.34 -17.38 -56.92
v -22.47 -34.76 -16.45
v -23.56 -34.76 8.35
v -46.67 -17.38 16.54
v -22.47 -34.76 -16.45
v -46.67 -17.38 16.54
v -46.96 -17.38 -34.37
v -23.56 -34.76 8.35
v -19.15 -34.76 26.82
v -32.87 -17.38 46.03
v -23.56 -34.76 8.35
v -32.87 -17.38 46.03
v -46.67 -17.38 16.54
v -19.15 -34.76 26.82
v 0.83 -34.76 25.54
v 1.9 -17.38 58.46
v -19.15 -34.76 26.82
v 1.9 -17.38 58.46
v -32.87 -17.38 46.03
v 1.9 -17.38 58.46
v 32.25 -17.38 49.13
v 32.8 1.93 49.97
v 1.9 -17.38 58.46
v 32.8 1.93 49.97
v 1.88 1.93 57.84
v 32.25 -17.38 49.13
v 46.42 -17.38 1.86
v 55.29 1.93 2.22
v 32.25 -17.38 49.13
v 55.29 1.93 2.22
v 32.8 1.93 49.97
v 46.42 -17.38 1.86
v 52.83 -17.38 -30.71
v 50.88 1.93 -29.57
v 46.42 -17.38 1.86
v 50.88 1.93 -29.57
v 55.29 1.93 2.22
v 52.83 -17.38 -30.71
v 16.7 -17.38 -51.64
v 17.66 1.93 -54.59
v 52.83 -17.38 -30.71
v 17.66 1.93 -54.59
v 50.88 1.93 -29.57
v 16.7 -17.38 -51.64
v -11.34 -17.38 -56.92
v -13.83 1.93 -69.41
v 16.7 -17.38 -51.64
v -13.83 1.93 -69.41
v 17.66 1.93 -54.59
v -11.34 -17.38 -56.92
v -46.96 -17.38 -34.37
v -51.4 1.93 -37.62
v -11.34 -17.38 -56.92
v -51.4 1.93 -37.62
v -13.83 1.93 -69.41
v -46.96 -17.38 -34.37
v -46.67 -17.38 16.54
v -66.77 1.93 23.66
v -46.96 -17.38 -34.37
v -66.77 1.93 23.66
v -51.4 1.93 -37.62
v -46.67 -17.38 16.54
v -32.87 -17.38 46.03
v -40.01 1.93 56.04
v -46.67 -17.38 16.54
v -40.01 1.93 56.04
v -66.77 1.93 23.66
v -32.87 -17.38 46.03
v 1.9 -17.38 58.46
v 1.88 1.93 57.84
v -32.87 -17.38 46.03
v 1.88 1.93 57.84
v -40.01 1.93 56.04
v 1.88 1.93 57.84
v 32.8 1.93 49.97
v 28.25 21.24 43.03
v 1.88 1.93 57.84
v 28.25 21.24 43.03
v 1.58 21.24 48.68
v 32.8 1.93 49.97
v 55.29 1.93 2.22
v 49.23 21.24 1.98
v 32.8 1.93 49.97
v 49.23 21.24 1.98
v 28.25 21.24 43.03
v 55.29 1.93 2.22
v 50.88 1.93 -29.57
v 43.95 21.24 -25.54
v 55.29 1.93 2.22
v 43.95 21.24 -25.54
v 49.23 21.24 1.98
v 50.88 1.93 -29.57
v 17.66 1.93 -54.59
v 18.46 21.24 -57.07
v 50.88 1.93 -29.57
v 18.46 21.24 -57.07
v 43.95 21.24 -25.54
v 17.66 1.93 -54.59
v -13.83 1.93 -69.41
v -10.71 21.24 -53.75
v 17.66 1.93 -54.59
v -10.71 21.24 -53.75
v 18.46 21.24 -57.07
v -13.83 1.93 -69.41
v -51.4 1.93 -37.62
v -51.24 21.24 -37.51
v -13.83 1.93 -69.41
v -51.24 21.24 -37.51
v -10.71 21.24 -53.75
v -51.4 1.93 -37.62
v -66.77 1.93 23.66
v -44.41 21.24 15.74
v -51.4 1.93 -37.62
v -44.41 21.24 15.74
v -51.24 21.24 -37.51
v -66.77 1.93 23.66
v -40.01 1.93 56.04
v -32.52 21.24 45.54
v -66.77 1.93 23.66
v -32.52 21.24 45.54
v -44.41 21.24 15.74
v -40.01 1.93 56.04
v 1.88 1.93 57.84
v 1.58 21.24 48.68
v -40.01 1.93 56.04
v 1.58 21.24 48.68
v -32.52 21.24 45.54
v 1.58 21.24 48.68
v 28.25 21.24 43.03
v 19.76 36.69 30.11
v 1.58 21.24 48.68
v 19.76 36.69 30.11
v 1.08 36.69 33.16
v 28.25 21.24 43.03
v 49.23 21.24 1.98
v 31.69 36.69 1.27
v 28.25 21.24 43.03
v 31.69 36.69 1.27
v 19.76 36.69 30.11
v 49.23 21.24 1.98
v 43.95 21.24 -25.54
v 32.19 36.69 -18.71
v 49.23 21.24 1.98
v 32.19 36.69 -18.71
v 31.69 36.69 1.27
v 43.95 21.24 -25.54
v 18.46 21.24 -57.07
v 10.08 36.69 -31.16
v 43.95 21.24 -25.54
v 10.08 36.69 -31.16
v 32.19 36.69 -18.71
v 18.46 21.24 -57.07
v -10.71 21.24 -53.75
v -7.44 36.69 -37.33
v 18.46 21.24 -57.07
v -7.44 36.69 -37.33
v 10.08 36.69 -31.16
v -10.71 21.24 -53.75
v -51.24 21.24 -37.51
v -26.45 36.69 -19.36
v -10.71 21.24 -53.75
v -26.45 36.69 -19.36
v -7.44 36.69 -37.33
v -51.24 21.24 -37.51
v -44.41 21.24 15.74
v -27.7 36.69 9.82
v -51.24 21.24 -37.51
v -27.7 36.69 9.82
v -26.45 36.69 -19.36
v -44.41 21.24 15.74
v -32.52 21.24 45.54
v -18.23 36.69 25.53
v -44.41 21.24 15.74
v -18.23 36.69 25.53
v -27.7 36.69 9.82
v -32.52 21.24 45.54
v 1.58 21.24 48.68
v 1.08 36.69 33.16
v -32.52 21.24 45.54
v 1.08 36.69 33.16
v -18.23 36.69 25.53
v 1.08 36.69 33.16
v 19.76 36.69 30.11
v 4.72 48.27 7.2
v 1.08 36.69 33.16
v 4.72 48.27 7.2
v 0.25 48.27 7.85
v 19.76 36.69 30.11
v 31.69 36.69 1.27
v 7.88 48.27 0.32
v 19.76 36.69 30.11
v 7.88 48.27 0.32
v 4.72 48.27 7.2
v 31.69 36.69 1.27
v 32.19 36.69 -18.71
v 5.83 48.27 -3.39
v 31.69 36.69 1.27
v 5.83 48.27 -3.39
v 7.88 48.27 0.32
v 32.19 36.69 -18.71
v 10.08 36.69 -31.16
v 2.51 48.27 -7.75
v 32.19 36.69 -18.71
v 2.51 48.27 -7.75
v 5.83 48.27 -3.39
v 10.08 36.69 -31.16
v -7.44 36.69 -37.33
v -1.71 48.27 -8.57
v 10.08 36.69 -31.16
v -1.71 48.27 -8.57
v 2.51 48.27 -7.75
v -7.44 36.69 -37.33
v -26.45 36.69 -19.36
v -6.81 48.27 -4.99
v -7.44 36.69 -37.33
v -6.81 48.27 -4.99
v -1.71 48.27 -8.57
v -26.45 36.69 -19.36
v -27.7 36.69 9.82
v -7.7 48.27 2.73
v -26.45 36.69 -19.36
v -7.7 48.27 2.73
v -6.81 48.27 -4.99
v -27.7 36.69 9.82
v -18.23 36.69 25.53
v -4.15 48.27 5.81
v -27.7 36.69 9.82
v -4.15 48.27 5.81
v -7.7 48.27 2.73
v -18.23 36.69 25.53
v 1.08 36.69 33.16
v 0.25 48.27 7.85
v -18.23 36.69 25.53
v 0.25 48.27 7.85
v -4.15 48.27 5.81
v 0.15 -48.27 0.29
v 3.37 -48.27 5.14
v 0.24 -48.27 7.33
v 0.15 -48.27 0.29
v 7.27 -48.27 0.29
v 3.37 -48.27 5.14
v 0.15 -48.27 0.29
v 5.23 -48.27 -3.04
v 7.27 -48.27 0.29
v 0.15 -48.27 0.29
v 2.01 -48.27 -6.21
v 5.23 -48.27 -3.04
v 0.15 -48.27 0.29
v -1.16 -48.27 -5.83
v 2.01 -48.27 -6.21
v 0.15 -48.27 0.29
v -4.46 -48.27 -3.26
v -1.16 -48.27 -5.83
v 0.15 -48.27 0.29
v -7.08 -48.27 2.51
v -4.46 -48.27 -3.26
v 0.15 -48.27 0.29
v -4.05 -48.27 5.67
v -7.08 -48.27 2.51
v 0.15 -48.27 0.29
v 0.24 -48.27 7.33
v -4.05 -48.27 5.67
v 0.09 48.27 -0.09
v 0.25 48.27 7.85
v 4.72 48.27 7.2
v 0.09 48.27 -0.09
v 4.72 48.27 7.2
v 7.88 48.27 0.32
v 0.09 48.27 -0.09
v 7.88 48.27 0.32
v 5.83 48.27 -3.39
v 0.09 48.27 -0.09
v 5.83 48.27 -3.39
v 2.51 48.27 -7.75
v 0.09 48.27 -0.09
v 2.51 48.27 -7.75
v -1.71 48.27 -8.57
v 0.09 48.27 -0.09
v -1.71 48.27 -8.57
v -6.81 48.27 -4.99
v 0.09 48.27 -0.09
v -6.81 48.27 -4.99
v -7.7 48.27 2.73
v 0.09 48.27 -0.09
v -7.7 48.27 2.73
v -4.15 48.27 5.81
v 0.09 48.27 -0.09
v -4.15 48.27 5.81
v 0.25 48.27 7.85
vn 0.32 -0.83 0.46
vn 0.32 -0.83 0.46
vn 0.32 -0.83 0.46
vn 0.15 -0.8 0.59
vn 0.15 -0.8 0.59
vn 0.15 -0.8 0.59
vn 0.45 -0.81 0.36
vn 0.45 -0.81 0.36
vn 0.45 -0.81 0.36
vn 0.45 -0.82 0.36
vn 0.45 -0.82 0.36
vn 0.45 -0.82 0.36
vn 0.38 -0.9 -0.23
vn 0.38 -0.9 -0.23
vn 0.38 -0.9 -0.23
vn 0.5 -0.86 -0.06
vn 0.5 -0.86 -0.06
vn 0.5 -0.86 -0.06
vn 0.37 -0.85 -0.38
vn 0.37 -0.85 -0.38
vn 0.37 -0.85 -0.38
vn 0.26 -0.87 -0.41
vn 0.26 -0.87 -0.41
vn 0.26 -0.87 -0.41
vn -0.05 -0.89 -0.45
vn -0.05 -0.89 -0.45
vn -0.05 -0.89 -0.45
vn 0.09 -0.87 -0.49
vn 0.09 -0.87 -0.49
vn 0.09 -0.87 -0.49
vn -0.33 -0.85 -0.42
vn -0.33 -0.85 -0.42
vn -0.33 -0.85 -0.42
vn -0.36 -0.86 -0.37
vn -0.36 -0.86 -0.37
vn -0.36 -0.86 -0.37
vn -0.67 -0.68 -0.3
vn -0.67 -0.68 -0.3
vn -0.67 -0.68 -0.3
vn -0.59 -0.81 -0.03
vn -0.59 -0.81 -0.03
vn -0.59 -0.81 -0.03
vn -0.34 -0.88 0.32
vn -0.34 -0.88 0.32
vn -0.34 -0.88 0.32
vn -0.6 -0.79 0.14
vn -0.6 -0.79 0.14
vn -0.6 -0.79 0.14
vn -0.23 -0.78 0.59
vn -0.23 -0.78 0.59
vn -0.23 -0.78 0.59
vn 0.04 -0.83 0.56
vn 0.04 -0.83 0.56
vn 0.04 -0.83 0.56
vn 0.13 -0.87 0.48
vn 0.13 -0.87 0.48
vn 0.13 -0.87 0.48
vn 0.14 -0.88 0.46
vn 0.14 -0.88 0.46
vn 0.14 -0.88 0.46
vn 0.63 -0.59 0.5
vn 0.63 -0.59 0.5
vn 0.63 -0.59 0.5
vn 0.55 -0.82 0.16
vn 0.55 -0.82 0.16
vn 0.55 -0.82 0.16
vn 0.56 -0.83 -0.07
vn 0.56 -0.83 -0.07
vn 0.56 -0.83 -0.07
vn 0.73 -0.66 0.14
vn 0.73 -0.66 0.14
vn 0.73 -0.66 0.14
vn 0.32 -0.8 -0.51
vn 0.32 -0.8 -0.51
vn 0.32 -0.8 -0.51
vn 0.29 -0.81 -0.5
vn 0.29 -0.81 -0.5
vn 0.29 -0.81 -0.5
vn 0.11 -0.81 -0.58
vn 0.11 -0.81 -0.58
vn 0.11 -0.81 -0.58
vn 0.11 -0.81 -0.58
vn 0.11 -0.81 -0.58
vn 0.11 -0.81 -0.58
vn -0.35 -0.86 -0.36
vn -0.35 -0.86 -0.36
vn -0.35 -0.86 -0.36
vn -0.32 -0.81 -0.5
vn -0.32 -0.81 -0.5
vn -0.32 -0.81 -0.5
vn -0.61 -0.79 -0.03
vn -0.61 -0.79 -0.03
vn -0.61 -0.79 -0.03
vn -0.58 -0.81 0
vn -0.58 -0.81 0
vn -0.58 -0.81 0
vn -0.68 -0.72 0.16
vn -0.68 -0.72 0.16
vn -0.68 -0.72 0.16
vn -0.53 -0.81 0.25
vn -0.53 -0.81 0.25
vn -0.53 -0.81 0.25
vn 0.03 -0.88 0.47
vn 0.03 -0.88 0.47
vn 0.03 -0.88 0.47
vn -0.2 -0.79 0.57
vn -0.2 -0.79 0.57
vn -0.2 -0.79 0.57
vn 0.29 -0.05 0.95
vn 0.29 -0.05 0.95
vn 0.29 -0.05 0.95
vn 0.25 0.03 0.97
vn 0.25 0.03 0.97
vn 0.25 0.03 0.97
vn 0.88 -0.41 0.26
vn 0.88 -0.41 0.26
vn 0.88 -0.41 0.26
vn 0.9 -0.04 0.43
vn 0.9 -0.04 0.43
vn 0.9 -0.04 0.43
vn 0.98 0.09 0.19
vn 0.98 0.09 0.19
vn 0.98 0.09 0.19
vn 0.9 -0.41 -0.13
vn 0.9 -0.41 -0.13
vn 0.9 -0.41 -0.13
vn 0.5 -0.16 -0.85
vn 0.5 -0.16 -0.85
vn 0.5 -0.16 -0.85
vn 0.6 0.11 -0.79
vn 0.6 0.11 -0.79
vn 0.6 0.11 -0.79
vn 0.16 -0.52 -0.84
vn 0.16 -0.52 -0.84
vn 0.16 -0.52 -0.84
vn 0.42 -0.16 -0.89
vn 0.42 -0.16 -0.89
vn 0.42 -0.16 -0.89
vn -0.52 -0.26 -0.82
vn -0.52 -0.26 -0.82
vn -0.52 -0.26 -0.82
vn -0.56 -0.5 -0.66
vn -0.56 -0.5 -0.66
vn -0.56 -0.5 -0.66
vn -0.69 -0.72 0
vn -0.69 -0.72 0
vn -0.69 -0.72 0
vn -0.94 -0.26 -0.24
vn -0.94 -0.26 -0.24
vn -0.94 -0.26 -0.24
vn -0.79 -0.49 0.37
vn -0.79 -0.49 0.37
vn -0.79 -0.49 0.37
vn -0.54 -0.72 0.44
vn -0.54 -0.72 0.44
vn -0.54 -0.72 0.44
vn -0.34 0.03 0.94
vn -0.34 0.03 0.94
vn -0.34 0.03 0.94
vn -0.04 -0.47 0.88
vn -0.04 -0.47 0.88
vn -0.04 -0.47 0.88
vn 0.23 0.38 0.9
vn 0.23 0.38 0.9
vn 0.23 0.38 0.9
vn 0.19 0.42 0.89
vn 0.19 0.42 0.89
vn 0.19 0.42 0.89
vn 0.87 0.28 0.41
vn 0.87 0.28 0.41
vn 0.87 0.28 0.41
vn 0.83 0.35 0.43
vn 0.83 0.35 0.43
vn 0.83 0.35 0.43
vn 0.92 0.36 -0.13
vn 0.92 0.36 -0.13
vn 0.92 0.36 -0.13
vn 0.94 0.29 -0.18
vn 0.94 0.29 -0.18
vn 0.94 0.29 -0.18
vn 0.6 -0.13 -0.79
vn 0.6 -0.13 -0.79
vn 0.6 -0.13 -0.79
vn 0.72 0.38 -0.58
vn 0.72 0.38 -0.58
vn 0.72 0.38 -0.58
vn 0.35 0.55 -0.75
vn 0.35 0.55 -0.75
vn 0.35 0.55 -0.75
vn -0.11 -0.12 -0.99
vn -0.11 -0.12 -0.99
vn -0.11 -0.12 -0.99
vn -0.65 0.01 -0.76
vn -0.65 0.01 -0.76
vn -0.65 0.01 -0.76
vn -0.29 0.63 -0.72
vn -0.29 0.63 -0.72
vn -0.29 0.63 -0.72
vn -0.68 0.72 -0.17
vn -0.68 0.72 -0.17
vn -0.68 0.72 -0.17
vn -0.99 0.01 0.13
vn -0.99 0.01 0.13
vn -0.99 0.01 0.13
vn -0.65 0.54 0.54
vn -0.65 0.54 0.54
vn -0.65 0.54 0.54
vn -0.59 0.78 0.23
vn -0.59 0.78 0.23
vn -0.59 0.78 0.23
vn -0.04 0.43 0.9
vn -0.04 0.43 0.9
vn -0.04 0.43 0.9
vn -0.08 0.5 0.86
vn -0.08 0.5 0.86
vn -0.08 0.5 0.86
vn 0.15 0.68 0.72
vn 0.15 0.68 0.72
vn 0.15 0.68 0.72
vn 0.11 0.71 0.7
vn 0.11 0.71 0.7
vn 0.11 0.71 0.7
vn 0.62 0.72 0.32
vn 0.62 0.72 0.32
vn 0.62 0.72 0.32
vn 0.71 0.64 0.29
vn 0.71 0.64 0.29
vn 0.71 0.64 0.29
vn 0.76 0.64 -0.14
vn 0.76 0.64 -0.14
vn 0.76 0.64 -0.14
vn 0.66 0.75 0.02
vn 0.66 0.75 0.02
vn 0.66 0.75 0.02
vn 0.44 0.83 -0.35
vn 0.44 0.83 -0.35
vn 0.44 0.83 -0.35
vn 0.39 0.6 -0.69
vn 0.39 0.6 -0.69
vn 0.39 0.6 -0.69
vn -0.08 0.73 -0.68
vn -0.08 0.73 -0.68
vn -0.08 0.73 -0.68
vn 0.16 0.87 -0.47
vn 0.16 0.87 -0.47
vn 0.16 0.87 -0.47
vn -0.19 0.86 -0.47
vn -0.19 0.86 -0.47
vn -0.19 0.86 -0.47
vn -0.51 0.68 -0.54
vn -0.51 0.68 -0.54
vn -0.51 0.68 -0.54
vn -0.66 0.75 0.08
vn -0.66 0.75 0.08
vn -0.66 0.75 0.08
vn -0.52 0.86 -0.02
vn -0.52 0.86 -0.02
vn -0.52 0.86 -0.02
vn -0.56 0.8 0.22
vn -0.56 0.8 0.22
vn -0.56 0.8 0.22
vn -0.57 0.75 0.34
vn -0.57 0.75 0.34
vn -0.57 0.75 0.34
vn -0.06 0.71 0.71
vn -0.06 0.71 0.71
vn -0.06 0.71 0.71
vn -0.2 0.84 0.51
vn -0.2 0.84 0.51
vn -0.2 0.84 0.51
vn 0.07 0.91 0.41
vn 0.07 0.91 0.41
vn 0.07 0.91 0.41
vn 0.06 0.91 0.41
vn 0.06 0.91 0.41
vn 0.06 0.91 0.41
vn 0.42 0.89 0.18
vn 0.42 0.89 0.18
vn 0.42 0.89 0.18
vn 0.41 0.89 0.19
vn 0.41 0.89 0.19
vn 0.41 0.89 0.19
vn 0.41 0.91 0.01
vn 0.41 0.91 0.01
vn 0.41 0.91 0.01
vn 0.43 0.87 -0.24
vn 0.43 0.87 -0.24
vn 0.43 0.87 -0.24
vn 0.21 0.9 -0.38
vn 0.21 0.9 -0.38
vn 0.21 0.9 -0.38
vn 0.28 0.93 -0.22
vn 0.28 0.93 -0.22
vn 0.28 0.93 -0.22
vn 0.14 0.91 -0.39
vn 0.14 0.91 -0.39
vn 0.14 0.91 -0.39
vn 0.08 0.9 -0.42
vn 0.08 0.9 -0.42
vn 0.08 0.9 -0.42
vn -0.3 0.9 -0.32
vn -0.3 0.9 -0.32
vn -0.3 0.9 -0.32
vn -0.23 0.92 -0.32
vn -0.23 0.92 -0.32
vn -0.23 0.92 -0.32
vn -0.51 0.86 -0.02
vn -0.51 0.86 -0.02
vn -0.51 0.86 -0.02
vn -0.48 0.88 -0.05
vn -0.48 0.88 -0.05
vn -0.48 0.88 -0.05
vn -0.4 0.89 0.24
vn -0.4 0.89 0.24
vn -0.4 0.89 0.24
vn -0.35 0.85 0.4
vn -0.35 0.85 0.4
vn -0.35 0.85 0.4
vn -0.16 0.89 0.41
vn -0.16 0.89 0.41
vn -0.16 0.89 0.41
vn -0.18 0.9 0.4
vn -0.18 0.9 0.4
vn -0.18 0.9 0.4
vn 0 -1 0
vn 0 -1 0
vn 0 -1 0
vn 0 -1 0
vn 0 -1 0
vn 0 -1 0
vn 0 -1 0
vn 0 -1 0
vn 0 -1 0
vn 0 -1 0
vn 0 -1 0
vn 0 -1 0
vn 0 -1 0
vn 0 -1 0
vn 0 -1 0
vn 0 -1 0
vn 0 -1 0
vn 0 -1 0
vn 0 -1 0
vn 0 -1 0
vn 0 -1 0
vn 0 -1 0
vn 0 -1 0
vn 0 -1 0
vn 0 -1 0
vn 0 -1 0
vn 0 -1 0
vn 0 1 0
vn 0 1 0
vn 0 1 0
vn 0 1 0
vn 0 1 0
vn 0 1 0
vn 0 1 0
vn 0 1 0
vn 0 1 0
vn 0 1 0
vn 0 1 0
vn 0 1 0
vn 0 1 0
vn 0 1 0
vn 0 1 0
vn 0 1 0
vn 0 1 0
vn 0 1 0
vn 0 1 0
vn 0 1 0
vn 0 1 0
vn 0 1 0
vn 0 1 0
vn 0 1 0
vn 0 1 0
vn 0 1 0
vn 0 1 0
usemtl OC_Hull
s off
f 1//1 2//2 3//3
f 4//4 5//5 6//6
f 7//7 8//8 9//9
f 10//10 11//11 12//12
f 13//13 14//14 15//15
f 16//16 17//17 18//18
f 19//19 20//20 21//21
f 22//22 23//23 24//24
f 25//25 26//26 27//27
f 28//28 29//29 30//30
f 31//31 32//32 33//33
f 34//34 35//35 36//36
f 37//37 38//38 39//39
f 40//40 41//41 42//42
f 43//43 44//44 45//45
f 46//46 47//47 48//48
f 49//49 50//50 51//51
f 52//52 53//53 54//54
f 55//55 56//56 57//57
f 58//58 59//59 60//60
f 61//61 62//62 63//63
f 64//64 65//65 66//66
f 67//67 68//68 69//69
f 70//70 71//71 72//72
f 73//73 74//74 75//75
f 76//76 77//77 78//78
f 79//79 80//80 81//81
f 82//82 83//83 84//84
f 85//85 86//86 87//87
f 88//88 89//89 90//90
f 91//91 92//92 93//93
f 94//94 95//95 96//96
f 97//97 98//98 99//99
f 100//100 101//101 102//102
f 103//103 104//104 105//105
f 106//106 107//107 108//108
f 109//109 110//110 111//111
f 112//112 113//113 114//114
f 115//115 116//116 117//117
f 118//118 119//119 120//120
f 121//121 122//122 123//123
f 124//124 125//125 126//126
f 127//127 128//128 129//129
f 130//130 131//131 132//132
f 133//133 134//134 135//135
f 136//136 137//137 138//138
f 139//139 140//140 141//141
f 142//142 143//143 144//144
f 145//145 146//146 147//147
f 148//148 149//149 150//150
f 151//151 152//152 153//153
f 154//154 155//155 156//156
f 157//157 158//158 159//159
f 160//160 161//161 162//162
f 163//163 164//164 165//165
f 166//166 167//167 168//168
f 169//169 170//170 171//171
f 172//172 173//173 174//174
f 175//175 176//176 177//177
f 178//178 179//179 180//180
f 181//181 182//182 183//183
f 184//184 185//185 186//186
f 187//187 188//188 189//189
f 190//190 191//191 192//192
f 193//193 194//194 195//195
f 196//196 197//197 198//198
f 199//199 200//200 201//201
f 202//202 203//203 204//204
f 205//205 206//206 207//207
f 208//208 209//209 210//210
f 211//211 212//212 213//213
f 214//214 215//215 216//216
f 217//217 218//218 219//219
f 220//220 221//221 222//222
f 223//223 224//224 225//225
f 226//226 227//227 228//228
f 229//229 230//230 231//231
f 232//232 233//233 234//234
f 235//235 236//236 237//237
f 238//238 239//239 240//240
f 241//241 242//242 243//243
f 244//244 245//245 246//246
f 247//247 248//248 249//249
f 250//250 251//251 252//252
f 253//253 254//254 255//255
f 256//256 257//257 258//258
f 259//259 260//260 261//261
f 262//262 263//263 264//264
f 265//265 266//266 267//267
f 268//268 269//269 270//270
f 271//271 272//272 273//273
f 274//274 275//275 276//276
f 277//277 278//278 279//279
f 280//280 281//281 282//282
f 283//283 284//284 285//285
f 286//286 287//287 288//288
f 289//289 290//290 291//291
f 292//292 293//293 294//294
f 295//295 296//296 297//297
f 298//298 299//299 300//300
f 301//301 302//302 303//303
f 304//304 305//305 306//306
f 307//307 308//308 309//309
f 310//310 311//311 312//312
f 313//313 314//314 315//315
f 316//316 317//317 318//318
f 319//319 320//320 321//321
f 322//322 323//323 324//324
f 325//325 326//326 327//327
f 328//328 329//329 330//330
f 331//331 332//332 333//333
f 334//334 335//335 336//336
f 337//337 338//338 339//339
f 340//340 341//341 342//342
f 343//343 344//344 345//345
f 346//346 347//347 348//348
f 349//349 350//350 351//351
f 352//352 353//353 354//354
f 355//355 356//356 357//357
f 358//358 359//359 360//360
f 361//361 362//362 363//363
f 364//364 365//365 366//366
f 367//367 368//368 369//369
f 370//370 371//371 372//372
f 373//373 374//374 375//375
f 376//376 377//377 378//378
