# Outpost Commander — AsteroidE
# asteroid variant E, seed 55501; nine-sided, seven sections, no preferred axis
# Generated from meshes.json (outpost-commander-mesh-handoff/2) — do not hand-edit.
# LEFT-HANDED, Y up, +Z forward. Plane is Y=0. Mesh origin = simulated entity position.
# World units 1:1 — the authored extent IS the object's size; never scaled at draw time.
# Face-split vertices, baked per-face normals. No welding, no smoothing groups, no vt.
# extents  min -90.91 -70.68 -71.09  max 75.97 70.68 69.69  size 166.88 141.36 140.78
# 126 triangles, 378 vertices
# Vertex colour selector is NOT in this file. See AsteroidE.vcol — one line per v record, same order.
mtllib OC_Hull.mtl
o AsteroidE
v -0.17 -70.68 6.83
v 5.9 -70.68 5.67
v 27.55 -50.89 26.51
v -0.17 -70.68 6.83
v 27.55 -50.89 26.51
v -1.03 -50.89 42.39
v 5.9 -70.68 5.67
v 7.51 -70.68 2.37
v 30.98 -50.89 9.79
v 5.9 -70.68 5.67
v 30.98 -50.89 9.79
v 27.55 -50.89 26.51
v 7.51 -70.68 2.37
v 6.9 -70.68 -5.46
v 34.53 -50.89 -27.3
v 7.51 -70.68 2.37
v 34.53 -50.89 -27.3
v 30.98 -50.89 9.79
v 6.9 -70.68 -5.46
v 3.11 -70.68 -7.16
v 13.38 -50.89 -30.85
v 6.9 -70.68 -5.46
v 13.38 -50.89 -30.85
v 34.53 -50.89 -27.3
v 3.11 -70.68 -7.16
v -2.16 -70.68 -7.2
v -11.58 -50.89 -38.63
v 3.11 -70.68 -7.16
v -11.58 -50.89 -38.63
v 13.38 -50.89 -30.85
v -2.16 -70.68 -7.2
v -7.31 -70.68 -5.89
v -26.5 -50.89 -21.35
v -2.16 -70.68 -7.2
v -26.5 -50.89 -21.35
v -11.58 -50.89 -38.63
v -7.31 -70.68 -5.89
v -9.17 -70.68 2.29
v -33.13 -50.89 8.27
v -7.31 -70.68 -5.89
v -33.13 -50.89 8.27
v -26.5 -50.89 -21.35
v -9.17 -70.68 2.29
v -5.35 -70.68 4.62
v -24.05 -50.89 20.8
v -9.17 -70.68 2.29
v -24.05 -50.89 20.8
v -33.13 -50.89 8.27
v -5.35 -70.68 4.62
v -0.17 -70.68 6.83
v -1.03 -50.89 42.39
v -5.35 -70.68 4.62
v -1.03 -50.89 42.39
v -24.05 -50.89 20.8
v -1.03 -50.89 42.39
v 27.55 -50.89 26.51
v 48.48 -25.45 46.65
v -1.03 -50.89 42.39
v 48.48 -25.45 46.65
v -1.38 -25.45 56.51
v 27.55 -50.89 26.51
v 30.98 -50.89 9.79
v 72.01 -25.45 22.75
v 27.55 -50.89 26.51
v 72.01 -25.45 22.75
v 48.48 -25.45 46.65
v 30.98 -50.89 9.79
v 34.53 -50.89 -27.3
v 50.76 -25.45 -40.14
v 30.98 -50.89 9.79
v 50.76 -25.45 -40.14
v 72.01 -25.45 22.75
v 34.53 -50.89 -27.3
v 13.38 -50.89 -30.85
v 23.11 -25.45 -53.27
v 34.53 -50.89 -27.3
v 23.11 -25.45 -53.27
v 50.76 -25.45 -40.14
v 13.38 -50.89 -30.85
v -11.58 -50.89 -38.63
v -20.54 -25.45 -68.51
v 13.38 -50.89 -30.85
v -20.54 -25.45 -68.51
v 23.11 -25.45 -53.27
v -11.58 -50.89 -38.63
v -26.5 -50.89 -21.35
v -53.57 -25.45 -43.16
v -11.58 -50.89 -38.63
v -53.57 -25.45 -43.16
v -20.54 -25.45 -68.51
v -26.5 -50.89 -21.35
v -33.13 -50.89 8.27
v -55.16 -25.45 13.77
v -26.5 -50.89 -21.35
v -55.16 -25.45 13.77
v -53.57 -25.45 -43.16
v -33.13 -50.89 8.27
v -24.05 -50.89 20.8
v -46.49 -25.45 40.21
v -33.13 -50.89 8.27
v -46.49 -25.45 40.21
v -55.16 -25.45 13.77
v -24.05 -50.89 20.8
v -1.03 -50.89 42.39
v -1.38 -25.45 56.51
v -24.05 -50.89 20.8
v -1.38 -25.45 56.51
v -46.49 -25.45 40.21
v -1.38 -25.45 56.51
v 48.48 -25.45 46.65
v 62.53 2.83 60.17
v -1.38 -25.45 56.51
v 62.53 2.83 60.17
v -1.7 2.83 69.69
v 48.48 -25.45 46.65
v 72.01 -25.45 22.75
v 75.97 2.83 24
v 48.48 -25.45 46.65
v 75.97 2.83 24
v 62.53 2.83 60.17
v 72.01 -25.45 22.75
v 50.76 -25.45 -40.14
v 70.6 2.83 -55.83
v 72.01 -25.45 22.75
v 70.6 2.83 -55.83
v 75.97 2.83 24
v 50.76 -25.45 -40.14
v 23.11 -25.45 -53.27
v 30.85 2.83 -71.09
v 50.76 -25.45 -40.14
v 30.85 2.83 -71.09
v 70.6 2.83 -55.83
v 23.11 -25.45 -53.27
v -20.54 -25.45 -68.51
v -20.25 2.83 -67.53
v 23.11 -25.45 -53.27
v -20.25 2.83 -67.53
v 30.85 2.83 -71.09
v -20.54 -25.45 -68.51
v -53.57 -25.45 -43.16
v -73.48 2.83 -59.19
v -20.54 -25.45 -68.51
v -73.48 2.83 -59.19
v -20.25 2.83 -67.53
v -53.57 -25.45 -43.16
v -55.16 -25.45 13.77
v -90.91 2.83 22.7
v -53.57 -25.45 -43.16
v -90.91 2.83 22.7
v -73.48 2.83 -59.19
v -55.16 -25.45 13.77
v -46.49 -25.45 40.21
v -66.15 2.83 57.21
v -55.16 -25.45 13.77
v -66.15 2.83 57.21
v -90.91 2.83 22.7
v -46.49 -25.45 40.21
v -1.38 -25.45 56.51
v -1.7 2.83 69.69
v -46.49 -25.45 40.21
v -1.7 2.83 69.69
v -66.15 2.83 57.21
v -1.7 2.83 69.69
v 62.53 2.83 60.17
v 44.93 31.1 43.23
v -1.7 2.83 69.69
v 44.93 31.1 43.23
v -1.62 31.1 66.43
v 62.53 2.83 60.17
v 75.97 2.83 24
v 58.44 31.1 18.47
v 62.53 2.83 60.17
v 58.44 31.1 18.47
v 44.93 31.1 43.23
v 75.97 2.83 24
v 70.6 2.83 -55.83
v 58.04 31.1 -45.89
v 75.97 2.83 24
v 58.04 31.1 -45.89
v 58.44 31.1 18.47
v 70.6 2.83 -55.83
v 30.85 2.83 -71.09
v 23.61 31.1 -54.41
v 70.6 2.83 -55.83
v 23.61 31.1 -54.41
v 58.04 31.1 -45.89
v 30.85 2.83 -71.09
v -20.25 2.83 -67.53
v -18.85 31.1 -62.86
v 30.85 2.83 -71.09
v -18.85 31.1 -62.86
v 23.61 31.1 -54.41
v -20.25 2.83 -67.53
v -73.48 2.83 -59.19
v -50.63 31.1 -40.78
v -20.25 2.83 -67.53
v -50.63 31.1 -40.78
v -18.85 31.1 -62.86
v -73.48 2.83 -59.19
v -90.91 2.83 22.7
v -57.44 31.1 14.34
v -73.48 2.83 -59.19
v -57.44 31.1 14.34
v -50.63 31.1 -40.78
v -90.91 2.83 22.7
v -66.15 2.83 57.21
v -43.52 31.1 37.64
v -90.91 2.83 22.7
v -43.52 31.1 37.64
v -57.44 31.1 14.34
v -66.15 2.83 57.21
v -1.7 2.83 69.69
v -1.62 31.1 66.43
v -66.15 2.83 57.21
v -1.62 31.1 66.43
v -43.52 31.1 37.64
v -1.62 31.1 66.43
v 44.93 31.1 43.23
v 28.32 53.72 27.25
v -1.62 31.1 66.43
v 28.32 53.72 27.25
v -1.03 53.72 42.37
v 44.93 31.1 43.23
v 58.44 31.1 18.47
v 42.6 53.72 13.46
v 44.93 31.1 43.23
v 42.6 53.72 13.46
v 28.32 53.72 27.25
v 58.44 31.1 18.47
v 58.04 31.1 -45.89
v 37.37 53.72 -29.55
v 58.44 31.1 18.47
v 37.37 53.72 -29.55
v 42.6 53.72 13.46
v 58.04 31.1 -45.89
v 23.61 31.1 -54.41
v 13.47 53.72 -31.04
v 58.04 31.1 -45.89
v 13.47 53.72 -31.04
v 37.37 53.72 -29.55
v 23.61 31.1 -54.41
v -18.85 31.1 -62.86
v -11.24 53.72 -37.48
v 23.61 31.1 -54.41
v -11.24 53.72 -37.48
v 13.47 53.72 -31.04
v -18.85 31.1 -62.86
v -50.63 31.1 -40.78
v -36.55 53.72 -29.44
v -18.85 31.1 -62.86
v -36.55 53.72 -29.44
v -11.24 53.72 -37.48
v -50.63 31.1 -40.78
v -57.44 31.1 14.34
v -44.49 53.72 11.11
v -50.63 31.1 -40.78
v -44.49 53.72 11.11
v -36.55 53.72 -29.44
v -57.44 31.1 14.34
v -43.52 31.1 37.64
v -26.1 53.72 22.57
v -57.44 31.1 14.34
v -26.1 53.72 22.57
v -44.49 53.72 11.11
v -43.52 31.1 37.64
v -1.62 31.1 66.43
v -1.03 53.72 42.37
v -43.52 31.1 37.64
v -1.03 53.72 42.37
v -26.1 53.72 22.57
v -1.03 53.72 42.37
v 28.32 53.72 27.25
v 7.61 70.68 7.32
v -1.03 53.72 42.37
v 7.61 70.68 7.32
v -0.22 70.68 8.87
v 28.32 53.72 27.25
v 42.6 53.72 13.46
v 9.99 70.68 3.16
v 28.32 53.72 27.25
v 9.99 70.68 3.16
v 7.61 70.68 7.32
v 42.6 53.72 13.46
v 37.37 53.72 -29.55
v 7.58 70.68 -6
v 42.6 53.72 13.46
v 7.58 70.68 -6
v 9.99 70.68 3.16
v 37.37 53.72 -29.55
v 13.47 53.72 -31.04
v 4.55 70.68 -10.48
v 37.37 53.72 -29.55
v 4.55 70.68 -10.48
v 7.58 70.68 -6
v 13.47 53.72 -31.04
v -11.24 53.72 -37.48
v -2.61 70.68 -8.69
v 13.47 53.72 -31.04
v -2.61 70.68 -8.69
v 4.55 70.68 -10.48
v -11.24 53.72 -37.48
v -36.55 53.72 -29.44
v -6.47 70.68 -5.21
v -11.24 53.72 -37.48
v -6.47 70.68 -5.21
v -2.61 70.68 -8.69
v -36.55 53.72 -29.44
v -44.49 53.72 11.11
v -10.28 70.68 2.57
v -36.55 53.72 -29.44
v -10.28 70.68 2.57
v -6.47 70.68 -5.21
v -44.49 53.72 11.11
v -26.1 53.72 22.57
v -6.59 70.68 5.7
v -44.49 53.72 11.11
v -6.59 70.68 5.7
v -10.28 70.68 2.57
v -26.1 53.72 22.57
v -1.03 53.72 42.37
v -0.22 70.68 8.87
v -26.1 53.72 22.57
v -0.22 70.68 8.87
v -6.59 70.68 5.7
v -0.08 -70.68 -0.44
v 5.9 -70.68 5.67
v -0.17 -70.68 6.83
v -0.08 -70.68 -0.44
v 7.51 -70.68 2.37
v 5.9 -70.68 5.67
v -0.08 -70.68 -0.44
v 6.9 -70.68 -5.46
v 7.51 -70.68 2.37
v -0.08 -70.68 -0.44
v 3.11 -70.68 -7.16
v 6.9 -70.68 -5.46
v -0.08 -70.68 -0.44
v -2.16 -70.68 -7.2
v 3.11 -70.68 -7.16
v -0.08 -70.68 -0.44
v -7.31 -70.68 -5.89
v -2.16 -70.68 -7.2
v -0.08 -70.68 -0.44
v -9.17 -70.68 2.29
v -7.31 -70.68 -5.89
v -0.08 -70.68 -0.44
v -5.35 -70.68 4.62
v -9.17 -70.68 2.29
v -0.08 -70.68 -0.44
v -0.17 -70.68 6.83
v -5.35 -70.68 4.62
v 0.4 70.68 -0.31
v -0.22 70.68 8.87
v 7.61 70.68 7.32
v 0.4 70.68 -0.31
v 7.61 70.68 7.32
v 9.99 70.68 3.16
v 0.4 70.68 -0.31
v 9.99 70.68 3.16
v 7.58 70.68 -6
v 0.4 70.68 -0.31
v 7.58 70.68 -6
v 4.55 70.68 -10.48
v 0.4 70.68 -0.31
v 4.55 70.68 -10.48
v -2.61 70.68 -8.69
v 0.4 70.68 -0.31
v -2.61 70.68 -8.69
v -6.47 70.68 -5.21
v 0.4 70.68 -0.31
v -6.47 70.68 -5.21
v -10.28 70.68 2.57
v 0.4 70.68 -0.31
v -10.28 70.68 2.57
v -6.59 70.68 5.7
v 0.4 70.68 -0.31
v -6.59 70.68 5.7
v -0.22 70.68 8.87
vn 0.12 -0.78 0.62
vn 0.12 -0.78 0.62
vn 0.12 -0.78 0.62
vn 0.26 -0.84 0.47
vn 0.26 -0.84 0.47
vn 0.26 -0.84 0.47
vn 0.57 -0.78 0.28
vn 0.57 -0.78 0.28
vn 0.57 -0.78 0.28
vn 0.6 -0.79 0.12
vn 0.6 -0.79 0.12
vn 0.6 -0.79 0.12
vn 0.56 -0.83 -0.04
vn 0.56 -0.83 -0.04
vn 0.56 -0.83 -0.04
vn 0.63 -0.77 0.06
vn 0.63 -0.77 0.06
vn 0.63 -0.77 0.06
vn 0.25 -0.79 -0.56
vn 0.25 -0.79 -0.56
vn 0.25 -0.79 -0.56
vn 0.1 -0.8 -0.6
vn 0.1 -0.8 -0.6
vn 0.1 -0.8 -0.6
vn 0 -0.85 -0.53
vn 0 -0.85 -0.53
vn 0 -0.85 -0.53
vn 0.18 -0.79 -0.58
vn 0.18 -0.79 -0.58
vn 0.18 -0.79 -0.58
vn -0.17 -0.71 -0.69
vn -0.17 -0.71 -0.69
vn -0.17 -0.71 -0.69
vn -0.44 -0.81 -0.38
vn -0.44 -0.81 -0.38
vn -0.44 -0.81 -0.38
vn -0.65 -0.74 -0.15
vn -0.65 -0.74 -0.15
vn -0.65 -0.74 -0.15
vn -0.65 -0.75 -0.15
vn -0.65 -0.75 -0.15
vn -0.65 -0.75 -0.15
vn -0.33 -0.77 0.55
vn -0.33 -0.77 0.55
vn -0.33 -0.77 0.55
vn -0.53 -0.76 0.38
vn -0.53 -0.76 0.38
vn -0.53 -0.76 0.38
vn -0.2 -0.86 0.47
vn -0.2 -0.86 0.47
vn -0.2 -0.86 0.47
vn -0.43 -0.78 0.46
vn -0.43 -0.78 0.46
vn -0.43 -0.78 0.46
vn 0.33 -0.74 0.59
vn 0.33 -0.74 0.59
vn 0.33 -0.74 0.59
vn 0.17 -0.48 0.86
vn 0.17 -0.48 0.86
vn 0.17 -0.48 0.86
vn 0.5 -0.86 0.1
vn 0.5 -0.86 0.1
vn 0.5 -0.86 0.1
vn 0.47 -0.75 0.46
vn 0.47 -0.75 0.46
vn 0.47 -0.75 0.46
vn 0.86 -0.51 0.08
vn 0.86 -0.51 0.08
vn 0.86 -0.51 0.08
vn 0.56 -0.81 -0.19
vn 0.56 -0.81 -0.19
vn 0.56 -0.81 -0.19
vn 0.12 -0.68 -0.72
vn 0.12 -0.68 -0.72
vn 0.12 -0.68 -0.72
vn 0.35 -0.59 -0.73
vn 0.35 -0.59 -0.73
vn 0.35 -0.59 -0.73
vn 0.21 -0.71 -0.67
vn 0.21 -0.71 -0.67
vn 0.21 -0.71 -0.67
vn 0.24 -0.69 -0.68
vn 0.24 -0.69 -0.68
vn 0.24 -0.69 -0.68
vn -0.45 -0.81 -0.39
vn -0.45 -0.81 -0.39
vn -0.45 -0.81 -0.39
vn -0.4 -0.75 -0.52
vn -0.4 -0.75 -0.52
vn -0.4 -0.75 -0.52
vn -0.76 -0.62 -0.17
vn -0.76 -0.62 -0.17
vn -0.76 -0.62 -0.17
vn -0.68 -0.74 -0.02
vn -0.68 -0.74 -0.02
vn -0.68 -0.74 -0.02
vn -0.53 -0.76 0.38
vn -0.53 -0.76 0.38
vn -0.53 -0.76 0.38
vn -0.71 -0.66 0.23
vn -0.71 -0.66 0.23
vn -0.71 -0.66 0.23
vn -0.63 -0.38 0.67
vn -0.63 -0.38 0.67
vn -0.63 -0.38 0.67
vn -0.24 -0.71 0.66
vn -0.24 -0.71 0.66
vn -0.24 -0.71 0.66
vn 0.17 -0.49 0.85
vn 0.17 -0.49 0.85
vn 0.17 -0.49 0.85
vn 0.13 -0.42 0.9
vn 0.13 -0.42 0.9
vn 0.13 -0.42 0.9
vn 0.71 -0.13 0.7
vn 0.71 -0.13 0.7
vn 0.71 -0.13 0.7
vn 0.79 -0.53 0.29
vn 0.79 -0.53 0.29
vn 0.79 -0.53 0.29
vn 0.72 -0.64 -0.24
vn 0.72 -0.64 -0.24
vn 0.72 -0.64 -0.24
vn 0.99 -0.14 -0.07
vn 0.99 -0.14 -0.07
vn 0.99 -0.14 -0.07
vn 0.35 -0.57 -0.74
vn 0.35 -0.57 -0.74
vn 0.35 -0.57 -0.74
vn 0.28 -0.61 -0.74
vn 0.28 -0.61 -0.74
vn 0.28 -0.61 -0.74
vn 0.33 0.03 -0.94
vn 0.33 0.03 -0.94
vn 0.33 0.03 -0.94
vn -0.06 -0.52 -0.85
vn -0.06 -0.52 -0.85
vn -0.06 -0.52 -0.85
vn -0.46 -0.66 -0.6
vn -0.46 -0.66 -0.6
vn -0.46 -0.66 -0.6
vn -0.15 0.04 -0.99
vn -0.15 0.04 -0.99
vn -0.15 0.04 -0.99
vn -0.62 -0.78 -0.02
vn -0.62 -0.78 -0.02
vn -0.62 -0.78 -0.02
vn -0.76 -0.63 -0.16
vn -0.76 -0.63 -0.16
vn -0.76 -0.63 -0.16
vn -0.72 -0.65 0.24
vn -0.72 -0.65 0.24
vn -0.72 -0.65 0.24
vn -0.52 -0.77 0.37
vn -0.52 -0.77 0.37
vn -0.52 -0.77 0.37
vn -0.31 -0.4 0.86
vn -0.31 -0.4 0.86
vn -0.31 -0.4 0.86
vn -0.15 -0.59 0.8
vn -0.15 -0.59 0.8
vn -0.15 -0.59 0.8
vn 0.12 0.56 0.82
vn 0.12 0.56 0.82
vn 0.12 0.56 0.82
vn 0.44 0.1 0.89
vn 0.44 0.1 0.89
vn 0.44 0.1 0.89
vn 0.79 0.54 0.29
vn 0.79 0.54 0.29
vn 0.79 0.54 0.29
vn 0.67 0.64 0.37
vn 0.67 0.64 0.37
vn 0.67 0.64 0.37
vn 0.9 0.42 -0.06
vn 0.9 0.42 -0.06
vn 0.9 0.42 -0.06
vn 0.85 0.53 -0.01
vn 0.85 0.53 -0.01
vn 0.85 0.53 -0.01
vn 0.3 0.54 -0.79
vn 0.3 0.54 -0.79
vn 0.3 0.54 -0.79
vn 0.22 0.41 -0.89
vn 0.22 0.41 -0.89
vn 0.22 0.41 -0.89
vn -0.07 0.17 -0.98
vn -0.07 0.17 -0.98
vn -0.07 0.17 -0.98
vn 0.17 0.53 -0.83
vn 0.17 0.53 -0.83
vn 0.17 0.53 -0.83
vn -0.12 0.61 -0.78
vn -0.12 0.61 -0.78
vn -0.12 0.61 -0.78
vn -0.56 0.16 -0.81
vn -0.56 0.16 -0.81
vn -0.56 0.16 -0.81
vn -0.66 0.74 -0.14
vn -0.66 0.74 -0.14
vn -0.66 0.74 -0.14
vn -0.74 0.66 -0.09
vn -0.74 0.66 -0.09
vn -0.74 0.66 -0.09
vn -0.56 0.73 0.4
vn -0.56 0.73 0.4
vn -0.56 0.73 0.4
vn -0.56 0.76 0.33
vn -0.56 0.76 0.33
vn -0.56 0.76 0.33
vn -0.19 0.11 0.98
vn -0.19 0.11 0.98
vn -0.19 0.11 0.98
vn -0.4 0.72 0.58
vn -0.4 0.72 0.58
vn -0.4 0.72 0.58
vn 0.32 0.69 0.65
vn 0.32 0.69 0.65
vn 0.32 0.69 0.65
vn 0.33 0.68 0.65
vn 0.33 0.68 0.65
vn 0.33 0.68 0.65
vn 0.71 0.58 0.39
vn 0.71 0.58 0.39
vn 0.71 0.58 0.39
vn 0.49 0.71 0.5
vn 0.49 0.71 0.5
vn 0.49 0.71 0.5
vn 0.74 0.68 0
vn 0.74 0.68 0
vn 0.74 0.68 0
vn 0.83 0.56 -0.1
vn 0.83 0.56 -0.1
vn 0.83 0.56 -0.1
vn 0.16 0.74 -0.65
vn 0.16 0.74 -0.65
vn 0.16 0.74 -0.65
vn 0.05 0.61 -0.79
vn 0.05 0.61 -0.79
vn 0.05 0.61 -0.79
vn 0.14 0.72 -0.68
vn 0.14 0.72 -0.68
vn 0.14 0.72 -0.68
vn 0.17 0.74 -0.65
vn 0.17 0.74 -0.65
vn 0.17 0.74 -0.65
vn -0.45 0.61 -0.65
vn -0.45 0.61 -0.65
vn -0.45 0.61 -0.65
vn -0.2 0.76 -0.62
vn -0.2 0.76 -0.62
vn -0.2 0.76 -0.62
vn -0.87 0.48 -0.11
vn -0.87 0.48 -0.11
vn -0.87 0.48 -0.11
vn -0.8 0.58 -0.16
vn -0.8 0.58 -0.16
vn -0.8 0.58 -0.16
vn -0.61 0.71 0.36
vn -0.61 0.71 0.36
vn -0.61 0.71 0.36
vn -0.49 0.39 0.78
vn -0.49 0.39 0.78
vn -0.49 0.39 0.78
vn -0.42 0.67 0.62
vn -0.42 0.67 0.62
vn -0.42 0.67 0.62
vn -0.44 0.71 0.55
vn -0.44 0.71 0.55
vn -0.44 0.71 0.55
vn 0.24 0.85 0.47
vn 0.24 0.85 0.47
vn 0.24 0.85 0.47
vn 0.09 0.89 0.45
vn 0.09 0.89 0.45
vn 0.09 0.89 0.45
vn 0.34 0.87 0.35
vn 0.34 0.87 0.35
vn 0.34 0.87 0.35
vn 0.45 0.85 0.26
vn 0.45 0.85 0.26
vn 0.45 0.85 0.26
vn 0.46 0.89 -0.06
vn 0.46 0.89 -0.06
vn 0.46 0.89 -0.06
vn 0.49 0.86 -0.13
vn 0.49 0.86 -0.13
vn 0.49 0.86 -0.13
vn 0.04 0.78 -0.63
vn 0.04 0.78 -0.63
vn 0.04 0.78 -0.63
vn 0.34 0.91 -0.23
vn 0.34 0.91 -0.23
vn 0.34 0.91 -0.23
vn 0.14 0.83 -0.53
vn 0.14 0.83 -0.53
vn 0.14 0.83 -0.53
vn -0.17 0.72 -0.67
vn -0.17 0.72 -0.67
vn -0.17 0.72 -0.67
vn -0.14 0.88 -0.44
vn -0.14 0.88 -0.44
vn -0.14 0.88 -0.44
vn -0.35 0.85 -0.39
vn -0.35 0.85 -0.39
vn -0.35 0.85 -0.39
vn -0.46 0.88 -0.09
vn -0.46 0.88 -0.09
vn -0.46 0.88 -0.09
vn -0.37 0.91 -0.18
vn -0.37 0.91 -0.18
vn -0.37 0.91 -0.18
vn -0.3 0.82 0.48
vn -0.3 0.82 0.48
vn -0.3 0.82 0.48
vn -0.33 0.86 0.39
vn -0.33 0.86 0.39
vn -0.33 0.86 0.39
vn -0.33 0.84 0.42
vn -0.33 0.84 0.42
vn -0.33 0.84 0.42
vn -0.26 0.81 0.52
vn -0.26 0.81 0.52
vn -0.26 0.81 0.52
vn 0 -1 0
vn 0 -1 0
vn 0 -1 0
vn 0 -1 0
vn 0 -1 0
vn 0 -1 0
vn 0 -1 0
vn 0 -1 0
vn 0 -1 0
vn 0 -1 0
vn 0 -1 0
vn 0 -1 0
vn 0 -1 0
vn 0 -1 0
vn 0 -1 0
vn 0 -1 0
vn 0 -1 0
vn 0 -1 0
vn 0 -1 0
vn 0 -1 0
vn 0 -1 0
vn 0 -1 0
vn 0 -1 0
vn 0 -1 0
vn 0 -1 0
vn 0 -1 0
vn 0 -1 0
vn 0 1 0
vn 0 1 0
vn 0 1 0
vn 0 1 0
vn 0 1 0
vn 0 1 0
vn 0 1 0
vn 0 1 0
vn 0 1 0
vn 0 1 0
vn 0 1 0
vn 0 1 0
vn 0 1 0
vn 0 1 0
vn 0 1 0
vn 0 1 0
vn 0 1 0
vn 0 1 0
vn 0 1 0
vn 0 1 0
vn 0 1 0
vn 0 1 0
vn 0 1 0
vn 0 1 0
vn 0 1 0
vn 0 1 0
vn 0 1 0
usemtl OC_Hull
s off
f 1//1 2//2 3//3
f 4//4 5//5 6//6
f 7//7 8//8 9//9
f 10//10 11//11 12//12
f 13//13 14//14 15//15
f 16//16 17//17 18//18
f 19//19 20//20 21//21
f 22//22 23//23 24//24
f 25//25 26//26 27//27
f 28//28 29//29 30//30
f 31//31 32//32 33//33
f 34//34 35//35 36//36
f 37//37 38//38 39//39
f 40//40 41//41 42//42
f 43//43 44//44 45//45
f 46//46 47//47 48//48
f 49//49 50//50 51//51
f 52//52 53//53 54//54
f 55//55 56//56 57//57
f 58//58 59//59 60//60
f 61//61 62//62 63//63
f 64//64 65//65 66//66
f 67//67 68//68 69//69
f 70//70 71//71 72//72
f 73//73 74//74 75//75
f 76//76 77//77 78//78
f 79//79 80//80 81//81
f 82//82 83//83 84//84
f 85//85 86//86 87//87
f 88//88 89//89 90//90
f 91//91 92//92 93//93
f 94//94 95//95 96//96
f 97//97 98//98 99//99
f 100//100 101//101 102//102
f 103//103 104//104 105//105
f 106//106 107//107 108//108
f 109//109 110//110 111//111
f 112//112 113//113 114//114
f 115//115 116//116 117//117
f 118//118 119//119 120//120
f 121//121 122//122 123//123
f 124//124 125//125 126//126
f 127//127 128//128 129//129
f 130//130 131//131 132//132
f 133//133 134//134 135//135
f 136//136 137//137 138//138
f 139//139 140//140 141//141
f 142//142 143//143 144//144
f 145//145 146//146 147//147
f 148//148 149//149 150//150
f 151//151 152//152 153//153
f 154//154 155//155 156//156
f 157//157 158//158 159//159
f 160//160 161//161 162//162
f 163//163 164//164 165//165
f 166//166 167//167 168//168
f 169//169 170//170 171//171
f 172//172 173//173 174//174
f 175//175 176//176 177//177
f 178//178 179//179 180//180
f 181//181 182//182 183//183
f 184//184 185//185 186//186
f 187//187 188//188 189//189
f 190//190 191//191 192//192
f 193//193 194//194 195//195
f 196//196 197//197 198//198
f 199//199 200//200 201//201
f 202//202 203//203 204//204
f 205//205 206//206 207//207
f 208//208 209//209 210//210
f 211//211 212//212 213//213
f 214//214 215//215 216//216
f 217//217 218//218 219//219
f 220//220 221//221 222//222
f 223//223 224//224 225//225
f 226//226 227//227 228//228
f 229//229 230//230 231//231
f 232//232 233//233 234//234
f 235//235 236//236 237//237
f 238//238 239//239 240//240
f 241//241 242//242 243//243
f 244//244 245//245 246//246
f 247//247 248//248 249//249
f 250//250 251//251 252//252
f 253//253 254//254 255//255
f 256//256 257//257 258//258
f 259//259 260//260 261//261
f 262//262 263//263 264//264
f 265//265 266//266 267//267
f 268//268 269//269 270//270
f 271//271 272//272 273//273
f 274//274 275//275 276//276
f 277//277 278//278 279//279
f 280//280 281//281 282//282
f 283//283 284//284 285//285
f 286//286 287//287 288//288
f 289//289 290//290 291//291
f 292//292 293//293 294//294
f 295//295 296//296 297//297
f 298//298 299//299 300//300
f 301//301 302//302 303//303
f 304//304 305//305 306//306
f 307//307 308//308 309//309
f 310//310 311//311 312//312
f 313//313 314//314 315//315
f 316//316 317//317 318//318
f 319//319 320//320 321//321
f 322//322 323//323 324//324
f 325//325 326//326 327//327
f 328//328 329//329 330//330
f 331//331 332//332 333//333
f 334//334 335//335 336//336
f 337//337 338//338 339//339
f 340//340 341//341 342//342
f 343//343 344//344 345//345
f 346//346 347//347 348//348
f 349//349 350//350 351//351
f 352//352 353//353 354//354
f 355//355 356//356 357//357
f 358//358 359//359 360//360
f 361//361 362//362 363//363
f 364//364 365//365 366//366
f 367//367 368//368 369//369
f 370//370 371//371 372//372
f 373//373 374//374 375//375
f 376//376 377//377 378//378
