# Outpost Commander — AsteroidC
# asteroid variant C, seed 31337; nine-sided, seven sections, no preferred axis
# Generated from meshes.json (outpost-commander-mesh-handoff/2) — do not hand-edit.
# LEFT-HANDED, Y up, +Z forward. Plane is Y=0. Mesh origin = simulated entity position.
# World units 1:1 — the authored extent IS the object's size; never scaled at draw time.
# Face-split vertices, baked per-face normals. No welding, no smoothing groups, no vt.
# extents  min -51.49 -40.8 -46.92  max 59.63 40.8 46.62  size 111.12 81.6 93.54
# 126 triangles, 378 vertices
# Vertex colour selector is NOT in this file. See AsteroidC.vcol — one line per v record, same order.
mtllib OC_Hull.mtl
o AsteroidC
v 0.25 -40.8 4.6
v 3.57 -40.8 4.19
v 13.33 -29.37 15.64
v 0.25 -40.8 4.6
v 13.33 -29.37 15.64
v 1.4 -29.37 25.25
v 3.57 -40.8 4.19
v 5.14 -40.8 0.64
v 26.86 -29.37 3.34
v 3.57 -40.8 4.19
v 26.86 -29.37 3.34
v 13.33 -29.37 15.64
v 5.14 -40.8 0.64
v 5.29 -40.8 -2.91
v 20.64 -29.37 -11.34
v 5.14 -40.8 0.64
v 20.64 -29.37 -11.34
v 26.86 -29.37 3.34
v 5.29 -40.8 -2.91
v 1.31 -40.8 -4.2
v 6.83 -29.37 -21.88
v 5.29 -40.8 -2.91
v 6.83 -29.37 -21.88
v 20.64 -29.37 -11.34
v 1.31 -40.8 -4.2
v -2.2 -40.8 -4.74
v -11.38 -29.37 -24.52
v 1.31 -40.8 -4.2
v -11.38 -29.37 -24.52
v 6.83 -29.37 -21.88
v -2.2 -40.8 -4.74
v -3.53 -40.8 -2.69
v -17.54 -29.37 -13.36
v -2.2 -40.8 -4.74
v -17.54 -29.37 -13.36
v -11.38 -29.37 -24.52
v -3.53 -40.8 -2.69
v -5.4 -40.8 0.23
v -20.33 -29.37 0.88
v -3.53 -40.8 -2.69
v -20.33 -29.37 0.88
v -17.54 -29.37 -13.36
v -5.4 -40.8 0.23
v -2.45 -40.8 3.73
v -12.76 -29.37 19.45
v -5.4 -40.8 0.23
v -12.76 -29.37 19.45
v -20.33 -29.37 0.88
v -2.45 -40.8 3.73
v 0.25 -40.8 4.6
v 1.4 -29.37 25.25
v -2.45 -40.8 3.73
v 1.4 -29.37 25.25
v -12.76 -29.37 19.45
v 1.4 -29.37 25.25
v 13.33 -29.37 15.64
v 29.95 -14.69 35.14
v 1.4 -29.37 25.25
v 29.95 -14.69 35.14
v 2.53 -14.69 45.7
v 13.33 -29.37 15.64
v 26.86 -29.37 3.34
v 34.96 -14.69 4.34
v 13.33 -29.37 15.64
v 34.96 -14.69 4.34
v 29.95 -14.69 35.14
v 26.86 -29.37 3.34
v 20.64 -29.37 -11.34
v 30.97 -14.69 -17.01
v 26.86 -29.37 3.34
v 30.97 -14.69 -17.01
v 34.96 -14.69 4.34
v 20.64 -29.37 -11.34
v 6.83 -29.37 -21.88
v 13.1 -14.69 -41.98
v 20.64 -29.37 -11.34
v 13.1 -14.69 -41.98
v 30.97 -14.69 -17.01
v 6.83 -29.37 -21.88
v -11.38 -29.37 -24.52
v -19.75 -14.69 -42.55
v 6.83 -29.37 -21.88
v -19.75 -14.69 -42.55
v 13.1 -14.69 -41.98
v -11.38 -29.37 -24.52
v -17.54 -29.37 -13.36
v -32.78 -14.69 -24.97
v -11.38 -29.37 -24.52
v -32.78 -14.69 -24.97
v -19.75 -14.69 -42.55
v -17.54 -29.37 -13.36
v -20.33 -29.37 0.88
v -45.65 -14.69 1.98
v -17.54 -29.37 -13.36
v -45.65 -14.69 1.98
v -32.78 -14.69 -24.97
v -20.33 -29.37 0.88
v -12.76 -29.37 19.45
v -19.22 -14.69 29.29
v -20.33 -29.37 0.88
v -19.22 -14.69 29.29
v -45.65 -14.69 1.98
v -12.76 -29.37 19.45
v 1.4 -29.37 25.25
v 2.53 -14.69 45.7
v -12.76 -29.37 19.45
v 2.53 -14.69 45.7
v -19.22 -14.69 29.29
v 2.53 -14.69 45.7
v 29.95 -14.69 35.14
v 34.63 1.63 40.62
v 2.53 -14.69 45.7
v 34.63 1.63 40.62
v 2.58 1.63 46.62
v 29.95 -14.69 35.14
v 34.96 -14.69 4.34
v 59.63 1.63 7.41
v 29.95 -14.69 35.14
v 59.63 1.63 7.41
v 34.63 1.63 40.62
v 34.96 -14.69 4.34
v 30.97 -14.69 -17.01
v 47.07 1.63 -25.85
v 34.96 -14.69 4.34
v 47.07 1.63 -25.85
v 59.63 1.63 7.41
v 30.97 -14.69 -17.01
v 13.1 -14.69 -41.98
v 14.64 1.63 -46.92
v 30.97 -14.69 -17.01
v 14.64 1.63 -46.92
v 47.07 1.63 -25.85
v 13.1 -14.69 -41.98
v -19.75 -14.69 -42.55
v -20.16 1.63 -43.45
v 13.1 -14.69 -41.98
v -20.16 1.63 -43.45
v 14.64 1.63 -46.92
v -19.75 -14.69 -42.55
v -32.78 -14.69 -24.97
v -34.01 1.63 -25.91
v -19.75 -14.69 -42.55
v -34.01 1.63 -25.91
v -20.16 1.63 -43.45
v -32.78 -14.69 -24.97
v -45.65 -14.69 1.98
v -51.49 1.63 2.23
v -32.78 -14.69 -24.97
v -51.49 1.63 2.23
v -34.01 1.63 -25.91
v -45.65 -14.69 1.98
v -19.22 -14.69 29.29
v -25.65 1.63 39.08
v -45.65 -14.69 1.98
v -25.65 1.63 39.08
v -51.49 1.63 2.23
v -19.22 -14.69 29.29
v 2.53 -14.69 45.7
v 2.58 1.63 46.62
v -19.22 -14.69 29.29
v 2.58 1.63 46.62
v -25.65 1.63 39.08
v 2.58 1.63 46.62
v 34.63 1.63 40.62
v 31.24 17.95 36.65
v 2.58 1.63 46.62
v 31.24 17.95 36.65
v 2.43 17.95 43.98
v 34.63 1.63 40.62
v 59.63 1.63 7.41
v 43.53 17.95 5.41
v 34.63 1.63 40.62
v 43.53 17.95 5.41
v 31.24 17.95 36.65
v 59.63 1.63 7.41
v 47.07 1.63 -25.85
v 38.62 17.95 -21.21
v 59.63 1.63 7.41
v 38.62 17.95 -21.21
v 43.53 17.95 5.41
v 47.07 1.63 -25.85
v 14.64 1.63 -46.92
v 14.58 17.95 -46.74
v 47.07 1.63 -25.85
v 14.58 17.95 -46.74
v 38.62 17.95 -21.21
v 14.64 1.63 -46.92
v -20.16 1.63 -43.45
v -18.41 17.95 -39.67
v 14.64 1.63 -46.92
v -18.41 17.95 -39.67
v 14.58 17.95 -46.74
v -20.16 1.63 -43.45
v -34.01 1.63 -25.91
v -34.7 17.95 -26.43
v -20.16 1.63 -43.45
v -34.7 17.95 -26.43
v -18.41 17.95 -39.67
v -34.01 1.63 -25.91
v -51.49 1.63 2.23
v -44.99 17.95 1.95
v -34.01 1.63 -25.91
v -44.99 17.95 1.95
v -34.7 17.95 -26.43
v -51.49 1.63 2.23
v -25.65 1.63 39.08
v -21.31 17.95 32.47
v -51.49 1.63 2.23
v -21.31 17.95 32.47
v -44.99 17.95 1.95
v -25.65 1.63 39.08
v 2.58 1.63 46.62
v 2.43 17.95 43.98
v -25.65 1.63 39.08
v 2.43 17.95 43.98
v -21.31 17.95 32.47
v 2.43 17.95 43.98
v 31.24 17.95 36.65
v 19.55 31.01 22.93
v 2.43 17.95 43.98
v 19.55 31.01 22.93
v 1.51 31.01 27.34
v 31.24 17.95 36.65
v 43.53 17.95 5.41
v 24.04 31.01 2.99
v 31.24 17.95 36.65
v 24.04 31.01 2.99
v 19.55 31.01 22.93
v 43.53 17.95 5.41
v 38.62 17.95 -21.21
v 24.19 31.01 -13.29
v 43.53 17.95 5.41
v 24.19 31.01 -13.29
v 24.04 31.01 2.99
v 38.62 17.95 -21.21
v 14.58 17.95 -46.74
v 7.88 31.01 -25.25
v 38.62 17.95 -21.21
v 7.88 31.01 -25.25
v 24.19 31.01 -13.29
v 14.58 17.95 -46.74
v -18.41 17.95 -39.67
v -9.85 31.01 -21.23
v 14.58 17.95 -46.74
v -9.85 31.01 -21.23
v 7.88 31.01 -25.25
v -18.41 17.95 -39.67
v -34.7 17.95 -26.43
v -21.49 31.01 -16.37
v -18.41 17.95 -39.67
v -21.49 31.01 -16.37
v -9.85 31.01 -21.23
v -34.7 17.95 -26.43
v -44.99 17.95 1.95
v -25.08 31.01 1.09
v -34.7 17.95 -26.43
v -25.08 31.01 1.09
v -21.49 31.01 -16.37
v -44.99 17.95 1.95
v -21.31 17.95 32.47
v -13.56 31.01 20.66
v -44.99 17.95 1.95
v -13.56 31.01 20.66
v -25.08 31.01 1.09
v -21.31 17.95 32.47
v 2.43 17.95 43.98
v 1.51 31.01 27.34
v -21.31 17.95 32.47
v 1.51 31.01 27.34
v -13.56 31.01 20.66
v 1.51 31.01 27.34
v 19.55 31.01 22.93
v 4.43 40.8 5.2
v 1.51 31.01 27.34
v 4.43 40.8 5.2
v 0.35 40.8 6.24
v 19.55 31.01 22.93
v 24.04 31.01 2.99
v 6.75 40.8 0.84
v 19.55 31.01 22.93
v 6.75 40.8 0.84
v 4.43 40.8 5.2
v 24.04 31.01 2.99
v 24.19 31.01 -13.29
v 4.65 40.8 -2.56
v 24.04 31.01 2.99
v 4.65 40.8 -2.56
v 6.75 40.8 0.84
v 24.19 31.01 -13.29
v 7.88 31.01 -25.25
v 1.95 40.8 -6.25
v 24.19 31.01 -13.29
v 1.95 40.8 -6.25
v 4.65 40.8 -2.56
v 7.88 31.01 -25.25
v -9.85 31.01 -21.23
v -2.18 40.8 -4.7
v 7.88 31.01 -25.25
v -2.18 40.8 -4.7
v 1.95 40.8 -6.25
v -9.85 31.01 -21.23
v -21.49 31.01 -16.37
v -4.54 40.8 -3.46
v -9.85 31.01 -21.23
v -4.54 40.8 -3.46
v -2.18 40.8 -4.7
v -21.49 31.01 -16.37
v -25.08 31.01 1.09
v -6.38 40.8 0.28
v -21.49 31.01 -16.37
v -6.38 40.8 0.28
v -4.54 40.8 -3.46
v -25.08 31.01 1.09
v -13.56 31.01 20.66
v -3.26 40.8 4.97
v -25.08 31.01 1.09
v -3.26 40.8 4.97
v -6.38 40.8 0.28
v -13.56 31.01 20.66
v 1.51 31.01 27.34
v 0.35 40.8 6.24
v -13.56 31.01 20.66
v 0.35 40.8 6.24
v -3.26 40.8 4.97
v 0.22 -40.8 -0.13
v 3.57 -40.8 4.19
v 0.25 -40.8 4.6
v 0.22 -40.8 -0.13
v 5.14 -40.8 0.64
v 3.57 -40.8 4.19
v 0.22 -40.8 -0.13
v 5.29 -40.8 -2.91
v 5.14 -40.8 0.64
v 0.22 -40.8 -0.13
v 1.31 -40.8 -4.2
v 5.29 -40.8 -2.91
v 0.22 -40.8 -0.13
v -2.2 -40.8 -4.74
v 1.31 -40.8 -4.2
v 0.22 -40.8 -0.13
v -3.53 -40.8 -2.69
v -2.2 -40.8 -4.74
v 0.22 -40.8 -0.13
v -5.4 -40.8 0.23
v -3.53 -40.8 -2.69
v 0.22 -40.8 -0.13
v -2.45 -40.8 3.73
v -5.4 -40.8 0.23
v 0.22 -40.8 -0.13
v 0.25 -40.8 4.6
v -2.45 -40.8 3.73
v 0.2 40.8 0.06
v 0.35 40.8 6.24
v 4.43 40.8 5.2
v 0.2 40.8 0.06
v 4.43 40.8 5.2
v 6.75 40.8 0.84
v 0.2 40.8 0.06
v 6.75 40.8 0.84
v 4.65 40.8 -2.56
v 0.2 40.8 0.06
v 4.65 40.8 -2.56
v 1.95 40.8 -6.25
v 0.2 40.8 0.06
v 1.95 40.8 -6.25
v -2.18 40.8 -4.7
v 0.2 40.8 0.06
v -2.18 40.8 -4.7
v -4.54 40.8 -3.46
v 0.2 40.8 0.06
v -4.54 40.8 -3.46
v -6.38 40.8 0.28
v 0.2 40.8 0.06
v -6.38 40.8 0.28
v -3.26 40.8 4.97
v 0.2 40.8 0.06
v -3.26 40.8 4.97
v 0.35 40.8 6.24
vn 0.08 -0.74 0.67
vn 0.08 -0.74 0.67
vn 0.08 -0.74 0.67
vn 0.35 -0.83 0.44
vn 0.35 -0.83 0.44
vn 0.35 -0.83 0.44
vn 0.44 -0.88 0.19
vn 0.44 -0.88 0.19
vn 0.44 -0.88 0.19
vn 0.41 -0.8 0.45
vn 0.41 -0.8 0.45
vn 0.41 -0.8 0.45
vn 0.61 -0.8 0.03
vn 0.61 -0.8 0.03
vn 0.61 -0.8 0.03
vn 0.48 -0.86 -0.2
vn 0.48 -0.86 -0.2
vn 0.48 -0.86 -0.2
vn 0.16 -0.85 -0.5
vn 0.16 -0.85 -0.5
vn 0.16 -0.85 -0.5
vn 0.35 -0.81 -0.46
vn 0.35 -0.81 -0.46
vn 0.35 -0.81 -0.46
vn 0.08 -0.85 -0.53
vn 0.08 -0.85 -0.53
vn 0.08 -0.85 -0.53
vn 0.08 -0.85 -0.52
vn 0.08 -0.85 -0.52
vn 0.08 -0.85 -0.52
vn -0.46 -0.84 -0.3
vn -0.46 -0.84 -0.3
vn -0.46 -0.84 -0.3
vn -0.48 -0.84 -0.26
vn -0.48 -0.84 -0.26
vn -0.48 -0.84 -0.26
vn -0.58 -0.73 -0.37
vn -0.58 -0.73 -0.37
vn -0.58 -0.73 -0.37
vn -0.58 -0.81 -0.11
vn -0.58 -0.81 -0.11
vn -0.58 -0.81 -0.11
vn -0.41 -0.84 0.35
vn -0.41 -0.84 0.35
vn -0.41 -0.84 0.35
vn -0.58 -0.78 0.24
vn -0.58 -0.78 0.24
vn -0.58 -0.78 0.24
vn -0.16 -0.86 0.48
vn -0.16 -0.86 0.48
vn -0.16 -0.86 0.48
vn -0.2 -0.85 0.49
vn -0.2 -0.85 0.49
vn -0.2 -0.85 0.49
vn 0.31 -0.87 0.39
vn 0.31 -0.87 0.39
vn 0.31 -0.87 0.39
vn 0.22 -0.8 0.56
vn 0.22 -0.8 0.56
vn 0.22 -0.8 0.56
vn 0.62 -0.39 0.68
vn 0.62 -0.39 0.68
vn 0.62 -0.39 0.68
vn 0.59 -0.8 0.1
vn 0.59 -0.8 0.1
vn 0.59 -0.8 0.1
vn 0.72 -0.62 -0.3
vn 0.72 -0.62 -0.3
vn 0.72 -0.62 -0.3
vn 0.87 -0.47 -0.16
vn 0.87 -0.47 -0.16
vn 0.87 -0.47 -0.16
vn 0.36 -0.8 -0.47
vn 0.36 -0.8 -0.47
vn 0.36 -0.8 -0.47
vn 0.64 -0.62 -0.46
vn 0.64 -0.62 -0.46
vn 0.64 -0.62 -0.46
vn 0.09 -0.75 -0.65
vn 0.09 -0.75 -0.65
vn 0.09 -0.75 -0.65
vn 0.01 -0.81 -0.59
vn 0.01 -0.81 -0.59
vn 0.01 -0.81 -0.59
vn -0.54 -0.79 -0.3
vn -0.54 -0.79 -0.3
vn -0.54 -0.79 -0.3
vn -0.52 -0.77 -0.38
vn -0.52 -0.77 -0.38
vn -0.52 -0.77 -0.38
vn -0.5 -0.86 -0.1
vn -0.5 -0.86 -0.1
vn -0.5 -0.86 -0.1
vn -0.56 -0.79 -0.27
vn -0.56 -0.79 -0.27
vn -0.56 -0.79 -0.27
vn -0.77 -0.55 0.31
vn -0.77 -0.55 0.31
vn -0.77 -0.55 0.31
vn -0.44 -0.79 0.43
vn -0.44 -0.79 0.43
vn -0.44 -0.79 0.43
vn -0.24 -0.78 0.58
vn -0.24 -0.78 0.58
vn -0.24 -0.78 0.58
vn -0.47 -0.62 0.62
vn -0.47 -0.62 0.62
vn -0.47 -0.62 0.62
vn 0.33 -0.38 0.86
vn 0.33 -0.38 0.86
vn 0.33 -0.38 0.86
vn 0.18 -0.06 0.98
vn 0.18 -0.06 0.98
vn 0.18 -0.06 0.98
vn 0.54 -0.84 0.09
vn 0.54 -0.84 0.09
vn 0.54 -0.84 0.09
vn 0.73 -0.4 0.55
vn 0.73 -0.4 0.55
vn 0.73 -0.4 0.55
vn 0.67 -0.73 -0.13
vn 0.67 -0.73 -0.13
vn 0.67 -0.73 -0.13
vn 0.56 -0.8 -0.21
vn 0.56 -0.8 -0.21
vn 0.56 -0.8 -0.21
vn 0.79 -0.25 -0.56
vn 0.79 -0.25 -0.56
vn 0.79 -0.25 -0.56
vn 0.39 -0.7 -0.6
vn 0.39 -0.7 -0.6
vn 0.39 -0.7 -0.6
vn 0.02 -0.05 -1
vn 0.02 -0.05 -1
vn 0.02 -0.05 -1
vn -0.1 -0.28 -0.96
vn -0.1 -0.28 -0.96
vn -0.1 -0.28 -0.96
vn -0.8 -0.09 -0.59
vn -0.8 -0.09 -0.59
vn -0.8 -0.09 -0.59
vn -0.78 -0.05 -0.62
vn -0.78 -0.05 -0.62
vn -0.78 -0.05 -0.62
vn -0.86 -0.3 -0.41
vn -0.86 -0.3 -0.41
vn -0.86 -0.3 -0.41
vn -0.85 -0.09 -0.53
vn -0.85 -0.09 -0.53
vn -0.85 -0.09 -0.53
vn -0.59 -0.57 0.57
vn -0.59 -0.57 0.57
vn -0.59 -0.57 0.57
vn -0.78 -0.29 0.55
vn -0.78 -0.29 0.55
vn -0.78 -0.29 0.55
vn -0.6 -0.04 0.8
vn -0.6 -0.04 0.8
vn -0.6 -0.04 0.8
vn -0.21 -0.56 0.8
vn -0.21 -0.56 0.8
vn -0.21 -0.56 0.8
vn 0.18 0.27 0.95
vn 0.18 0.27 0.95
vn 0.18 0.27 0.95
vn 0.24 0.16 0.96
vn 0.24 0.16 0.96
vn 0.24 0.16 0.96
vn 0.61 0.65 0.46
vn 0.61 0.65 0.46
vn 0.61 0.65 0.46
vn 0.9 0.27 0.35
vn 0.9 0.27 0.35
vn 0.9 0.27 0.35
vn 0.81 0.5 -0.3
vn 0.81 0.5 -0.3
vn 0.81 0.5 -0.3
vn 0.71 0.69 -0.13
vn 0.71 0.69 -0.13
vn 0.71 0.69 -0.13
vn 0.54 0.01 -0.84
vn 0.54 0.01 -0.84
vn 0.54 0.01 -0.84
vn 0.63 0.5 -0.6
vn 0.63 0.5 -0.6
vn 0.63 0.5 -0.6
vn -0.1 0.23 -0.97
vn -0.1 0.23 -0.97
vn -0.1 0.23 -0.97
vn -0.21 0.01 -0.98
vn -0.21 0.01 -0.98
vn -0.21 0.01 -0.98
vn -0.78 -0.05 -0.62
vn -0.78 -0.05 -0.62
vn -0.78 -0.05 -0.62
vn -0.61 0.24 -0.75
vn -0.61 0.24 -0.75
vn -0.61 0.24 -0.75
vn -0.81 0.31 -0.5
vn -0.81 0.31 -0.5
vn -0.81 0.31 -0.5
vn -0.94 -0.05 -0.34
vn -0.94 -0.05 -0.34
vn -0.94 -0.05 -0.34
vn -0.75 0.41 0.52
vn -0.75 0.41 0.52
vn -0.75 0.41 0.52
vn -0.75 0.31 0.58
vn -0.75 0.31 0.58
vn -0.75 0.31 0.58
vn -0.26 0.15 0.95
vn -0.26 0.15 0.95
vn -0.26 0.15 0.95
vn -0.39 0.43 0.81
vn -0.39 0.43 0.81
vn -0.39 0.43 0.81
vn 0.15 0.78 0.61
vn 0.15 0.78 0.61
vn 0.15 0.78 0.61
vn 0.15 0.78 0.61
vn 0.15 0.78 0.61
vn 0.15 0.78 0.61
vn 0.53 0.82 0.21
vn 0.53 0.82 0.21
vn 0.53 0.82 0.21
vn 0.65 0.74 0.15
vn 0.65 0.74 0.15
vn 0.65 0.74 0.15
vn 0.63 0.77 -0.12
vn 0.63 0.77 -0.12
vn 0.63 0.77 -0.12
vn 0.56 0.83 0.01
vn 0.56 0.83 0.01
vn 0.56 0.83 0.01
vn 0.4 0.83 -0.38
vn 0.4 0.83 -0.38
vn 0.4 0.83 -0.38
vn 0.39 0.75 -0.53
vn 0.39 0.75 -0.53
vn 0.39 0.75 -0.53
vn -0.12 0.84 -0.54
vn -0.12 0.84 -0.54
vn -0.12 0.84 -0.54
vn -0.12 0.83 -0.54
vn -0.12 0.83 -0.54
vn -0.12 0.83 -0.54
vn -0.4 0.78 -0.49
vn -0.4 0.78 -0.49
vn -0.4 0.78 -0.49
vn -0.21 0.84 -0.5
vn -0.21 0.84 -0.5
vn -0.21 0.84 -0.5
vn -0.54 0.82 -0.2
vn -0.54 0.82 -0.2
vn -0.54 0.82 -0.2
vn -0.64 0.75 -0.13
vn -0.64 0.75 -0.13
vn -0.64 0.75 -0.13
vn -0.55 0.72 0.43
vn -0.55 0.72 0.43
vn -0.55 0.72 0.43
vn -0.51 0.8 0.3
vn -0.51 0.8 0.3
vn -0.51 0.8 0.3
vn -0.29 0.74 0.6
vn -0.29 0.74 0.6
vn -0.29 0.74 0.6
vn -0.28 0.73 0.63
vn -0.28 0.73 0.63
vn -0.28 0.73 0.63
vn 0.1 0.9 0.41
vn 0.1 0.9 0.41
vn 0.1 0.9 0.41
vn 0.11 0.9 0.41
vn 0.11 0.9 0.41
vn 0.11 0.9 0.41
vn 0.48 0.87 0.11
vn 0.48 0.87 0.11
vn 0.48 0.87 0.11
vn 0.36 0.91 0.19
vn 0.36 0.91 0.19
vn 0.36 0.91 0.19
vn 0.45 0.89 0
vn 0.45 0.89 0
vn 0.45 0.89 0
vn 0.5 0.81 -0.31
vn 0.5 0.81 -0.31
vn 0.5 0.81 -0.31
vn 0.27 0.89 -0.37
vn 0.27 0.89 -0.37
vn 0.27 0.89 -0.37
vn 0.33 0.91 -0.24
vn 0.33 0.91 -0.24
vn 0.33 0.91 -0.24
vn -0.11 0.88 -0.47
vn -0.11 0.88 -0.47
vn -0.11 0.88 -0.47
vn -0.19 0.85 -0.5
vn -0.19 0.85 -0.5
vn -0.19 0.85 -0.5
vn -0.18 0.88 -0.43
vn -0.18 0.88 -0.43
vn -0.18 0.88 -0.43
vn -0.22 0.88 -0.42
vn -0.22 0.88 -0.42
vn -0.22 0.88 -0.42
vn -0.46 0.88 -0.1
vn -0.46 0.88 -0.1
vn -0.46 0.88 -0.1
vn -0.38 0.91 -0.19
vn -0.38 0.91 -0.19
vn -0.38 0.91 -0.19
vn -0.43 0.86 0.26
vn -0.43 0.86 0.26
vn -0.43 0.86 0.26
vn -0.43 0.85 0.29
vn -0.43 0.85 0.29
vn -0.43 0.85 0.29
vn -0.19 0.89 0.42
vn -0.19 0.89 0.42
vn -0.19 0.89 0.42
vn -0.16 0.88 0.45
vn -0.16 0.88 0.45
vn -0.16 0.88 0.45
vn 0 -1 0
vn 0 -1 0
vn 0 -1 0
vn 0 -1 0
vn 0 -1 0
vn 0 -1 0
vn 0 -1 0
vn 0 -1 0
vn 0 -1 0
vn 0 -1 0
vn 0 -1 0
vn 0 -1 0
vn 0 -1 0
vn 0 -1 0
vn 0 -1 0
vn 0 -1 0
vn 0 -1 0
vn 0 -1 0
vn 0 -1 0
vn 0 -1 0
vn 0 -1 0
vn 0 -1 0
vn 0 -1 0
vn 0 -1 0
vn 0 -1 0
vn 0 -1 0
vn 0 -1 0
vn 0 1 0
vn 0 1 0
vn 0 1 0
vn 0 1 0
vn 0 1 0
vn 0 1 0
vn 0 1 0
vn 0 1 0
vn 0 1 0
vn 0 1 0
vn 0 1 0
vn 0 1 0
vn 0 1 0
vn 0 1 0
vn 0 1 0
vn 0 1 0
vn 0 1 0
vn 0 1 0
vn 0 1 0
vn 0 1 0
vn 0 1 0
vn 0 1 0
vn 0 1 0
vn 0 1 0
vn 0 1 0
vn 0 1 0
vn 0 1 0
usemtl OC_Hull
s off
f 1//1 2//2 3//3
f 4//4 5//5 6//6
f 7//7 8//8 9//9
f 10//10 11//11 12//12
f 13//13 14//14 15//15
f 16//16 17//17 18//18
f 19//19 20//20 21//21
f 22//22 23//23 24//24
f 25//25 26//26 27//27
f 28//28 29//29 30//30
f 31//31 32//32 33//33
f 34//34 35//35 36//36
f 37//37 38//38 39//39
f 40//40 41//41 42//42
f 43//43 44//44 45//45
f 46//46 47//47 48//48
f 49//49 50//50 51//51
f 52//52 53//53 54//54
f 55//55 56//56 57//57
f 58//58 59//59 60//60
f 61//61 62//62 63//63
f 64//64 65//65 66//66
f 67//67 68//68 69//69
f 70//70 71//71 72//72
f 73//73 74//74 75//75
f 76//76 77//77 78//78
f 79//79 80//80 81//81
f 82//82 83//83 84//84
f 85//85 86//86 87//87
f 88//88 89//89 90//90
f 91//91 92//92 93//93
f 94//94 95//95 96//96
f 97//97 98//98 99//99
f 100//100 101//101 102//102
f 103//103 104//104 105//105
f 106//106 107//107 108//108
f 109//109 110//110 111//111
f 112//112 113//113 114//114
f 115//115 116//116 117//117
f 118//118 119//119 120//120
f 121//121 122//122 123//123
f 124//124 125//125 126//126
f 127//127 128//128 129//129
f 130//130 131//131 132//132
f 133//133 134//134 135//135
f 136//136 137//137 138//138
f 139//139 140//140 141//141
f 142//142 143//143 144//144
f 145//145 146//146 147//147
f 148//148 149//149 150//150
f 151//151 152//152 153//153
f 154//154 155//155 156//156
f 157//157 158//158 159//159
f 160//160 161//161 162//162
f 163//163 164//164 165//165
f 166//166 167//167 168//168
f 169//169 170//170 171//171
f 172//172 173//173 174//174
f 175//175 176//176 177//177
f 178//178 179//179 180//180
f 181//181 182//182 183//183
f 184//184 185//185 186//186
f 187//187 188//188 189//189
f 190//190 191//191 192//192
f 193//193 194//194 195//195
f 196//196 197//197 198//198
f 199//199 200//200 201//201
f 202//202 203//203 204//204
f 205//205 206//206 207//207
f 208//208 209//209 210//210
f 211//211 212//212 213//213
f 214//214 215//215 216//216
f 217//217 218//218 219//219
f 220//220 221//221 222//222
f 223//223 224//224 225//225
f 226//226 227//227 228//228
f 229//229 230//230 231//231
f 232//232 233//233 234//234
f 235//235 236//236 237//237
f 238//238 239//239 240//240
f 241//241 242//242 243//243
f 244//244 245//245 246//246
f 247//247 248//248 249//249
f 250//250 251//251 252//252
f 253//253 254//254 255//255
f 256//256 257//257 258//258
f 259//259 260//260 261//261
f 262//262 263//263 264//264
f 265//265 266//266 267//267
f 268//268 269//269 270//270
f 271//271 272//272 273//273
f 274//274 275//275 276//276
f 277//277 278//278 279//279
f 280//280 281//281 282//282
f 283//283 284//284 285//285
f 286//286 287//287 288//288
f 289//289 290//290 291//291
f 292//292 293//293 294//294
f 295//295 296//296 297//297
f 298//298 299//299 300//300
f 301//301 302//302 303//303
f 304//304 305//305 306//306
f 307//307 308//308 309//309
f 310//310 311//311 312//312
f 313//313 314//314 315//315
f 316//316 317//317 318//318
f 319//319 320//320 321//321
f 322//322 323//323 324//324
f 325//325 326//326 327//327
f 328//328 329//329 330//330
f 331//331 332//332 333//333
f 334//334 335//335 336//336
f 337//337 338//338 339//339
f 340//340 341//341 342//342
f 343//343 344//344 345//345
f 346//346 347//347 348//348
f 349//349 350//350 351//351
f 352//352 353//353 354//354
f 355//355 356//356 357//357
f 358//358 359//359 360//360
f 361//361 362//362 363//363
f 364//364 365//365 366//366
f 367//367 368//368 369//369
f 370//370 371//371 372//372
f 373//373 374//374 375//375
f 376//376 377//377 378//378
